<?xml version="1.0" standalone="no"?>
<!DOCTYPE svg PUBLIC "-//W3C//DTD SVG 1.1//EN" "http://www.w3.org/Graphics/SVG/1.1/DTD/svg11.dtd" >
<svg xmlns="http://www.w3.org/2000/svg" xmlns:xlink="http://www.w3.org/1999/xlink" version="1.1">
<metadata>
Created by FontForge 20201107 at Tue Feb 13 23:59:31 2024
 By 
(c) 1998-2020 Typodermic Fonts Inc.
</metadata>
<defs>
<font id="VipnagorgiallaRg-Italic" horiz-adv-x="0" >
  <font-face 
    font-family="Vipnagorgialla Rg"
    font-weight="400"
    font-style="italic"
    font-stretch="normal"
    units-per-em="2048"
    panose-1="2 11 6 5 2 2 2 8 0 4"
    ascent="1436"
    descent="-612"
    x-height="1006"
    cap-height="1354"
    bbox="-1503 -612 2841 2253"
    underline-thickness="40"
    underline-position="-292"
    slope="-12"
    unicode-range="U+0017-2265"
  />
<missing-glyph horiz-adv-x="1208" 
d="M918 -383h-629q-178 0 -178 166v1753q0 83 45.5 125.5t132.5 42.5h629q180 0 180 -168v-1753q0 -166 -180 -166zM289 -260h629q67 0 67 43v1753q0 45 -67 45h-629q-64 0 -64 -45v-1753q0 -43 64 -43z" />
    <glyph glyph-name=".notdef" horiz-adv-x="1208" 
d="M918 -383h-629q-178 0 -178 166v1753q0 83 45.5 125.5t132.5 42.5h629q180 0 180 -168v-1753q0 -166 -180 -166zM289 -260h629q67 0 67 43v1753q0 45 -67 45h-629q-64 0 -64 -45v-1753q0 -43 64 -43z" />
    <glyph glyph-name=".null" 
 />
    <glyph glyph-name="nonmarkingreturn" horiz-adv-x="682" 
 />
    <glyph glyph-name="uni0017" horiz-adv-x="628" 
 />
    <glyph glyph-name="space" unicode=" " horiz-adv-x="628" 
 />
    <glyph glyph-name="exclam" unicode="!" horiz-adv-x="495" 
d="M307 0h-282l55 268h282zM375 434h-230l156 920h305z" />
    <glyph glyph-name="quotedbl" unicode="&#x22;" horiz-adv-x="667" 
d="M356 903h-137l70 451h190zM664 903h-138l70 451h190z" />
    <glyph glyph-name="numbersign" unicode="#" horiz-adv-x="1206" 
d="M657 0h-122l157 385h-297l-157 -385h-125l155 385h-211l29 127h238l137 336h-213l26 125h240l158 381h129l-160 -381h299l160 381h127l-160 -381h201l-27 -125h-229l-138 -336h209l-28 -127h-238zM748 512l139 336h-299l-137 -336h297z" />
    <glyph glyph-name="dollar" unicode="$" horiz-adv-x="1259" 
d="M70 328h731q92 0 131.5 29.5t54.5 101.5l6 24q4 20 4 31q0 86 -118 86h-443q-137 0 -203.5 42t-66.5 130q0 24 6 59l14 72q28 140 116.5 195t279.5 55h170l43 201h100l-43 -201h385l-35 -162h-629q-93 0 -130.5 -28.5t-55.5 -102.5l-8 -35q-4 -24 -4 -32q0 -84 119 -84
h430q144 0 210 -42t66 -124q0 -18 -8 -64l-10 -49q-31 -148 -112.5 -205t-278.5 -57h-148l-35 -168h-100l35 168h-508z" />
    <glyph glyph-name="percent" unicode="%" horiz-adv-x="1832" 
d="M637 678h-293q-117 0 -165 20.5t-48 83.5q0 24 6 58l76 352q21 99 78.5 130.5t195.5 31.5h293q118 0 165.5 -20.5t47.5 -82.5q0 -25 -6 -59l-76 -352q-23 -100 -79 -131t-195 -31zM768 866l63 297q5 30 5 31q0 32 -24 42.5t-89 10.5h-221q-75 0 -105.5 -16t-40.5 -68
l-63 -297q-4 -24 -4 -28q0 -33 25 -43.5t89 -10.5h222q76 0 104.5 15.5t38.5 66.5zM442 0h-145l1214 1354h142zM1464 0h-293q-117 0 -165 20.5t-48 83.5q0 18 7 58l75 352q21 99 79 130.5t196 31.5h293q118 0 165.5 -20.5t47.5 -82.5q0 -25 -6 -59l-76 -352
q-23 -100 -79 -131t-196 -31zM1595 188l64 297q4 24 4 31q0 32 -24 42.5t-89 10.5h-221q-75 0 -105 -16t-40 -68l-64 -297q-4 -24 -4 -28q0 -32 25.5 -43t89.5 -11h221q76 0 104.5 15.5t38.5 66.5z" />
    <glyph glyph-name="ampersand" unicode="&#x26;" horiz-adv-x="1617" 
d="M578 193h147q109 0 157.5 29.5t65.5 103.5l58 264h-441q-76 0 -119 -34.5t-61 -119.5l-14 -65q-9 -38 -9 -66q0 -65 49.5 -88.5t166.5 -23.5zM602 768h1034l-37 -178h-358l-57 -264q-6 -30 -6 -52q0 -45 36.5 -63t133.5 -18h165l-38 -193h-215q-197 0 -252 86
q-33 -36 -106 -61t-169 -25h-233q-233 0 -329.5 43t-96.5 166q0 55 14 115l27 127q42 196 194 227q-102 30 -102 147q0 35 8 68l29 137q17 80 44.5 135t67.5 92.5t102.5 58.5t139.5 29.5t188 8.5h732l-41 -193h-693q-139 0 -197 -36t-81 -142l-14 -65q-7 -35 -7 -54
q0 -50 29 -73t88 -23z" />
    <glyph glyph-name="quotesingle" unicode="'" horiz-adv-x="358" 
d="M356 903h-137l70 451h190z" />
    <glyph glyph-name="parenleft" unicode="(" horiz-adv-x="843" 
d="M575 -420h-190q-164 339 -164 707q0 371 159.5 732.5t457.5 686.5h190q-308 -314 -470.5 -669t-162.5 -726q0 -374 180 -731z" />
    <glyph glyph-name="parenright" unicode=")" horiz-adv-x="843" 
d="M375 1706h190q162 -344 162 -702q0 -373 -158 -736.5t-456 -687.5h-191q308 311 470.5 669t162.5 728q0 363 -180 729z" />
    <glyph glyph-name="asterisk" unicode="*" horiz-adv-x="1136" 
d="M842 428l-90 -39l-101 406l-258 -410l-80 39l293 389l-463 -119l-4 90l465 86l-313 260l76 68l278 -283l76 439h98l-106 -436l393 290l51 -73l-416 -263l424 -81l-37 -86l-413 106z" />
    <glyph glyph-name="plus" unicode="+" horiz-adv-x="1171" 
d="M610 182h-139l92 426h-426l29 140h426l90 426h139l-90 -426h426l-29 -140h-426z" />
    <glyph glyph-name="comma" unicode="," horiz-adv-x="473" 
d="M106 -205h-83l18 82h37q33 0 48.5 14.5t23.5 49.5l16 69h-154l54 258h286l-69 -329q-15 -69 -62.5 -106.5t-114.5 -37.5z" />
    <glyph glyph-name="hyphen" unicode="-" horiz-adv-x="829" 
d="M834 559h-766l28 139h766z" />
    <glyph glyph-name="hyphen" unicode="&#x2010;" horiz-adv-x="829" 
d="M834 559h-766l28 139h766z" />
    <glyph glyph-name="hyphen" unicode="&#xad;" horiz-adv-x="829" 
d="M834 559h-766l28 139h766z" />
    <glyph glyph-name="period" unicode="." horiz-adv-x="473" 
d="M295 0h-281l56 268h280z" />
    <glyph glyph-name="slash" unicode="/" horiz-adv-x="933" 
d="M59 -266h-196l1122 1825h197z" />
    <glyph glyph-name="zero" unicode="0" horiz-adv-x="1746" 
d="M1081 0h-583q-234 0 -329 42.5t-95 164.5q0 54 14 117l150 706q17 82 45.5 138t69 93t104.5 57t139.5 28t187.5 8h584q236 0 331 -42t95 -165q0 -54 -14 -117l-150 -706q-17 -82 -45 -137.5t-68.5 -93t-104 -57.5t-140.5 -28t-191 -8zM1366 379l125 594q10 48 10 71
q0 68 -54.5 92.5t-191.5 24.5h-436q-164 0 -227.5 -36t-87.5 -152l-125 -594q-10 -48 -10 -72q0 -67 53.5 -90.5t189.5 -23.5h437q164 0 228.5 36t88.5 150z" />
    <glyph glyph-name="one" unicode="1" horiz-adv-x="610" 
d="M416 0h-279l246 1161h-170l41 193h448z" />
    <glyph glyph-name="two" unicode="2" horiz-adv-x="1736" 
d="M1548 0h-1525l96 457q33 156 147.5 235.5t327.5 79.5h600q129 0 191.5 38.5t78.5 115.5l15 69q6 30 6 56q0 64 -50.5 88t-168.5 24h-443q-160 0 -225 -35.5t-88 -140.5l-12 -55h-279l23 102q15 68 36 117t53.5 85t72.5 58.5t99.5 36t127 18.5t162.5 5h563
q233 0 329.5 -42.5t96.5 -166.5q0 -32 -15 -113l-34 -158q-22 -98 -75 -159t-163.5 -96t-284.5 -35h-581q-108 0 -166 -43.5t-76 -128.5l-47 -219h1247z" />
    <glyph glyph-name="three" unicode="3" horiz-adv-x="1712" 
d="M1624 455l-29 -131q-18 -81 -46.5 -136.5t-69 -93t-104 -58t-140 -28.5t-188.5 -8h-566q-235 0 -330.5 42.5t-95.5 164.5q0 49 15 117l32 149h279l-19 -86q-10 -52 -10 -80q0 -68 52 -91t190 -23h457q135 0 197 37.5t83 140.5l12 61q9 56 9 64q0 52 -29 73t-86 21h-549
l37 178h543q147 0 176 150l12 63q8 50 8 66q0 65 -48.5 89.5t-162.5 24.5h-450q-165 0 -228.5 -37.5t-89.5 -156.5l-18 -84h-279l31 147q17 81 44.5 136.5t68 93t104.5 58t141.5 28.5t190.5 8h565q229 0 322.5 -43t93.5 -162q0 -40 -14 -119l-27 -133q-19 -93 -70 -145
t-114 -70q108 -27 108 -154q0 -37 -8 -73z" />
    <glyph glyph-name="four" unicode="4" horiz-adv-x="1648" 
d="M1563 260h-179l-53 -260h-278l53 260h-1071l39 178l1212 916h332l-193 -903h179zM1147 451l141 665l-874 -665h733z" />
    <glyph glyph-name="five" unicode="5" horiz-adv-x="1736" 
d="M594 193h477q139 0 201.5 36.5t83.5 141.5l14 71q8 50 8 66q0 67 -49.5 92t-165.5 25h-1009l155 729h1518l-41 -193h-1237l-76 -354h803q199 0 292 -52.5t93 -174.5q0 -53 -10 -97l-35 -159q-18 -83 -46.5 -138.5t-69 -93t-104.5 -57t-140 -27.5t-189 -8h-565
q-234 0 -330 43t-96 166q0 55 14 115l23 102h280l-12 -57q-8 -33 -8 -64q0 -64 49.5 -88t171.5 -24z" />
    <glyph glyph-name="six" unicode="6" horiz-adv-x="1708" 
d="M1063 0h-563q-233 0 -329.5 43t-96.5 166q0 55 14 115l152 710q17 82 45 137t68 92t103.5 56.5t139.5 27t190 7.5h609q201 0 290 -52.5t89 -171.5q0 -48 -11 -96l-22 -106h-279l13 59q6 27 6 53q0 65 -53 94t-173 29h-469q-138 0 -197.5 -35.5t-80.5 -136.5l-37 -180h858
q163 0 248.5 -55.5t85.5 -159.5q0 -29 -6 -59l-45 -213q-17 -82 -44.5 -137t-67 -92.5t-103 -58t-141.5 -28.5t-193 -8zM598 193h461q141 0 201 35.5t83 140.5l23 104q4 24 4 37q0 119 -174 119h-764l-55 -254q-8 -36 -8 -68q0 -67 50.5 -90.5t178.5 -23.5z" />
    <glyph glyph-name="seven" unicode="7" horiz-adv-x="1488" 
d="M408 0h-326l1153 1161h-1010l41 193h1364l-33 -152z" />
    <glyph glyph-name="eight" unicode="8" horiz-adv-x="1732" 
d="M1276 1161h-490q-137 0 -197 -37t-83 -143l-14 -68q-7 -35 -7 -55q0 -49 28.5 -71.5t90.5 -22.5h686q75 0 116 35.5t58 113.5l15 68q8 33 8 66q0 65 -48.5 89.5t-162.5 24.5zM1260 594h-699q-72 0 -113.5 -34.5t-60.5 -123.5l-14 -65q-8 -33 -8 -64q0 -66 48 -90t162 -24
h498q136 0 197 37t84 141l14 65q8 50 8 62q0 53 -29 74.5t-87 21.5zM1069 0h-567q-234 0 -331 43.5t-97 167.5q0 53 14 113l29 131q23 106 76 159.5t118 67.5q-98 30 -98 145q0 34 8 70l27 133q16 80 43.5 135t67.5 92.5t102.5 58.5t139.5 29.5t187 8.5h568q229 0 322.5 -43
t93.5 -162q0 -35 -15 -119l-26 -133q-19 -93 -70.5 -145t-114.5 -70q48 -12 80.5 -47.5t32.5 -95.5q0 -27 -6 -54l-35 -161q-17 -81 -45.5 -136.5t-69.5 -93t-105 -58t-140.5 -28.5t-188.5 -8z" />
    <glyph glyph-name="nine" unicode="9" horiz-adv-x="1726" 
d="M1063 0h-610q-198 0 -287.5 52t-89.5 167q0 45 12 100l23 107h276l-12 -59q-8 -40 -8 -56q0 -64 52 -91t173 -27h469q139 0 197 34t81 135l41 191h-858q-162 0 -248 55t-86 158q0 21 7 61l43 203q17 82 44.5 137t67 92.5t103 58t141 28.5t192.5 8h564q233 0 329.5 -43
t96.5 -166q0 -34 -15 -115l-149 -711q-17 -82 -45.5 -137t-68.5 -91.5t-104.5 -56t-140.5 -27t-190 -7.5zM1249 1161h-461q-141 0 -200 -36t-82 -142l-21 -92q-4 -28 -4 -37q0 -117 174 -117h764l51 240q9 40 9 67q0 68 -51 92.5t-179 24.5z" />
    <glyph glyph-name="colon" unicode=":" horiz-adv-x="563" 
d="M489 709h-280l55 268h281zM379 184h-281l56 269h280z" />
    <glyph glyph-name="semicolon" unicode=";" horiz-adv-x="563" 
d="M489 709h-280l55 268h281zM190 -20h-84l19 81h37q33 0 48 14.5t23 49.5l17 70h-154l54 258h286l-69 -330q-15 -69 -62 -106t-115 -37z" />
    <glyph glyph-name="less" unicode="&#x3c;" horiz-adv-x="1171" 
d="M1032 160l-901 422l39 188l1081 422l-30 -148l-953 -368l795 -371z" />
    <glyph glyph-name="equal" unicode="=" horiz-adv-x="1171" 
d="M1184 870h-991l28 140h991zM1073 348h-991l29 139h991z" />
    <glyph glyph-name="greater" unicode="&#x3e;" horiz-adv-x="1171" 
d="M1122 582l-1081 -422l31 145l954 371l-797 368l31 148l901 -422z" />
    <glyph glyph-name="question" unicode="?" horiz-adv-x="1615" 
d="M938 752h217q94 0 148.5 38t74.5 123l17 72q8 50 8 64q0 66 -48 90t-167 24h-438q-158 0 -224.5 -38t-89.5 -154l-16 -84h-262l30 147q17 81 43.5 135t65.5 91.5t101.5 57.5t140 28t192.5 8h543q236 0 330 -42t94 -161q0 -33 -15 -117l-36 -172q-32 -150 -145 -220.5
t-314 -70.5h-225q-52 0 -79 -24t-36 -72l-14 -65h-230l21 96q26 126 96.5 186t216.5 60zM772 0h-280l55 268h280z" />
    <glyph glyph-name="at" unicode="@" horiz-adv-x="1523" 
d="M1249 -420h-1016q-143 0 -201.5 36.5t-58.5 125.5q0 41 17 121l217 1022q17 83 38.5 131.5t62 83.5t102 48t159.5 13h750q122 0 172.5 -34.5t50.5 -118.5q0 -41 -18 -136l-174 -823h-723q-74 0 -108 29t-34 90q0 25 11 82l65 305q7 32 15.5 57t24 52.5t36.5 45.5t53 30
t72 12h358l-123 -574h215l142 662q8 36 8 69q0 44 -23 63t-77 19h-682q-90 0 -126.5 -31.5t-54.5 -113.5l-196 -926q-8 -31 -8 -61q0 -46 29 -66t98 -20h968zM885 178l96 457h-217q-73 0 -92 -100l-56 -259q-6 -24 -6 -40q0 -58 64 -58h211z" />
    <glyph glyph-name="A" unicode="A" horiz-adv-x="1695" 
d="M1282 0l-61 270h-787l-174 -270h-307l924 1354h352l350 -1354h-297zM1016 1167l-461 -710h623z" />
    <glyph glyph-name="A" unicode="&#x410;" horiz-adv-x="1695" 
d="M1282 0l-61 270h-787l-174 -270h-307l924 1354h352l350 -1354h-297zM1016 1167l-461 -710h623z" />
    <glyph glyph-name="A" unicode="&#x391;" horiz-adv-x="1695" 
d="M1282 0l-61 270h-787l-174 -270h-307l924 1354h352l350 -1354h-297zM1016 1167l-461 -710h623z" />
    <glyph glyph-name="B" unicode="B" horiz-adv-x="1712" 
d="M1630 457l-28 -133q-17 -81 -45.5 -136.5t-69.5 -93t-105 -58t-140.5 -28.5t-188.5 -8h-1024l286 1354h1024q229 0 322.5 -43t93.5 -162q0 -40 -14 -119l-27 -133q-19 -92 -70 -144t-116 -69q110 -27 110 -152q0 -36 -8 -75zM471 768h801q74 0 118 34t58 113l12 66
q8 50 8 68q0 64 -47 88t-161 24h-705zM1235 590h-801l-86 -397h705q139 0 199.5 36t84.5 142l15 63q6 35 6 58q0 54 -30 76t-93 22z" />
    <glyph glyph-name="B" unicode="&#x412;" horiz-adv-x="1712" 
d="M1630 457l-28 -133q-17 -81 -45.5 -136.5t-69.5 -93t-105 -58t-140.5 -28.5t-188.5 -8h-1024l286 1354h1024q229 0 322.5 -43t93.5 -162q0 -40 -14 -119l-27 -133q-19 -92 -70 -144t-116 -69q110 -27 110 -152q0 -36 -8 -75zM471 768h801q74 0 118 34t58 113l12 66
q8 50 8 68q0 64 -47 88t-161 24h-705zM1235 590h-801l-86 -397h705q139 0 199.5 36t84.5 142l15 63q6 35 6 58q0 54 -30 76t-93 22z" />
    <glyph glyph-name="B" unicode="&#x392;" horiz-adv-x="1712" 
d="M1630 457l-28 -133q-17 -81 -45.5 -136.5t-69.5 -93t-105 -58t-140.5 -28.5t-188.5 -8h-1024l286 1354h1024q229 0 322.5 -43t93.5 -162q0 -40 -14 -119l-27 -133q-19 -92 -70 -144t-116 -69q110 -27 110 -152q0 -36 -8 -75zM471 768h801q74 0 118 34t58 113l12 66
q8 50 8 68q0 64 -47 88t-161 24h-705zM1235 590h-801l-86 -397h705q139 0 199.5 36t84.5 142l15 63q6 35 6 58q0 54 -30 76t-93 22z" />
    <glyph glyph-name="C" unicode="C" horiz-adv-x="1634" 
d="M1462 0h-962q-234 0 -330 43t-96 166q0 55 14 115l150 706q17 80 44.5 135t68.5 92.5t104 58.5t141 29.5t190 8.5h963l-41 -193h-889q-153 0 -221.5 -39.5t-91.5 -148.5l-125 -594q-8 -46 -8 -62q0 -71 54.5 -97.5t184.5 -26.5h889z" />
    <glyph glyph-name="C" unicode="&#x421;" horiz-adv-x="1634" 
d="M1462 0h-962q-234 0 -330 43t-96 166q0 55 14 115l150 706q17 80 44.5 135t68.5 92.5t104 58.5t141 29.5t190 8.5h963l-41 -193h-889q-153 0 -221.5 -39.5t-91.5 -148.5l-125 -594q-8 -46 -8 -62q0 -71 54.5 -97.5t184.5 -26.5h889z" />
    <glyph glyph-name="D" unicode="D" horiz-adv-x="1712" 
d="M1047 0h-1018l286 1354h1018q233 0 329.5 -43t96.5 -166q0 -40 -14 -115l-150 -706q-17 -81 -45 -136t-68 -92.5t-103.5 -58t-141 -29t-190.5 -8.5zM1329 379l125 594q8 50 8 65q0 70 -54.5 96.5t-186.5 26.5h-666l-207 -968h666q154 0 223 39t92 147z" />
    <glyph glyph-name="E" unicode="E" horiz-adv-x="1638" 
d="M1477 0h-1448l286 1354h1448l-41 -193h-1167l-84 -391h711l-37 -182h-711l-86 -395h1168z" />
    <glyph glyph-name="E" unicode="&#x415;" horiz-adv-x="1638" 
d="M1477 0h-1448l286 1354h1448l-41 -193h-1167l-84 -391h711l-37 -182h-711l-86 -395h1168z" />
    <glyph glyph-name="E" unicode="&#x395;" horiz-adv-x="1638" 
d="M1477 0h-1448l286 1354h1448l-41 -193h-1167l-84 -391h711l-37 -182h-711l-86 -395h1168z" />
    <glyph glyph-name="F" unicode="F" horiz-adv-x="1593" 
d="M1176 586h-744l-123 -586h-280l286 1354h1432l-41 -193h-1151l-82 -387h744z" />
    <glyph glyph-name="G" unicode="G" horiz-adv-x="1710" 
d="M1520 0h-1020q-236 0 -331 44t-95 165q0 55 14 115l150 706q17 79 43.5 133t67 92t102.5 59.5t141.5 30.5t193.5 9h1020l-41 -193h-946q-162 0 -228 -39t-89 -149l-125 -594q-8 -33 -8 -66q0 -69 54 -94.5t189 -25.5h678l84 393h-610l41 190h878z" />
    <glyph glyph-name="H" unicode="H" horiz-adv-x="1726" 
d="M1534 0h-281l123 584h-944l-123 -584h-280l286 1354h281l-123 -578h944l123 578h281z" />
    <glyph glyph-name="H" unicode="&#x41d;" horiz-adv-x="1726" 
d="M1534 0h-281l123 584h-944l-123 -584h-280l286 1354h281l-123 -578h944l123 578h281z" />
    <glyph glyph-name="H" unicode="&#x397;" horiz-adv-x="1726" 
d="M1534 0h-281l123 584h-944l-123 -584h-280l286 1354h281l-123 -578h944l123 578h281z" />
    <glyph glyph-name="I" unicode="I" horiz-adv-x="501" 
d="M307 0h-278l286 1354h279z" />
    <glyph glyph-name="I" unicode="&#x4cf;" horiz-adv-x="501" 
d="M307 0h-278l286 1354h279z" />
    <glyph glyph-name="I" unicode="&#x4c0;" horiz-adv-x="501" 
d="M307 0h-278l286 1354h279z" />
    <glyph glyph-name="I" unicode="&#x406;" horiz-adv-x="501" 
d="M307 0h-278l286 1354h279z" />
    <glyph glyph-name="I" unicode="&#x399;" horiz-adv-x="501" 
d="M307 0h-278l286 1354h279z" />
    <glyph glyph-name="J" unicode="J" horiz-adv-x="1484" 
d="M815 0h-848l39 193h774q158 0 225 37t91 149l207 975h278l-219 -1030q-17 -81 -45 -136t-68.5 -92.5t-104 -58t-140.5 -29t-189 -8.5z" />
    <glyph glyph-name="J" unicode="&#x408;" horiz-adv-x="1484" 
d="M815 0h-848l39 193h774q158 0 225 37t91 149l207 975h278l-219 -1030q-17 -81 -45 -136t-68.5 -92.5t-104 -58t-140.5 -29t-189 -8.5z" />
    <glyph glyph-name="K" unicode="K" horiz-adv-x="1726" 
d="M1550 0h-278l86 406q6 30 6 55q0 63 -44.5 92t-145.5 29h-744l-123 -582h-278l286 1354h279l-139 -656l1050 656h326l-965 -592h486q162 0 234.5 -49t72.5 -152q0 -52 -10 -96z" />
    <glyph glyph-name="K" unicode="&#x41a;" horiz-adv-x="1726" 
d="M1550 0h-278l86 406q6 30 6 55q0 63 -44.5 92t-145.5 29h-744l-123 -582h-278l286 1354h279l-139 -656l1050 656h326l-965 -592h486q162 0 234.5 -49t72.5 -152q0 -52 -10 -96z" />
    <glyph glyph-name="K" unicode="&#x39a;" horiz-adv-x="1726" 
d="M1550 0h-278l86 406q6 30 6 55q0 63 -44.5 92t-145.5 29h-744l-123 -582h-278l286 1354h279l-139 -656l1050 656h326l-965 -592h486q162 0 234.5 -49t72.5 -152q0 -52 -10 -96z" />
    <glyph glyph-name="L" unicode="L" horiz-adv-x="1294" 
d="M1157 0h-1128l286 1354h281l-248 -1161h848z" />
    <glyph glyph-name="M" unicode="M" horiz-adv-x="2041" 
d="M1847 0h-258l211 995l-737 -995h-252l-315 995l-211 -995h-256l286 1354h316l373 -1080l835 1080h295z" />
    <glyph glyph-name="M" unicode="&#x41c;" horiz-adv-x="2041" 
d="M1847 0h-258l211 995l-737 -995h-252l-315 995l-211 -995h-256l286 1354h316l373 -1080l835 1080h295z" />
    <glyph glyph-name="M" unicode="&#x39c;" horiz-adv-x="2041" 
d="M1847 0h-258l211 995l-737 -995h-252l-315 995l-211 -995h-256l286 1354h316l373 -1080l835 1080h295z" />
    <glyph glyph-name="N" unicode="N" horiz-adv-x="1703" 
d="M1509 0h-276l-729 987l-209 -987h-266l286 1354h295l703 -1010l215 1010h268z" />
    <glyph glyph-name="N" unicode="&#x39d;" horiz-adv-x="1703" 
d="M1509 0h-276l-729 987l-209 -987h-266l286 1354h295l703 -1010l215 1010h268z" />
    <glyph glyph-name="O" unicode="O" horiz-adv-x="1794" 
d="M1130 0h-632q-234 0 -329 42.5t-95 164.5q0 54 14 117l150 706q17 82 45.5 137.5t68.5 93t104 57.5t140 28t188 8h633q235 0 330.5 -42t95.5 -165q0 -38 -14 -117l-150 -706q-17 -82 -45.5 -137.5t-68.5 -93t-104 -57.5t-141 -28t-190 -8zM1415 379l125 594q8 36 8 67
q0 70 -54.5 95.5t-188.5 25.5h-486q-158 0 -224.5 -37t-90.5 -151l-125 -594q-8 -36 -8 -70q0 -68 53 -92t188 -24h486q160 0 226.5 37t90.5 149z" />
    <glyph glyph-name="O" unicode="&#x41e;" horiz-adv-x="1794" 
d="M1130 0h-632q-234 0 -329 42.5t-95 164.5q0 54 14 117l150 706q17 82 45.5 137.5t68.5 93t104 57.5t140 28t188 8h633q235 0 330.5 -42t95.5 -165q0 -38 -14 -117l-150 -706q-17 -82 -45.5 -137.5t-68.5 -93t-104 -57.5t-141 -28t-190 -8zM1415 379l125 594q8 36 8 67
q0 70 -54.5 95.5t-188.5 25.5h-486q-158 0 -224.5 -37t-90.5 -151l-125 -594q-8 -36 -8 -70q0 -68 53 -92t188 -24h486q160 0 226.5 37t90.5 149z" />
    <glyph glyph-name="O" unicode="&#x39f;" horiz-adv-x="1794" 
d="M1130 0h-632q-234 0 -329 42.5t-95 164.5q0 54 14 117l150 706q17 82 45.5 137.5t68.5 93t104 57.5t140 28t188 8h633q235 0 330.5 -42t95.5 -165q0 -38 -14 -117l-150 -706q-17 -82 -45.5 -137.5t-68.5 -93t-104 -57.5t-141 -28t-190 -8zM1415 379l125 594q8 36 8 67
q0 70 -54.5 95.5t-188.5 25.5h-486q-158 0 -224.5 -37t-90.5 -151l-125 -594q-8 -36 -8 -70q0 -68 53 -92t188 -24h486q160 0 226.5 37t90.5 149z" />
    <glyph glyph-name="P" unicode="P" horiz-adv-x="1673" 
d="M1147 481h-737l-101 -481h-280l286 1354h1018q235 0 330.5 -42.5t95.5 -164.5q0 -54 -14 -117l-47 -225q-17 -82 -45.5 -137.5t-69.5 -93t-105.5 -57.5t-141 -28t-189.5 -8zM1430 856l26 119q8 33 8 67q0 68 -50 93.5t-171 25.5h-688l-104 -493h688q146 0 205.5 37.5
t85.5 150.5z" />
    <glyph glyph-name="P" unicode="&#x420;" horiz-adv-x="1673" 
d="M1147 481h-737l-101 -481h-280l286 1354h1018q235 0 330.5 -42.5t95.5 -164.5q0 -54 -14 -117l-47 -225q-17 -82 -45.5 -137.5t-69.5 -93t-105.5 -57.5t-141 -28t-189.5 -8zM1430 856l26 119q8 33 8 67q0 68 -50 93.5t-171 25.5h-688l-104 -493h688q146 0 205.5 37.5
t85.5 150.5z" />
    <glyph glyph-name="P" unicode="&#x3a1;" horiz-adv-x="1673" 
d="M1147 481h-737l-101 -481h-280l286 1354h1018q235 0 330.5 -42.5t95.5 -164.5q0 -54 -14 -117l-47 -225q-17 -82 -45.5 -137.5t-69.5 -93t-105.5 -57.5t-141 -28t-189.5 -8zM1430 856l26 119q8 33 8 67q0 68 -50 93.5t-171 25.5h-688l-104 -493h688q146 0 205.5 37.5
t85.5 150.5z" />
    <glyph glyph-name="Q" unicode="Q" horiz-adv-x="1814" 
d="M1733 0h-1233q-235 0 -330.5 42t-95.5 167q0 54 14 117l150 704q20 94 52 152.5t94.5 99t158 56.5t243.5 16h586q207 0 287 -43.5t80 -153.5q0 -55 -19 -145l-176 -819h228zM1274 193l164 770q12 52 12 88q0 61 -43 85.5t-152 24.5h-436q-164 0 -228.5 -41t-86.5 -147
l-125 -592q-8 -36 -8 -70q0 -68 49 -93t166 -25h688z" />
    <glyph glyph-name="R" unicode="R" horiz-adv-x="1697" 
d="M1530 0h-279l76 365q8 50 8 63q0 54 -32.5 77t-104.5 23h-780l-111 -528h-278l286 1354h1059q213 0 297 -44t84 -153q0 -49 -16 -127l-39 -188q-38 -183 -187 -226q47 -12 77 -48.5t30 -102.5q0 -38 -8 -74zM1432 860l24 119q10 48 10 74q0 59 -44.5 83.5t-155.5 24.5
h-713l-96 -456h794q82 0 122.5 36t58.5 119z" />
    <glyph glyph-name="S" unicode="S" horiz-adv-x="1658" 
d="M1135 0h-1123l39 193h1061q95 0 139 33t62 114l22 113q4 28 4 36q0 95 -125 95h-759q-139 0 -212 51.5t-73 144.5q0 16 8 62l47 221q18 83 45 135.5t78 89t127 51.5t191 15h1038l-41 -193h-983q-100 0 -142.5 -33t-60.5 -114l-24 -109q-4 -24 -4 -35q0 -96 131 -96h753
q283 0 283 -203q0 -39 -8 -75l-43 -203q-34 -159 -129.5 -226t-300.5 -67z" />
    <glyph glyph-name="S" unicode="&#x405;" horiz-adv-x="1658" 
d="M1135 0h-1123l39 193h1061q95 0 139 33t62 114l22 113q4 28 4 36q0 95 -125 95h-759q-139 0 -212 51.5t-73 144.5q0 16 8 62l47 221q18 83 45 135.5t78 89t127 51.5t191 15h1038l-41 -193h-983q-100 0 -142.5 -33t-60.5 -114l-24 -109q-4 -24 -4 -35q0 -96 131 -96h753
q283 0 283 -203q0 -39 -8 -75l-43 -203q-34 -159 -129.5 -226t-300.5 -67z" />
    <glyph glyph-name="T" unicode="T" horiz-adv-x="1495" 
d="M807 0h-279l246 1161h-557l41 193h1387l-41 -193h-551z" />
    <glyph glyph-name="T" unicode="&#x422;" horiz-adv-x="1495" 
d="M807 0h-279l246 1161h-557l41 193h1387l-41 -193h-551z" />
    <glyph glyph-name="T" unicode="&#x3a4;" horiz-adv-x="1495" 
d="M807 0h-279l246 1161h-557l41 193h1387l-41 -193h-551z" />
    <glyph glyph-name="U" unicode="U" horiz-adv-x="1789" 
d="M1124 0h-620q-236 0 -332 43t-96 166q0 55 14 115l219 1030h281l-207 -975q-8 -36 -8 -68q0 -69 54 -93.5t189 -24.5h472q161 0 225 37t88 149l207 975h278l-219 -1030q-17 -81 -44.5 -135.5t-67.5 -92.5t-102.5 -58.5t-140 -29t-190.5 -8.5z" />
    <glyph glyph-name="V" unicode="V" horiz-adv-x="1695" 
d="M938 0h-348l-350 1354h315l266 -1118l752 1118h293z" />
    <glyph glyph-name="W" unicode="W" horiz-adv-x="2535" 
d="M1907 0h-336l-172 1026l-600 -1026h-336l-221 1354h299l155 -1106l645 1106h285l170 -1106l629 1106h278z" />
    <glyph glyph-name="X" unicode="X" horiz-adv-x="1714" 
d="M1872 1354l-766 -666l491 -688h-335l-365 506l-575 -506h-353l787 674l-482 680h336l357 -500l579 500h326z" />
    <glyph glyph-name="X" unicode="&#x425;" horiz-adv-x="1714" 
d="M1872 1354l-766 -666l491 -688h-335l-365 506l-575 -506h-353l787 674l-482 680h336l357 -500l579 500h326z" />
    <glyph glyph-name="X" unicode="&#x3a7;" horiz-adv-x="1714" 
d="M1872 1354l-766 -666l491 -688h-335l-365 506l-575 -506h-353l787 674l-482 680h336l357 -500l579 500h326z" />
    <glyph glyph-name="Y" unicode="Y" horiz-adv-x="1601" 
d="M858 0h-278l116 553l-465 801h326l322 -604l581 604h318l-803 -801z" />
    <glyph glyph-name="Y" unicode="&#x4ae;" horiz-adv-x="1601" 
d="M858 0h-278l116 553l-465 801h326l322 -604l581 604h318l-803 -801z" />
    <glyph glyph-name="Y" unicode="&#x3a5;" horiz-adv-x="1601" 
d="M858 0h-278l116 553l-465 801h326l322 -604l581 604h318l-803 -801z" />
    <glyph glyph-name="Z" unicode="Z" horiz-adv-x="1492" 
d="M1335 0h-1341l29 137l1173 1024h-956l41 193h1341l-33 -152l-1143 -1009h928z" />
    <glyph glyph-name="Z" unicode="&#x396;" horiz-adv-x="1492" 
d="M1335 0h-1341l29 137l1173 1024h-956l41 193h1341l-33 -152l-1143 -1009h928z" />
    <glyph glyph-name="bracketleft" unicode="[" horiz-adv-x="747" 
d="M516 -420h-522l452 2126h523l-27 -121h-352l-402 -1884h353z" />
    <glyph glyph-name="backslash" unicode="\" horiz-adv-x="933" 
d="M795 -266h-199l-348 1825h196z" />
    <glyph glyph-name="bracketright" unicode="]" horiz-adv-x="747" 
d="M338 1706h522l-452 -2126h-521l25 121h350l402 1884h-353z" />
    <glyph glyph-name="asciicircum" unicode="^" horiz-adv-x="964" 
d="M952 563h-145l-145 674l-433 -674h-145l508 791h188z" />
    <glyph glyph-name="underscore" unicode="_" horiz-adv-x="1091" 
d="M942 -358h-1112l25 114h1112z" />
    <glyph glyph-name="grave" unicode="`" horiz-adv-x="669" 
d="M778 1106h-200l-291 473h248z" />
    <glyph glyph-name="a" unicode="a" horiz-adv-x="1679" 
d="M1485 0h-1010q-233 0 -327.5 40t-94.5 153q0 38 13 98l8 43q22 114 75 171.5t157 80t302 22.5h727l11 54q6 35 6 57q0 65 -52.5 88.5t-181.5 23.5h-878l36 175h943q234 0 330 -43t96 -162q0 -42 -13 -105zM551 174h692l66 313h-693q-134 0 -192.5 -29t-75.5 -112l-6 -31
q-4 -16 -4 -43q0 -57 47.5 -77.5t165.5 -20.5z" />
    <glyph glyph-name="a" unicode="&#x430;" horiz-adv-x="1679" 
d="M1485 0h-1010q-233 0 -327.5 40t-94.5 153q0 38 13 98l8 43q22 114 75 171.5t157 80t302 22.5h727l11 54q6 35 6 57q0 65 -52.5 88.5t-181.5 23.5h-878l36 175h943q234 0 330 -43t96 -162q0 -42 -13 -105zM551 174h692l66 313h-693q-134 0 -192.5 -29t-75.5 -112l-6 -31
q-4 -16 -4 -43q0 -57 47.5 -77.5t165.5 -20.5z" />
    <glyph glyph-name="b" unicode="b" horiz-adv-x="1689" 
d="M1028 0h-999l286 1354h281l-74 -348h719q229 0 327.5 -44t98.5 -165q0 -45 -12 -101l-82 -387q-14 -65 -34.5 -112.5t-52.5 -82.5t-72 -56.5t-99 -34.5t-126 -18t-161 -5zM1300 352l62 293q6 30 6 55q0 63 -50.5 88t-164.5 25h-672l-133 -620h672q141 0 200.5 32
t79.5 127z" />
    <glyph glyph-name="c" unicode="c" horiz-adv-x="1488" 
d="M1313 0h-815q-234 0 -330 42t-96 159q0 36 14 108l82 387q19 93 55.5 152t102.5 95t156.5 49.5t228.5 13.5h815l-41 -193h-783q-130 0 -188.5 -35.5t-77.5 -126.5l-63 -299q-6 -30 -6 -55q0 -59 46 -81.5t158 -22.5h781z" />
    <glyph glyph-name="c" unicode="&#x441;" horiz-adv-x="1488" 
d="M1313 0h-815q-234 0 -330 42t-96 159q0 36 14 108l82 387q19 93 55.5 152t102.5 95t156.5 49.5t228.5 13.5h815l-41 -193h-783q-130 0 -188.5 -35.5t-77.5 -126.5l-63 -299q-6 -30 -6 -55q0 -59 46 -81.5t158 -22.5h781z" />
    <glyph glyph-name="d" unicode="d" horiz-adv-x="1689" 
d="M1497 0h-997q-237 0 -332.5 40.5t-95.5 160.5q0 36 14 108l82 387q16 77 44.5 130t70.5 88.5t105.5 55.5t140 28t184.5 8h719l73 348h279zM1257 193l134 620h-674q-135 0 -199 -36t-84 -132l-61 -293q-6 -30 -6 -55q0 -61 48 -82.5t169 -21.5h673z" />
    <glyph glyph-name="e" unicode="e" horiz-adv-x="1667" 
d="M1442 0h-944q-219 0 -317.5 55.5t-98.5 188.5q0 50 12 112l74 342q35 160 160 234t350 74h694q155 0 225 -45t70 -140q0 -30 -10 -82l-21 -94q-21 -97 -58 -147t-104.5 -71t-189.5 -21h-903l-8 -35q-8 -33 -8 -66q0 -72 55 -99.5t186 -27.5h873zM406 528h776
q90 0 127.5 23.5t54.5 91.5l12 51q4 24 4 37q0 48 -36 71t-117 23h-547q-106 0 -166.5 -36.5t-77.5 -114.5z" />
    <glyph glyph-name="e" unicode="&#x435;" horiz-adv-x="1667" 
d="M1442 0h-944q-219 0 -317.5 55.5t-98.5 188.5q0 50 12 112l74 342q35 160 160 234t350 74h694q155 0 225 -45t70 -140q0 -30 -10 -82l-21 -94q-21 -97 -58 -147t-104.5 -71t-189.5 -21h-903l-8 -35q-8 -33 -8 -66q0 -72 55 -99.5t186 -27.5h873zM406 528h776
q90 0 127.5 23.5t54.5 91.5l12 51q4 24 4 37q0 48 -36 71t-117 23h-547q-106 0 -166.5 -36.5t-77.5 -114.5z" />
    <glyph glyph-name="f" unicode="f" horiz-adv-x="978" 
d="M309 0h-280l219 1040q17 79 45.5 133.5t69.5 90t105.5 55.5t141 27.5t187.5 7.5h348l-33 -158h-293q-154 0 -211 -30.5t-80 -131.5l-14 -61h549l-33 -156h-549z" />
    <glyph glyph-name="g" unicode="g" horiz-adv-x="1687" 
d="M1036 -420h-442l41 193h348q97 0 147.5 35t69.5 129l19 90h-719q-235 0 -329.5 40.5t-94.5 157.5q0 53 14 113l76 358q16 77 43.5 130t67.5 89t103 55.5t140 27.5t189 8h997l-238 -1112q-21 -98 -55 -160t-89.5 -96t-121.5 -46t-166 -12zM1257 211l129 602h-686
q-137 0 -191 -31.5t-75 -130.5l-59 -278q-6 -30 -6 -56q0 -61 45.5 -83.5t156.5 -22.5h686z" />
    <glyph glyph-name="h" unicode="h" horiz-adv-x="1740" 
d="M1210 813h-534q-102 0 -153 -37.5t-74 -116.5l-140 -659h-280l286 1354h281l-98 -463q100 115 331 115h457q227 0 326.5 -45t99.5 -168q0 -53 -10 -97l-148 -696h-278l137 651q6 27 6 51q0 61 -49.5 86t-159.5 25z" />
    <glyph glyph-name="h" unicode="&#x4bb;" horiz-adv-x="1740" 
d="M1210 813h-534q-102 0 -153 -37.5t-74 -116.5l-140 -659h-280l286 1354h281l-98 -463q100 115 331 115h457q227 0 326.5 -45t99.5 -168q0 -53 -10 -97l-148 -696h-278l137 651q6 27 6 51q0 61 -49.5 86t-159.5 25z" />
    <glyph glyph-name="i" unicode="i" horiz-adv-x="503" 
d="M311 0h-282l213 1006h282zM553 1147h-272l51 250h272z" />
    <glyph glyph-name="i" unicode="&#x456;" horiz-adv-x="503" 
d="M311 0h-282l213 1006h282zM553 1147h-272l51 250h272z" />
    <glyph glyph-name="j" unicode="j" horiz-adv-x="526" 
d="M-209 -420h-166l41 193h88q147 0 205 33t80 131l227 1069h281l-238 -1112q-17 -77 -44 -131t-66.5 -90t-99.5 -56.5t-132 -28.5t-176 -8zM575 1147h-272l51 250h273z" />
    <glyph glyph-name="j" unicode="&#x458;" horiz-adv-x="526" 
d="M-209 -420h-166l41 193h88q147 0 205 33t80 131l227 1069h281l-238 -1112q-17 -77 -44 -131t-66.5 -90t-99.5 -56.5t-132 -28.5t-176 -8zM575 1147h-272l51 250h273z" />
    <glyph glyph-name="k" unicode="k" horiz-adv-x="1701" 
d="M1550 0h-278l59 281q6 30 6 53q0 57 -36 82.5t-119 25.5h-783l-92 -442h-278l286 1354h279l-174 -817l872 469h330l-745 -390h432q317 0 317 -223q0 -32 -10 -84z" />
    <glyph glyph-name="l" unicode="l" horiz-adv-x="501" 
d="M307 0h-278l286 1354h279z" />
    <glyph glyph-name="m" unicode="m" horiz-adv-x="2310" 
d="M1776 813h-199q-101 0 -153.5 -38.5t-73.5 -115.5l-140 -659h-268l137 651q6 27 6 51q0 62 -49 86.5t-159 24.5h-201q-102 0 -153 -37.5t-74 -116.5l-140 -659h-280l213 1006h280l-24 -115q100 115 331 115h140q161 0 251.5 -24t125.5 -85q121 109 319 109h215
q214 0 307.5 -44.5t93.5 -164.5q0 -45 -12 -101l-147 -696h-281l137 653q7 31 7 49q0 61 -49.5 86t-159.5 25z" />
    <glyph glyph-name="n" unicode="n" horiz-adv-x="1740" 
d="M1210 813h-534q-102 0 -153 -37.5t-74 -116.5l-140 -659h-280l213 1006h280l-24 -115q100 115 331 115h457q227 0 326.5 -45t99.5 -168q0 -53 -10 -97l-148 -696h-278l137 651q6 27 6 51q0 61 -49.5 86t-159.5 25z" />
    <glyph glyph-name="o" unicode="o" horiz-adv-x="1751" 
d="M586 193h493q138 0 195 30.5t78 128.5l63 299q6 27 6 51q0 61 -49.5 86t-159.5 25h-493q-131 0 -192 -35t-81 -127l-63 -299q-8 -46 -8 -59q0 -60 46.5 -80t164.5 -20zM1075 0h-563q-236 0 -333 41t-97 162q0 45 12 106l82 387q16 77 44.5 130t69.5 88.5t105.5 55.5
t141.5 28t188 8h563q234 0 332 -43.5t98 -163.5q0 -45 -12 -103l-82 -387q-17 -79 -45.5 -132.5t-69.5 -88.5t-105.5 -54t-140.5 -26.5t-188 -7.5z" />
    <glyph glyph-name="o" unicode="&#x43e;" horiz-adv-x="1751" 
d="M586 193h493q138 0 195 30.5t78 128.5l63 299q6 27 6 51q0 61 -49.5 86t-159.5 25h-493q-131 0 -192 -35t-81 -127l-63 -299q-8 -46 -8 -59q0 -60 46.5 -80t164.5 -20zM1075 0h-563q-236 0 -333 41t-97 162q0 45 12 106l82 387q16 77 44.5 130t69.5 88.5t105.5 55.5
t141.5 28t188 8h563q234 0 332 -43.5t98 -163.5q0 -45 -12 -103l-82 -387q-17 -79 -45.5 -132.5t-69.5 -88.5t-105.5 -54t-140.5 -26.5t-188 -7.5z" />
    <glyph glyph-name="o" unicode="&#x3bf;" horiz-adv-x="1751" 
d="M586 193h493q138 0 195 30.5t78 128.5l63 299q6 27 6 51q0 61 -49.5 86t-159.5 25h-493q-131 0 -192 -35t-81 -127l-63 -299q-8 -46 -8 -59q0 -60 46.5 -80t164.5 -20zM1075 0h-563q-236 0 -333 41t-97 162q0 45 12 106l82 387q16 77 44.5 130t69.5 88.5t105.5 55.5
t141.5 28t188 8h563q234 0 332 -43.5t98 -163.5q0 -45 -12 -103l-82 -387q-17 -79 -45.5 -132.5t-69.5 -88.5t-105.5 -54t-140.5 -26.5t-188 -7.5z" />
    <glyph glyph-name="p" unicode="p" horiz-adv-x="1689" 
d="M1028 0h-719l-90 -420h-280l303 1426h999q233 0 329.5 -42.5t96.5 -162.5q0 -47 -12 -105l-82 -385q-17 -77 -45 -130t-68.5 -89t-104 -56t-140.5 -28t-187 -8zM1300 354l64 297q6 27 6 54q0 61 -47.5 84.5t-157.5 23.5h-684l-133 -620h676q138 0 197 33.5t79 127.5z" />
    <glyph glyph-name="p" unicode="&#x440;" horiz-adv-x="1689" 
d="M1028 0h-719l-90 -420h-280l303 1426h999q233 0 329.5 -42.5t96.5 -162.5q0 -47 -12 -105l-82 -385q-17 -77 -45 -130t-68.5 -89t-104 -56t-140.5 -28t-187 -8zM1300 354l64 297q6 27 6 54q0 61 -47.5 84.5t-157.5 23.5h-684l-133 -620h676q138 0 197 33.5t79 127.5z" />
    <glyph glyph-name="q" unicode="q" horiz-adv-x="1689" 
d="M1407 -420h-281l91 420h-717q-234 0 -331 42t-97 161q0 36 14 108l82 385q16 77 43 129.5t67 88.5t103 55.5t141 28t191 8.5h997zM1255 193l134 620h-684q-133 0 -191 -34t-78 -128l-63 -297q-6 -30 -6 -57q0 -60 44.5 -82t153.5 -22h690z" />
    <glyph glyph-name="r" unicode="r" horiz-adv-x="1269" 
d="M307 0h-278l213 1006h278l-24 -115q20 22 39.5 37t58 35.5t98.5 31.5t137 11h514l-40 -193h-639q-93 0 -144 -38.5t-74 -115.5z" />
    <glyph glyph-name="s" unicode="s" horiz-adv-x="1687" 
d="M608 563h643q191 0 269.5 -39t78.5 -133q0 -28 -10 -80l-10 -49q-32 -153 -126 -207.5t-320 -54.5h-1129l37 178h1038q120 0 169.5 23.5t64.5 93.5l6 29q4 28 4 36q0 48 -42 65t-146 17h-654q-183 0 -263.5 38t-80.5 134q0 38 8 74l15 68q31 146 130.5 198t319.5 52h1030
l-38 -181h-938q-122 0 -169.5 -22.5t-64.5 -93.5l-6 -27q-4 -14 -4 -37q0 -48 41.5 -65t146.5 -17z" />
    <glyph glyph-name="s" unicode="&#x455;" horiz-adv-x="1687" 
d="M608 563h643q191 0 269.5 -39t78.5 -133q0 -28 -10 -80l-10 -49q-32 -153 -126 -207.5t-320 -54.5h-1129l37 178h1038q120 0 169.5 23.5t64.5 93.5l6 29q4 28 4 36q0 48 -42 65t-146 17h-654q-183 0 -263.5 38t-80.5 134q0 38 8 74l15 68q31 146 130.5 198t319.5 52h1030
l-38 -181h-938q-122 0 -169.5 -22.5t-64.5 -93.5l-6 -27q-4 -14 -4 -37q0 -48 41.5 -65t146.5 -17z" />
    <glyph glyph-name="t" unicode="t" horiz-adv-x="989" 
d="M856 0h-348q-234 0 -330 43t-96 162q0 45 12 104l209 989h281l-62 -292h436l-38 -183h-437l-100 -471q-8 -31 -8 -59q0 -58 47.5 -79t163.5 -21h309z" />
    <glyph glyph-name="u" unicode="u" horiz-adv-x="1714" 
d="M578 193h503q104 0 155.5 36.5t74.5 116.5l141 660h279l-213 -1006h-279l23 115q-100 -115 -332 -115h-426q-227 0 -327.5 46t-100.5 167q0 43 12 96l148 697h278l-139 -652q-6 -27 -6 -51q0 -62 48.5 -86t160.5 -24z" />
    <glyph glyph-name="u" unicode="&#x3c5;" horiz-adv-x="1714" 
d="M578 193h503q104 0 155.5 36.5t74.5 116.5l141 660h279l-213 -1006h-279l23 115q-100 -115 -332 -115h-426q-227 0 -327.5 46t-100.5 167q0 43 12 96l148 697h278l-139 -652q-6 -27 -6 -51q0 -62 48.5 -86t160.5 -24z" />
    <glyph glyph-name="v" unicode="v" horiz-adv-x="1716" 
d="M948 0h-344l-438 1006h332l325 -820l684 820h308z" />
    <glyph glyph-name="v" unicode="&#x3bd;" horiz-adv-x="1716" 
d="M948 0h-344l-438 1006h332l325 -820l684 820h308z" />
    <glyph glyph-name="w" unicode="w" horiz-adv-x="2471" 
d="M1882 0h-354l-215 762l-533 -762h-354l-258 1006h301l190 -820l570 820h297l217 -820l543 820h280z" />
    <glyph glyph-name="x" unicode="x" horiz-adv-x="1628" 
d="M1700 1006l-676 -490l485 -516h-346l-348 362l-500 -362h-362l709 506l-465 500h346l331 -351l490 351h336z" />
    <glyph glyph-name="x" unicode="&#x445;" horiz-adv-x="1628" 
d="M1700 1006l-676 -490l485 -516h-346l-348 362l-500 -362h-362l709 506l-465 500h346l331 -351l490 351h336z" />
    <glyph glyph-name="x" unicode="&#x3c7;" horiz-adv-x="1628" 
d="M1700 1006l-676 -490l485 -516h-346l-348 362l-500 -362h-362l709 506l-465 500h346l331 -351l490 351h336z" />
    <glyph glyph-name="y" unicode="y" horiz-adv-x="1667" 
d="M1016 -420h-422l41 193h328q98 0 147.5 34.5t69.5 129.5l18 90h-698q-235 0 -329.5 40.5t-94.5 157.5q0 53 14 113l141 668h279l-135 -633q-6 -30 -6 -56q0 -61 45.5 -83.5t156.5 -22.5h666l170 795h281l-238 -1112q-21 -98 -55 -160t-90 -96t-122 -46t-167 -12z" />
    <glyph glyph-name="y" unicode="&#x443;" horiz-adv-x="1667" 
d="M1016 -420h-422l41 193h328q98 0 147.5 34.5t69.5 129.5l18 90h-698q-235 0 -329.5 40.5t-94.5 157.5q0 53 14 113l141 668h279l-135 -633q-6 -30 -6 -56q0 -61 45.5 -83.5t156.5 -22.5h666l170 795h281l-238 -1112q-21 -98 -55 -160t-90 -96t-122 -46t-167 -12z" />
    <glyph glyph-name="z" unicode="z" horiz-adv-x="1523" 
d="M1346 0h-1332l41 197l1061 612h-930l43 197h1315l-39 -181l-1030 -628h911z" />
    <glyph glyph-name="braceleft" unicode="{" horiz-adv-x="772" 
d="M539 -420h-166q-221 0 -221 195q0 38 14 110l104 498q9 56 9 68q0 63 -34.5 96t-97.5 33h-41l27 131h41q77 0 130.5 50.5t72.5 139.5l106 500q33 156 117 230.5t221 74.5h164l-27 -121h-94q-95 0 -143 -45.5t-70 -148.5l-106 -498q-44 -198 -223 -248q131 -37 131 -172
q0 -25 -11 -82l-104 -495q-12 -64 -10 -84q0 -59 33 -85t108 -26h94z" />
    <glyph glyph-name="bar" unicode="|" horiz-adv-x="563" 
d="M195 -420h-170l452 2126h170z" />
    <glyph glyph-name="braceright" unicode="}" horiz-adv-x="753" 
d="M342 1706h164q219 0 219 -195q0 -49 -12 -110l-107 -498q-8 -50 -8 -65q0 -65 35 -99t100 -34h41l-29 -132h-40q-77 0 -130.5 -50.5t-72.5 -139.5l-105 -498q-33 -156 -117 -230.5t-221 -74.5h-163l22 121h94q96 0 145.5 45.5t71.5 149.5l105 495q42 202 223 248
q-62 20 -97.5 59.5t-35.5 116.5q4 51 10 80l107 494q10 52 10 79q0 61 -33.5 89t-107.5 28h-95z" />
    <glyph glyph-name="asciitilde" unicode="~" horiz-adv-x="1171" 
d="M874 483h-79q-47 0 -88 19t-71 46.5t-58.5 54.5t-63.5 46t-74 19h-59q-115 0 -139 -125l-13 -60h-118l12 64q23 120 95.5 186t184.5 66h80q47 0 87.5 -19t70.5 -46.5t58.5 -54.5t64 -46t74.5 -19h59q115 0 139 125l13 60h118l-12 -64q-23 -120 -97 -186t-184 -66z" />
    <glyph glyph-name="nbspace" unicode="&#xa0;" horiz-adv-x="628" 
 />
    <glyph glyph-name="exclamdown" unicode="&#xa1;" horiz-adv-x="495" 
d="M248 1049h280l-57 -269h-281zM178 614h232l-158 -919h-303z" />
    <glyph glyph-name="cent" unicode="&#xa2;" horiz-adv-x="1042" 
d="M948 287h-336l-59 -287h-86l59 287h-88q-189 0 -265.5 37t-76.5 139q0 37 13 104l51 238q35 164 129.5 221t318.5 57h88l58 271h86l-58 -271h336l-37 -170h-522q-111 0 -157.5 -31.5t-65.5 -117.5l-35 -160q-6 -30 -6 -53q0 -53 38 -73.5t130 -20.5h522z" />
    <glyph glyph-name="sterling" unicode="&#xa3;" horiz-adv-x="1447" 
d="M1315 0h-1338l39 193h131l91 421h-107l27 121h106l62 295q17 80 45.5 136t69.5 93t105.5 57.5t142 29t188.5 8.5h665l-41 -193h-592q-152 0 -222 -40t-93 -148l-49 -238h553l-27 -121h-553l-90 -421h926z" />
    <glyph glyph-name="currency" unicode="&#xa4;" horiz-adv-x="1171" 
d="M983 68l-170 217h-502l-262 -217l-78 100l230 188l131 611l-152 188l121 100l170 -217h502l262 217l78 -100l-230 -188l-131 -611l152 -188zM485 885l-94 -447h406l94 447h-406z" />
    <glyph glyph-name="yen" unicode="&#xa5;" horiz-adv-x="1478" 
d="M1343 236h-497l-49 -236h-279l49 236h-493l24 114h494l43 205h-494l25 113h459l-377 686h297l293 -557l522 557h280l-673 -686h469l-25 -113h-498l-43 -205h498z" />
    <glyph glyph-name="brokenbar" unicode="&#xa6;" horiz-adv-x="563" 
d="M195 -420h-170l172 813h170zM479 924h-170l168 782h170z" />
    <glyph glyph-name="section" unicode="&#xa7;" horiz-adv-x="1755" 
d="M1079 100h-600q-183 0 -258.5 43.5t-75.5 139.5q0 27 11 88l47 217q22 107 102 164q-39 42 -39 112q0 37 8 70l33 149q33 154 136 212.5t315 58.5h575l-39 -180h-495q-109 0 -162 -30t-70 -108l-14 -69q-4 -24 -4 -37q0 -53 42 -76t130 -23h598q182 0 258 -43t76 -139
q0 -27 -11 -88l-47 -217q-26 -117 -98 -168q33 -39 33 -104q0 -38 -8 -74l-31 -150q-31 -153 -135.5 -211.5t-315.5 -58.5h-575l37 180h495q109 0 163 30.5t71 107.5l14 69q4 28 4 37q0 53 -41 75.5t-129 22.5zM1204 674h-524q-39 0 -65.5 -2t-55.5 -8.5t-47.5 -19.5
t-33 -35t-21.5 -54l-33 -158q-6 -24 -6 -45q0 -50 40 -72t134 -22h559q82 2 129 26.5t61 92.5l33 158q4 16 4 43q0 51 -39.5 73.5t-134.5 22.5z" />
    <glyph glyph-name="dieresis" unicode="&#xa8;" horiz-adv-x="962" 
d="M1092 1147h-273l51 250h273zM469 1147h-272l51 250h272z" />
    <glyph glyph-name="copyright" unicode="&#xa9;" horiz-adv-x="1484" 
d="M819 0h-321q-234 0 -329 42.5t-95 164.5q0 54 14 117l150 706q17 82 45.5 137.5t68.5 93t104 57.5t140 28t188 8h322q235 0 330.5 -42t95.5 -165q0 -38 -14 -117l-150 -706q-17 -82 -45.5 -137.5t-68.5 -93t-104 -57.5t-141 -28t-190 -8zM1247 324l150 706q8 33 8 66
q0 82 -72.5 109.5t-253.5 27.5h-321q-207 0 -292 -39.5t-110 -163.5l-149 -706q-8 -33 -8 -68q0 -82 71.5 -109.5t251.5 -27.5h322q86 0 143 5t104.5 17.5t76.5 36t48.5 59t30.5 87.5zM1034 383h-411q-101 0 -142 18.5t-41 71.5q0 20 6 47l66 303q18 82 66.5 108.5
t166.5 26.5h412l-20 -94h-381q-59 0 -85.5 -14t-33.5 -53l-53 -252q-2 -8 -2 -21q0 -27 21.5 -38t70.5 -11h381z" />
    <glyph glyph-name="ordfeminine" unicode="&#xaa;" horiz-adv-x="997" 
d="M975 768h-555q-129 0 -181.5 24t-52.5 91q0 19 7 59l6 27q15 69 41.5 102t85.5 47.5t176 14.5h381l4 22q4 20 4 27q0 33 -26.5 45t-88.5 12h-489l24 115h520q130 0 184 -24.5t54 -94.5q0 -35 -8 -68zM829 883l35 161h-372q-68 0 -91.5 -13.5t-31.5 -55.5l-4 -19
q-5 -25 -5 -26q0 -27 22 -37t75 -10h372zM928 545h-813l28 139h813z" />
    <glyph glyph-name="guillemotleft" unicode="&#xab;" horiz-adv-x="968" 
d="M233 0l-172 504l385 502h207l-385 -502l172 -504h-207zM641 0l-172 504l385 502h207l-385 -502l172 -504h-207z" />
    <glyph glyph-name="logicalnot" unicode="&#xac;" horiz-adv-x="1001" 
d="M827 0h-131l129 616h-688l31 140h819z" />
    <glyph glyph-name="registered" unicode="&#xae;" horiz-adv-x="1484" 
d="M819 0h-321q-234 0 -329 42.5t-95 164.5q0 54 14 117l150 706q17 82 45.5 137.5t68.5 93t104 57.5t140 28t188 8h322q235 0 330.5 -42t95.5 -165q0 -38 -14 -117l-150 -706q-17 -82 -45.5 -137.5t-68.5 -93t-104 -57.5t-141 -28t-190 -8zM1247 324l150 706q8 33 8 66
q0 82 -72.5 109.5t-253.5 27.5h-321q-207 0 -292 -39.5t-110 -163.5l-149 -706q-8 -33 -8 -68q0 -82 71.5 -109.5t251.5 -27.5h322q86 0 143 5t104.5 17.5t76.5 36t48.5 59t30.5 87.5zM1061 383h-129l29 133q4 24 4 33q0 27 -16.5 38t-55.5 11h-293l-47 -215h-129l123 575
h448q91 0 127.5 -19t36.5 -65q0 -21 -6 -51l-14 -71q-8 -44 -35.5 -72.5t-61.5 -36.5q54 -15 54 -78q0 -9 -4 -37zM1010 760l10 41q2 8 2 22q0 23 -16.5 32t-59.5 9h-291l-39 -180h299q45 0 65 17.5t30 58.5z" />
    <glyph glyph-name="macron" unicode="&#xaf;" horiz-adv-x="849" 
d="M995 1251h-778l29 129h778z" />
    <glyph glyph-name="degree" unicode="&#xb0;" horiz-adv-x="884" 
d="M655 723h-278q-110 0 -155.5 19.5t-45.5 80.5q0 21 6 51l70 330q20 91 73.5 120.5t184.5 29.5h278q108 0 153.5 -21t45.5 -78q0 -21 -6 -51l-70 -330q-20 -91 -73 -121t-183 -30zM770 911l55 256q2 8 2 21q0 24 -19.5 32.5t-68.5 8.5h-235q-60 0 -81.5 -12.5t-29.5 -49.5
l-55 -256q-4 -20 -4 -24q0 -25 19 -33t69 -8h235q58 0 81 12.5t32 52.5z" />
    <glyph glyph-name="plusminus" unicode="&#xb1;" horiz-adv-x="1171" 
d="M633 291h-139l92 426h-426l28 139h426l91 426h139l-90 -426h426l-29 -139h-426zM999 -2h-991l29 139h991z" />
    <glyph glyph-name="twosuperior" unicode="&#xb2;" horiz-adv-x="886" 
d="M887 678h-764l45 219q17 83 81.5 127.5t170.5 44.5h289q59 0 87.5 17.5t37.5 58.5l4 20q4 20 4 31q0 30 -23 40.5t-76 10.5h-221q-76 0 -106 -15t-39 -61l-6 -28h-150l10 51q20 98 78.5 129t198.5 31h280q117 0 165 -21.5t48 -85.5q0 -13 -8 -63l-14 -66
q-18 -80 -76 -116.5t-188 -36.5h-281q-102 0 -121 -91l-18 -90h614z" />
    <glyph glyph-name="threesuperior" unicode="&#xb3;" horiz-adv-x="876" 
d="M922 907l-15 -67q-21 -99 -77.5 -130.5t-194.5 -31.5h-283q-119 0 -167 20.5t-48 81.5q0 14 8 60l17 73h149l-10 -43q-4 -24 -4 -32q0 -32 25 -43t90 -11h229q61 0 89.5 17t35.5 61l6 35q2 8 2 23q0 49 -61 49h-258l20 98h256q75 0 90 72l6 28q4 24 4 31q0 27 -22 38
t-74 11h-223q-78 0 -106.5 -16.5t-40.5 -69.5l-11 -43h-149l16 74q23 99 79 130.5t196 31.5h282q114 0 161.5 -21.5t47.5 -81.5q0 -13 -8 -59l-14 -66q-18 -87 -99 -106q60 -15 60 -76q0 -9 -4 -37z" />
    <glyph glyph-name="acute" unicode="&#xb4;" horiz-adv-x="661" 
d="M879 1579l-490 -473h-203l445 473h248z" />
    <glyph glyph-name="paragraph" unicode="&#xb6;" horiz-adv-x="1232" 
d="M948 -420h-170l336 1581h-399l-336 -1581h-170l254 1198h-49q-132 0 -187 26t-55 101q0 26 10 78l35 168q26 123 92.5 163t227.5 40h788z" />
    <glyph glyph-name="periodcentered" unicode="&#xb7;" horiz-adv-x="473" 
d="M410 545h-281l55 268h281z" />
    <glyph glyph-name="cedilla" unicode="&#xb8;" horiz-adv-x="354" 
d="M-31 -612h-86l17 77h37q56 0 67 58l19 86h-154l55 268h287l-78 -362q-13 -61 -57.5 -94t-106.5 -33z" />
    <glyph glyph-name="onesuperior" unicode="&#xb9;" horiz-adv-x="323" 
d="M319 678h-149l121 569h-76l23 107h225z" />
    <glyph glyph-name="ordmasculine" unicode="&#xba;" horiz-adv-x="1034" 
d="M745 768h-305q-131 0 -184 24t-53 95q0 32 8 65l47 215q24 114 88.5 150.5t218.5 36.5h305q128 0 184 -25.5t56 -97.5q0 -14 -8 -64l-47 -215q-25 -112 -90.5 -148t-219.5 -36zM889 975l35 168q4 20 4 28q0 33 -24 45.5t-77 12.5h-270q-66 0 -95.5 -17.5t-39.5 -68.5
l-35 -168q-4 -20 -4 -29q0 -31 23.5 -42t78.5 -11h273q62 0 91.5 17t39.5 65zM965 545h-836l29 139h835z" />
    <glyph glyph-name="guillemotright" unicode="&#xbb;" horiz-adv-x="968" 
d="M375 1006l172 -502l-385 -504h-207l385 504l-172 502h207zM782 1006l172 -502l-385 -504h-207l386 504l-173 502h207z" />
    <glyph glyph-name="onequarter" unicode="&#xbc;" horiz-adv-x="1525" 
d="M467 678h-150l121 569h-76l23 107h225zM203 0h-146l1215 1354h141zM1370 129h-92l-27 -129h-149l26 129h-524l21 98l594 449h176l-95 -443h93zM1151 233l63 297l-405 -297h342z" />
    <glyph glyph-name="onehalf" unicode="&#xbd;" horiz-adv-x="1638" 
d="M467 678h-150l121 569h-76l23 107h225zM203 0h-146l1215 1354h141zM1456 0h-764l45 219q17 83 81.5 127.5t170.5 44.5h289q59 0 87.5 17.5t37.5 58.5l4 20q4 20 4 31q0 30 -22.5 40.5t-75.5 10.5h-221q-76 0 -106.5 -14.5t-39.5 -60.5l-6 -29h-149l10 51q20 98 78 129
t198 31h281q117 0 165 -21.5t48 -85.5q0 -13 -8 -63l-15 -66q-18 -80 -76 -116.5t-188 -36.5h-280q-102 0 -121 -90l-19 -91h615z" />
    <glyph glyph-name="threequarters" unicode="&#xbe;" horiz-adv-x="1814" 
d="M971 907l-15 -67q-21 -99 -77.5 -130.5t-194.5 -31.5h-283q-119 0 -167 20.5t-48 81.5q0 8 9 60l16 73h149l-10 -43q-4 -24 -4 -32q0 -32 25 -43t90 -11h229q61 0 89.5 17t35.5 61l6 35q2 8 2 23q0 49 -61 49h-258l20 98h256q75 0 90 72l7 28q4 24 4 31q0 27 -22.5 38
t-74.5 11h-223q-78 0 -106.5 -16.5t-40.5 -69.5l-11 -43h-149l16 74q23 99 79 130.5t196 31.5h282q114 0 161.5 -21.5t47.5 -81.5q0 -13 -8 -59l-14 -66q-18 -87 -99 -106q60 -15 60 -76q0 -9 -4 -37zM489 0h-145l1215 1354h141zM1659 129h-92l-27 -129h-149l26 129h-524
l20 98l594 449h176l-94 -443h92zM1440 233l63 297l-405 -297h342z" />
    <glyph glyph-name="questiondown" unicode="&#xbf;" horiz-adv-x="1615" 
d="M731 295h-219q-95 0 -150 -38t-73 -122l-17 -74q-8 -33 -8 -63q0 -64 49 -88.5t166 -24.5h439q159 0 224.5 38t88.5 155l16 84h264l-30 -148q-17 -81 -43.5 -135t-66 -91t-102.5 -57t-140 -28t-191 -8h-545q-236 0 -330 42t-94 163q0 46 15 114l36 172q32 150 146 220.5
t315 70.5h226q50 0 76.5 24t37.5 72l15 66h227l-21 -96q-28 -127 -97.5 -187.5t-213.5 -60.5zM895 1049h283l-58 -269h-282z" />
    <glyph glyph-name="Agrave" unicode="&#xc0;" horiz-adv-x="1695" 
d="M1282 0l-61 270h-787l-174 -270h-307l924 1354h352l350 -1354h-297zM1016 1167l-461 -710h623zM1296 1454h-202l-279 391h246z" />
    <glyph glyph-name="Aacute" unicode="&#xc1;" horiz-adv-x="1695" 
d="M1282 0l-61 270h-787l-174 -270h-307l924 1354h352l350 -1354h-297zM1016 1167l-461 -710h623zM1501 1845l-442 -391h-203l399 391h246z" />
    <glyph glyph-name="Acircumflex" unicode="&#xc2;" horiz-adv-x="1695" 
d="M1282 0l-61 270h-787l-174 -270h-307l924 1354h352l350 -1354h-297zM1016 1167l-461 -710h623zM1522 1454h-179l-208 287l-328 -287h-180l407 391h246z" />
    <glyph glyph-name="Atilde" unicode="&#xc3;" horiz-adv-x="1695" 
d="M1282 0l-61 270h-787l-174 -270h-307l924 1354h352l350 -1354h-297zM1016 1167l-461 -710h623zM1303 1499q-58 0 -104 21.5t-77 51.5t-60.5 60.5t-67.5 52t-83 21.5q-52 0 -80.5 -31t-48.5 -116l-12 -54h-108l12 58q58 270 258 270q60 0 108 -21.5t79 -52t59.5 -61.5
t66.5 -52.5t84 -21.5q49 0 81 33.5t48 116.5l10 53h109l-12 -60q-29 -139 -94.5 -203.5t-167.5 -64.5z" />
    <glyph glyph-name="Adieresis" unicode="&#xc4;" horiz-adv-x="1695" 
d="M1282 0l-61 270h-787l-174 -270h-307l924 1354h352l350 -1354h-297zM1016 1167l-461 -710h623zM1528 1475h-271l54 249h270zM905 1475h-270l53 249h270z" />
    <glyph glyph-name="Aring" unicode="&#xc5;" horiz-adv-x="1695" 
d="M1282 0l-61 270h-787l-174 -270h-307l924 1354h352l350 -1354h-297zM1016 1167l-461 -710h623zM1104 1382h-88q-124 0 -174.5 22.5t-50.5 90.5q0 15 8 61l26 121q23 103 81.5 135.5t207.5 32.5h88q126 0 175.5 -22t49.5 -86q0 -25 -6 -60l-26 -121q-24 -105 -84.5 -139.5
t-206.5 -34.5zM1280 1571l18 90q5 30 5 33q0 31 -26.5 42t-94.5 11h-88q-82 0 -114 -16.5t-42 -69.5l-18 -90q-5 -30 -5 -33q0 -35 27 -46t96 -11h88q79 0 110.5 17.5t43.5 72.5z" />
    <glyph glyph-name="AE" unicode="&#xc6;" horiz-adv-x="2232" 
d="M934 0l20 270h-516l-178 -270h-307l924 1354h1478l-41 -193h-1030l-33 -391h615l-37 -182h-586l-35 -395h899l-39 -193h-1134zM1024 1161l-465 -704h410z" />
    <glyph glyph-name="Ccedilla" unicode="&#xc7;" horiz-adv-x="1634" 
d="M1462 0h-962q-234 0 -330 43t-96 166q0 55 14 115l150 706q17 80 44.5 135t68.5 92.5t104 58.5t141 29.5t190 8.5h963l-41 -193h-889q-153 0 -221.5 -39.5t-91.5 -148.5l-125 -594q-8 -46 -8 -62q0 -71 54.5 -97.5t184.5 -26.5h889zM666 -612h-86l16 77h37q56 0 67 58
l19 86h-154l56 268h286l-78 -362q-13 -61 -57 -94t-106 -33z" />
    <glyph glyph-name="Egrave" unicode="&#xc8;" horiz-adv-x="1638" 
d="M1477 0h-1448l286 1354h1448l-41 -193h-1167l-84 -391h711l-37 -182h-711l-86 -395h1168zM1292 1454h-202l-279 391h246z" />
    <glyph glyph-name="Egrave" unicode="&#x400;" horiz-adv-x="1638" 
d="M1477 0h-1448l286 1354h1448l-41 -193h-1167l-84 -391h711l-37 -182h-711l-86 -395h1168zM1292 1454h-202l-279 391h246z" />
    <glyph glyph-name="Eacute" unicode="&#xc9;" horiz-adv-x="1638" 
d="M1477 0h-1448l286 1354h1448l-41 -193h-1167l-84 -391h711l-37 -182h-711l-86 -395h1168zM1495 1845l-442 -391h-203l399 391h246z" />
    <glyph glyph-name="Ecircumflex" unicode="&#xca;" horiz-adv-x="1638" 
d="M1477 0h-1448l286 1354h1448l-41 -193h-1167l-84 -391h711l-37 -182h-711l-86 -395h1168zM1518 1454h-179l-209 287l-327 -287h-180l407 391h246z" />
    <glyph glyph-name="Edieresis" unicode="&#xcb;" horiz-adv-x="1638" 
d="M1477 0h-1448l286 1354h1448l-41 -193h-1167l-84 -391h711l-37 -182h-711l-86 -395h1168zM1522 1475h-271l54 249h270zM899 1475h-270l53 249h270z" />
    <glyph glyph-name="Edieresis" unicode="&#x401;" horiz-adv-x="1638" 
d="M1477 0h-1448l286 1354h1448l-41 -193h-1167l-84 -391h711l-37 -182h-711l-86 -395h1168zM1522 1475h-271l54 249h270zM899 1475h-270l53 249h270z" />
    <glyph glyph-name="Igrave" unicode="&#xcc;" horiz-adv-x="501" 
d="M307 0h-278l286 1354h279zM666 1454h-203l-279 391h246z" />
    <glyph glyph-name="Iacute" unicode="&#xcd;" horiz-adv-x="501" 
d="M307 0h-278l286 1354h279zM930 1845l-443 -391h-202l399 391h246z" />
    <glyph glyph-name="Icircumflex" unicode="&#xce;" horiz-adv-x="628" 
d="M371 0h-279l287 1354h278zM989 1454h-178l-209 287l-328 -287h-180l408 391h246z" />
    <glyph glyph-name="Idieresis" unicode="&#xcf;" horiz-adv-x="677" 
d="M395 0h-278l286 1354h279zM457 1475h-271l54 249h270zM952 1475h-270l53 249h271z" />
    <glyph glyph-name="Idieresis" unicode="&#x407;" horiz-adv-x="677" 
d="M395 0h-278l286 1354h279zM457 1475h-271l54 249h270zM952 1475h-270l53 249h271z" />
    <glyph glyph-name="Idieresis" unicode="&#x3aa;" horiz-adv-x="677" 
d="M395 0h-278l286 1354h279zM457 1475h-271l54 249h270zM952 1475h-270l53 249h271z" />
    <glyph glyph-name="Eth" unicode="&#xd0;" horiz-adv-x="1757" 
d="M1081 0h-1015l124 588h-112l37 182h112l125 584h1016q233 0 328.5 -43t95.5 -166q0 -40 -14 -115l-150 -706q-17 -81 -45 -136t-68 -92.5t-103 -58t-140.5 -29t-190.5 -8.5zM1364 379l125 594q8 50 8 65q0 70 -55 96.5t-187 26.5h-665l-84 -391h534l-36 -182h-535
l-86 -395h666q155 0 223.5 39t91.5 147z" />
    <glyph glyph-name="Eth" unicode="&#x110;" horiz-adv-x="1757" 
d="M1081 0h-1015l124 588h-112l37 182h112l125 584h1016q233 0 328.5 -43t95.5 -166q0 -40 -14 -115l-150 -706q-17 -81 -45 -136t-68 -92.5t-103 -58t-140.5 -29t-190.5 -8.5zM1364 379l125 594q8 50 8 65q0 70 -55 96.5t-187 26.5h-665l-84 -391h534l-36 -182h-535
l-86 -395h666q155 0 223.5 39t91.5 147z" />
    <glyph glyph-name="Ntilde" unicode="&#xd1;" horiz-adv-x="1703" 
d="M1509 0h-276l-729 987l-209 -987h-266l286 1354h295l703 -1010l215 1010h268zM1305 1499q-58 0 -104 21.5t-77 51.5t-60.5 60.5t-67.5 52t-83 21.5q-52 0 -80.5 -31t-48.5 -116l-12 -54h-108l12 58q58 270 258 270q60 0 108 -21.5t79 -52t59.5 -61.5t66.5 -52.5t84 -21.5
q49 0 81 33.5t48 116.5l10 53h109l-12 -60q-29 -139 -94.5 -203.5t-167.5 -64.5z" />
    <glyph glyph-name="Ograve" unicode="&#xd2;" horiz-adv-x="1794" 
d="M1130 0h-632q-234 0 -329 42.5t-95 164.5q0 54 14 117l150 706q17 82 45.5 137.5t68.5 93t104 57.5t140 28t188 8h633q235 0 330.5 -42t95.5 -165q0 -38 -14 -117l-150 -706q-17 -82 -45.5 -137.5t-68.5 -93t-104 -57.5t-141 -28t-190 -8zM1415 379l125 594q8 36 8 67
q0 70 -54.5 95.5t-188.5 25.5h-486q-158 0 -224.5 -37t-90.5 -151l-125 -594q-8 -36 -8 -70q0 -68 53 -92t188 -24h486q160 0 226.5 37t90.5 149zM1343 1454h-202l-279 391h246z" />
    <glyph glyph-name="Oacute" unicode="&#xd3;" horiz-adv-x="1794" 
d="M1130 0h-632q-234 0 -329 42.5t-95 164.5q0 54 14 117l150 706q17 82 45.5 137.5t68.5 93t104 57.5t140 28t188 8h633q235 0 330.5 -42t95.5 -165q0 -38 -14 -117l-150 -706q-17 -82 -45.5 -137.5t-68.5 -93t-104 -57.5t-141 -28t-190 -8zM1415 379l125 594q8 36 8 67
q0 70 -54.5 95.5t-188.5 25.5h-486q-158 0 -224.5 -37t-90.5 -151l-125 -594q-8 -36 -8 -70q0 -68 53 -92t188 -24h486q160 0 226.5 37t90.5 149zM1548 1845l-442 -391h-203l400 391h245z" />
    <glyph glyph-name="Ocircumflex" unicode="&#xd4;" horiz-adv-x="1794" 
d="M1130 0h-632q-234 0 -329 42.5t-95 164.5q0 54 14 117l150 706q17 82 45.5 137.5t68.5 93t104 57.5t140 28t188 8h633q235 0 330.5 -42t95.5 -165q0 -38 -14 -117l-150 -706q-17 -82 -45.5 -137.5t-68.5 -93t-104 -57.5t-141 -28t-190 -8zM1415 379l125 594q8 36 8 67
q0 70 -54.5 95.5t-188.5 25.5h-486q-158 0 -224.5 -37t-90.5 -151l-125 -594q-8 -36 -8 -70q0 -68 53 -92t188 -24h486q160 0 226.5 37t90.5 149zM1571 1454h-178l-209 287l-328 -287h-180l407 391h246z" />
    <glyph glyph-name="Otilde" unicode="&#xd5;" horiz-adv-x="1794" 
d="M1130 0h-632q-234 0 -329 42.5t-95 164.5q0 54 14 117l150 706q17 82 45.5 137.5t68.5 93t104 57.5t140 28t188 8h633q235 0 330.5 -42t95.5 -165q0 -38 -14 -117l-150 -706q-17 -82 -45.5 -137.5t-68.5 -93t-104 -57.5t-141 -28t-190 -8zM1415 379l125 594q8 36 8 67
q0 70 -54.5 95.5t-188.5 25.5h-486q-158 0 -224.5 -37t-90.5 -151l-125 -594q-8 -36 -8 -70q0 -68 53 -92t188 -24h486q160 0 226.5 37t90.5 149zM1352 1499q-58 0 -104 21.5t-77 51.5t-60 60.5t-67 52t-83 21.5q-52 0 -81 -31t-49 -116l-12 -54h-108l12 58q58 270 258 270
q60 0 108 -21.5t79 -52t59.5 -61.5t66.5 -52.5t84 -21.5q49 0 81 33.5t48 116.5l11 53h108l-12 -60q-29 -139 -94.5 -203.5t-167.5 -64.5z" />
    <glyph glyph-name="Odieresis" unicode="&#xd6;" horiz-adv-x="1794" 
d="M1130 0h-632q-234 0 -329 42.5t-95 164.5q0 54 14 117l150 706q17 82 45.5 137.5t68.5 93t104 57.5t140 28t188 8h633q235 0 330.5 -42t95.5 -165q0 -38 -14 -117l-150 -706q-17 -82 -45.5 -137.5t-68.5 -93t-104 -57.5t-141 -28t-190 -8zM1415 379l125 594q8 36 8 67
q0 70 -54.5 95.5t-188.5 25.5h-486q-158 0 -224.5 -37t-90.5 -151l-125 -594q-8 -36 -8 -70q0 -68 53 -92t188 -24h486q160 0 226.5 37t90.5 149zM1577 1475h-270l53 249h270zM954 1475h-270l53 249h271z" />
    <glyph glyph-name="multiply" unicode="&#xd7;" horiz-adv-x="1171" 
d="M874 264l-247 316l-383 -316l-78 98l383 316l-248 315l121 99l246 -316l383 316l77 -99l-383 -315l248 -316z" />
    <glyph glyph-name="Oslash" unicode="&#xd8;" horiz-adv-x="1794" 
d="M193 -143h-203l190 180q-55 22 -80.5 63t-25.5 107q0 54 14 117l150 706q17 82 45.5 137.5t68.5 93t104 57.5t140 28t188 8h633q88 0 152 -6l160 149h200l-192 -180q106 -44 106 -170q0 -54 -14 -117l-150 -706q-17 -82 -45.5 -137.5t-68.5 -93t-104 -57.5t-141 -28
t-190 -8h-632q-107 0 -150 4zM360 369q-8 -36 -8 -70q0 -49 27 -76l1003 946q-20 2 -61 2h-516q-157 0 -223 -37t-90 -151zM1427 369l132 614q8 50 8 66q0 50 -29 79l-1001 -946h573q160 0 226.5 37.5t90.5 149.5z" />
    <glyph glyph-name="Ugrave" unicode="&#xd9;" horiz-adv-x="1789" 
d="M1124 0h-620q-236 0 -332 43t-96 166q0 55 14 115l219 1030h281l-207 -975q-8 -36 -8 -68q0 -69 54 -93.5t189 -24.5h472q161 0 225 37t88 149l207 975h278l-219 -1030q-17 -81 -44.5 -135.5t-67.5 -92.5t-102.5 -58.5t-140 -29t-190.5 -8.5zM1341 1454h-202l-279 391
h246z" />
    <glyph glyph-name="Uacute" unicode="&#xda;" horiz-adv-x="1789" 
d="M1124 0h-620q-236 0 -332 43t-96 166q0 55 14 115l219 1030h281l-207 -975q-8 -36 -8 -68q0 -69 54 -93.5t189 -24.5h472q161 0 225 37t88 149l207 975h278l-219 -1030q-17 -81 -44.5 -135.5t-67.5 -92.5t-102.5 -58.5t-140 -29t-190.5 -8.5zM1544 1845l-442 -391h-203
l399 391h246z" />
    <glyph glyph-name="Ucircumflex" unicode="&#xdb;" horiz-adv-x="1789" 
d="M1124 0h-620q-236 0 -332 43t-96 166q0 55 14 115l219 1030h281l-207 -975q-8 -36 -8 -68q0 -69 54 -93.5t189 -24.5h472q161 0 225 37t88 149l207 975h278l-219 -1030q-17 -81 -44.5 -135.5t-67.5 -92.5t-102.5 -58.5t-140 -29t-190.5 -8.5zM1569 1454h-178l-209 287
l-328 -287h-180l407 391h246z" />
    <glyph glyph-name="Udieresis" unicode="&#xdc;" horiz-adv-x="1789" 
d="M1124 0h-620q-236 0 -332 43t-96 166q0 55 14 115l219 1030h281l-207 -975q-8 -36 -8 -68q0 -69 54 -93.5t189 -24.5h472q161 0 225 37t88 149l207 975h278l-219 -1030q-17 -81 -44.5 -135.5t-67.5 -92.5t-102.5 -58.5t-140 -29t-190.5 -8.5zM1571 1475h-271l54 249h270z
M948 1475h-270l53 249h270z" />
    <glyph glyph-name="Yacute" unicode="&#xdd;" horiz-adv-x="1601" 
d="M858 0h-278l116 553l-465 801h326l322 -604l581 604h318l-803 -801zM1452 1845l-442 -391h-203l399 391h246z" />
    <glyph glyph-name="Thorn" unicode="&#xde;" horiz-adv-x="1683" 
d="M1094 229h-738l-47 -229h-280l286 1354h281l-53 -252h737q232 0 328 -44.5t96 -168.5q0 -49 -12 -111l-47 -227q-14 -69 -35 -118.5t-53.5 -86t-72 -59t-99.5 -35.5t-127.5 -18t-163.5 -5zM1198 907h-696l-105 -487h697q142 0 200 35t82 147l25 119q10 47 8 72
q0 66 -47.5 90t-163.5 24z" />
    <glyph glyph-name="germandbls" unicode="&#xdf;" horiz-adv-x="1742" 
d="M1069 0h-565l39 193h536q135 0 197 37t84 145l16 78q8 46 8 59q0 52 -29.5 74t-86.5 22h-635l35 166h632q139 0 168 144l15 73q8 50 8 66q0 63 -48 84.5t-169 21.5h-449q-157 0 -224.5 -40t-90.5 -148l-207 -975h-280l219 1034q17 81 45 136t68 92t104.5 56.5t141 27.5
t190.5 8h565q233 0 323 -39t90 -158q0 -57 -14 -123l-31 -145q-32 -152 -155 -195q98 -35 98 -139q0 -16 -8 -66l-35 -165q-17 -82 -46.5 -138.5t-71 -93t-107 -57t-142 -28t-188.5 -7.5z" />
    <glyph glyph-name="agrave" unicode="&#xe0;" horiz-adv-x="1679" 
d="M1485 0h-1010q-233 0 -327.5 40t-94.5 153q0 38 13 98l8 43q22 114 75 171.5t157 80t302 22.5h727l11 54q6 35 6 57q0 65 -52.5 88.5t-181.5 23.5h-878l36 175h943q234 0 330 -43t96 -162q0 -42 -13 -105zM551 174h692l66 313h-693q-134 0 -192.5 -29t-75.5 -112l-6 -31
q-4 -16 -4 -43q0 -57 47.5 -77.5t165.5 -20.5zM1249 1106h-200l-291 473h248z" />
    <glyph glyph-name="aacute" unicode="&#xe1;" horiz-adv-x="1679" 
d="M1485 0h-1010q-233 0 -327.5 40t-94.5 153q0 38 13 98l8 43q22 114 75 171.5t157 80t302 22.5h727l11 54q6 35 6 57q0 65 -52.5 88.5t-181.5 23.5h-878l36 175h943q234 0 330 -43t96 -162q0 -42 -13 -105zM551 174h692l66 313h-693q-134 0 -192.5 -29t-75.5 -112l-6 -31
q-4 -16 -4 -43q0 -57 47.5 -77.5t165.5 -20.5zM1473 1579l-490 -473h-203l445 473h248z" />
    <glyph glyph-name="acircumflex" unicode="&#xe2;" horiz-adv-x="1679" 
d="M1485 0h-1010q-233 0 -327.5 40t-94.5 153q0 38 13 98l8 43q22 114 75 171.5t157 80t302 22.5h727l11 54q6 35 6 57q0 65 -52.5 88.5t-181.5 23.5h-878l36 175h943q234 0 330 -43t96 -162q0 -42 -13 -105zM551 174h692l66 313h-693q-134 0 -192.5 -29t-75.5 -112l-6 -31
q-4 -16 -4 -43q0 -57 47.5 -77.5t165.5 -20.5zM1462 1106h-178l-192 367l-344 -367h-181l426 473h246z" />
    <glyph glyph-name="atilde" unicode="&#xe3;" horiz-adv-x="1679" 
d="M1485 0h-1010q-233 0 -327.5 40t-94.5 153q0 38 13 98l8 43q22 114 75 171.5t157 80t302 22.5h727l11 54q6 35 6 57q0 65 -52.5 88.5t-181.5 23.5h-878l36 175h943q234 0 330 -43t96 -162q0 -42 -13 -105zM551 174h692l66 313h-693q-134 0 -192.5 -29t-75.5 -112l-6 -31
q-4 -16 -4 -43q0 -57 47.5 -77.5t165.5 -20.5zM1251 1167q-58 0 -104.5 23t-77 55.5t-59.5 65t-66 55.5t-82 23q-52 0 -83.5 -35t-51.5 -123l-12 -57h-109l15 61q35 151 98 219t166 68q59 0 106 -23t77.5 -55.5t58.5 -65t65 -55.5t82 -23q52 0 82.5 35t50.5 125l12 58h109
l-15 -66q-32 -148 -96.5 -216.5t-165.5 -68.5z" />
    <glyph glyph-name="adieresis" unicode="&#xe4;" horiz-adv-x="1679" 
d="M1485 0h-1010q-233 0 -327.5 40t-94.5 153q0 38 13 98l8 43q22 114 75 171.5t157 80t302 22.5h727l11 54q6 35 6 57q0 65 -52.5 88.5t-181.5 23.5h-878l36 175h943q234 0 330 -43t96 -162q0 -42 -13 -105zM551 174h692l66 313h-693q-134 0 -192.5 -29t-75.5 -112l-6 -31
q-4 -16 -4 -43q0 -57 47.5 -77.5t165.5 -20.5zM1473 1147h-273l51 250h273zM850 1147h-272l51 250h272z" />
    <glyph glyph-name="aring" unicode="&#xe5;" horiz-adv-x="1679" 
d="M1485 0h-1010q-233 0 -327.5 40t-94.5 153q0 38 13 98l8 43q22 114 75 171.5t157 80t302 22.5h727l11 54q6 35 6 57q0 65 -52.5 88.5t-181.5 23.5h-878l36 175h943q234 0 330 -43t96 -162q0 -42 -13 -105zM551 174h692l66 313h-693q-134 0 -192.5 -29t-75.5 -112l-6 -31
q-4 -16 -4 -43q0 -57 47.5 -77.5t165.5 -20.5zM1053 1063h-90q-123 0 -174.5 22t-51.5 89q0 30 8 63l37 174q23 103 82.5 135.5t206.5 32.5h90q125 0 175 -23t50 -88q0 -22 -6 -57l-37 -174q-23 -105 -84 -139.5t-206 -34.5zM1229 1253l28 142q5 30 5 32q0 33 -27 43.5
t-96 10.5h-86q-83 0 -114.5 -16.5t-41.5 -69.5l-29 -142q-4 -28 -4 -34q0 -34 27 -46t94 -12h86q80 0 113 18t45 74z" />
    <glyph glyph-name="ae" unicode="&#xe6;" horiz-adv-x="2408" 
d="M2183 0h-1708q-234 0 -329 40.5t-95 152.5q0 41 12 94l11 47q15 69 37.5 114.5t58.5 78t97 49.5t140.5 24.5t200.5 7.5h510l47 223h-925l36 175h1838q154 0 224 -45t70 -140q0 -34 -10 -82l-20 -94q-21 -97 -58.5 -147.5t-105 -71t-189.5 -20.5h-682l-49 -228h926z
M551 174h475l66 313h-476q-134 0 -192.5 -29t-75.5 -112l-6 -31q-6 -24 -6 -45q0 -56 48 -76t167 -20zM1968 825h-536l-64 -297h555q90 0 127.5 23.5t54.5 91.5l13 51q4 24 4 37q0 48 -36.5 71t-117.5 23z" />
    <glyph glyph-name="ccedilla" unicode="&#xe7;" horiz-adv-x="1488" 
d="M1313 0h-815q-234 0 -330 42t-96 159q0 36 14 108l82 387q19 93 55.5 152t102.5 95t156.5 49.5t228.5 13.5h815l-41 -193h-783q-130 0 -188.5 -35.5t-77.5 -126.5l-63 -299q-6 -30 -6 -55q0 -59 46 -81.5t158 -22.5h781zM598 -612h-86l16 77h37q57 0 68 58l18 86h-153
l55 268h287l-78 -362q-13 -61 -57.5 -94t-106.5 -33z" />
    <glyph glyph-name="egrave" unicode="&#xe8;" horiz-adv-x="1667" 
d="M1442 0h-944q-219 0 -317.5 55.5t-98.5 188.5q0 50 12 112l74 342q35 160 160 234t350 74h694q155 0 225 -45t70 -140q0 -30 -10 -82l-21 -94q-21 -97 -58 -147t-104.5 -71t-189.5 -21h-903l-8 -35q-8 -33 -8 -66q0 -72 55 -99.5t186 -27.5h873zM406 528h776
q90 0 127.5 23.5t54.5 91.5l12 51q4 24 4 37q0 48 -36 71t-117 23h-547q-106 0 -166.5 -36.5t-77.5 -114.5zM1241 1106h-201l-290 473h247z" />
    <glyph glyph-name="egrave" unicode="&#x450;" horiz-adv-x="1667" 
d="M1442 0h-944q-219 0 -317.5 55.5t-98.5 188.5q0 50 12 112l74 342q35 160 160 234t350 74h694q155 0 225 -45t70 -140q0 -30 -10 -82l-21 -94q-21 -97 -58 -147t-104.5 -71t-189.5 -21h-903l-8 -35q-8 -33 -8 -66q0 -72 55 -99.5t186 -27.5h873zM406 528h776
q90 0 127.5 23.5t54.5 91.5l12 51q4 24 4 37q0 48 -36 71t-117 23h-547q-106 0 -166.5 -36.5t-77.5 -114.5zM1241 1106h-201l-290 473h247z" />
    <glyph glyph-name="eacute" unicode="&#xe9;" horiz-adv-x="1667" 
d="M1442 0h-944q-219 0 -317.5 55.5t-98.5 188.5q0 50 12 112l74 342q35 160 160 234t350 74h694q155 0 225 -45t70 -140q0 -30 -10 -82l-21 -94q-21 -97 -58 -147t-104.5 -71t-189.5 -21h-903l-8 -35q-8 -33 -8 -66q0 -72 55 -99.5t186 -27.5h873zM406 528h776
q90 0 127.5 23.5t54.5 91.5l12 51q4 24 4 37q0 48 -36 71t-117 23h-547q-106 0 -166.5 -36.5t-77.5 -114.5zM1462 1579l-489 -473h-203l444 473h248z" />
    <glyph glyph-name="ecircumflex" unicode="&#xea;" horiz-adv-x="1667" 
d="M1442 0h-944q-219 0 -317.5 55.5t-98.5 188.5q0 50 12 112l74 342q35 160 160 234t350 74h694q155 0 225 -45t70 -140q0 -30 -10 -82l-21 -94q-21 -97 -58 -147t-104.5 -71t-189.5 -21h-903l-8 -35q-8 -33 -8 -66q0 -72 55 -99.5t186 -27.5h873zM406 528h776
q90 0 127.5 23.5t54.5 91.5l12 51q4 24 4 37q0 48 -36 71t-117 23h-547q-106 0 -166.5 -36.5t-77.5 -114.5zM1454 1106h-178l-193 367l-344 -367h-180l426 473h246z" />
    <glyph glyph-name="edieresis" unicode="&#xeb;" horiz-adv-x="1667" 
d="M1442 0h-944q-219 0 -317.5 55.5t-98.5 188.5q0 50 12 112l74 342q35 160 160 234t350 74h694q155 0 225 -45t70 -140q0 -30 -10 -82l-21 -94q-21 -97 -58 -147t-104.5 -71t-189.5 -21h-903l-8 -35q-8 -33 -8 -66q0 -72 55 -99.5t186 -27.5h873zM406 528h776
q90 0 127.5 23.5t54.5 91.5l12 51q4 24 4 37q0 48 -36 71t-117 23h-547q-106 0 -166.5 -36.5t-77.5 -114.5zM1464 1147h-272l51 250h273zM842 1147h-273l52 250h272z" />
    <glyph glyph-name="edieresis" unicode="&#x451;" horiz-adv-x="1667" 
d="M1442 0h-944q-219 0 -317.5 55.5t-98.5 188.5q0 50 12 112l74 342q35 160 160 234t350 74h694q155 0 225 -45t70 -140q0 -30 -10 -82l-21 -94q-21 -97 -58 -147t-104.5 -71t-189.5 -21h-903l-8 -35q-8 -33 -8 -66q0 -72 55 -99.5t186 -27.5h873zM406 528h776
q90 0 127.5 23.5t54.5 91.5l12 51q4 24 4 37q0 48 -36 71t-117 23h-547q-106 0 -166.5 -36.5t-77.5 -114.5zM1464 1147h-272l51 250h273zM842 1147h-273l52 250h272z" />
    <glyph glyph-name="igrave" unicode="&#xec;" horiz-adv-x="563" 
d="M369 0h-283l213 1006h283zM678 1106h-201l-291 473h248z" />
    <glyph glyph-name="iacute" unicode="&#xed;" horiz-adv-x="567" 
d="M311 0h-282l213 1006h282zM883 1579l-490 -473h-203l445 473h248z" />
    <glyph glyph-name="icircumflex" unicode="&#xee;" horiz-adv-x="731" 
d="M424 0h-283l213 1006h283zM965 1106h-179l-192 367l-344 -367h-180l426 473h245z" />
    <glyph glyph-name="idieresis" unicode="&#xef;" horiz-adv-x="612" 
d="M365 0h-283l213 1006h283zM385 1147h-272l51 250h272zM823 1147h-272l51 250h272z" />
    <glyph glyph-name="idieresis" unicode="&#x457;" horiz-adv-x="612" 
d="M365 0h-283l213 1006h283zM385 1147h-272l51 250h272zM823 1147h-272l51 250h272z" />
    <glyph glyph-name="eth" unicode="&#xf0;" horiz-adv-x="1689" 
d="M1380 1505l-233 -151h158q234 0 330 -43t96 -162q0 -32 -15 -109l-139 -659q-79 -381 -414 -381h-663q-235 0 -331.5 41.5t-96.5 161.5q0 34 14 106l55 269q15 77 42.5 129.5t68 88t104 55.5t141.5 28t191 8h717l22 110q7 35 7 56q0 62 -54 85t-194 23h-336l-272 -178
h-144l273 178h-324l41 193h580l233 151h143zM1311 391l71 332h-696q-134 0 -192 -33.5t-78 -126.5l-45 -207q-6 -34 -6 -59q0 -60 45.5 -82t160.5 -22h525q88 0 140.5 48.5t74.5 149.5z" />
    <glyph glyph-name="ntilde" unicode="&#xf1;" horiz-adv-x="1740" 
d="M1210 813h-534q-102 0 -153 -37.5t-74 -116.5l-140 -659h-280l213 1006h280l-24 -115q100 115 331 115h457q227 0 326.5 -45t99.5 -168q0 -53 -10 -97l-148 -696h-278l137 651q6 27 6 51q0 61 -49.5 86t-159.5 25zM1266 1167q-58 0 -104.5 23t-77 55.5t-59.5 65t-66 55.5
t-82 23q-52 0 -84 -35.5t-52 -122.5l-12 -57h-108l14 61q35 151 98 219t166 68q59 0 106 -23t77.5 -55.5t58.5 -65t65 -55.5t82 -23q52 0 82.5 35t50.5 125l13 58h108l-14 -66q-32 -148 -96.5 -216.5t-165.5 -68.5z" />
    <glyph glyph-name="ograve" unicode="&#xf2;" horiz-adv-x="1751" 
d="M586 193h493q138 0 195 30.5t78 128.5l63 299q6 27 6 51q0 61 -49.5 86t-159.5 25h-493q-131 0 -192 -35t-81 -127l-63 -299q-8 -46 -8 -59q0 -60 46.5 -80t164.5 -20zM1075 0h-563q-236 0 -333 41t-97 162q0 45 12 106l82 387q16 77 44.5 130t69.5 88.5t105.5 55.5
t141.5 28t188 8h563q234 0 332 -43.5t98 -163.5q0 -45 -12 -103l-82 -387q-17 -79 -45.5 -132.5t-69.5 -88.5t-105.5 -54t-140.5 -26.5t-188 -7.5zM1264 1106h-201l-291 473h248z" />
    <glyph glyph-name="oacute" unicode="&#xf3;" horiz-adv-x="1751" 
d="M586 193h493q138 0 195 30.5t78 128.5l63 299q6 27 6 51q0 61 -49.5 86t-159.5 25h-493q-131 0 -192 -35t-81 -127l-63 -299q-8 -46 -8 -59q0 -60 46.5 -80t164.5 -20zM1075 0h-563q-236 0 -333 41t-97 162q0 45 12 106l82 387q16 77 44.5 130t69.5 88.5t105.5 55.5
t141.5 28t188 8h563q234 0 332 -43.5t98 -163.5q0 -45 -12 -103l-82 -387q-17 -79 -45.5 -132.5t-69.5 -88.5t-105.5 -54t-140.5 -26.5t-188 -7.5zM1487 1579l-490 -473h-202l444 473h248z" />
    <glyph glyph-name="ocircumflex" unicode="&#xf4;" horiz-adv-x="1751" 
d="M586 193h493q138 0 195 30.5t78 128.5l63 299q6 27 6 51q0 61 -49.5 86t-159.5 25h-493q-131 0 -192 -35t-81 -127l-63 -299q-8 -46 -8 -59q0 -60 46.5 -80t164.5 -20zM1075 0h-563q-236 0 -333 41t-97 162q0 45 12 106l82 387q16 77 44.5 130t69.5 88.5t105.5 55.5
t141.5 28t188 8h563q234 0 332 -43.5t98 -163.5q0 -45 -12 -103l-82 -387q-17 -79 -45.5 -132.5t-69.5 -88.5t-105.5 -54t-140.5 -26.5t-188 -7.5zM1477 1106h-179l-192 367l-344 -367h-180l426 473h245z" />
    <glyph glyph-name="otilde" unicode="&#xf5;" horiz-adv-x="1751" 
d="M586 193h493q138 0 195 30.5t78 128.5l63 299q6 27 6 51q0 61 -49.5 86t-159.5 25h-493q-131 0 -192 -35t-81 -127l-63 -299q-8 -46 -8 -59q0 -60 46.5 -80t164.5 -20zM1075 0h-563q-236 0 -333 41t-97 162q0 45 12 106l82 387q16 77 44.5 130t69.5 88.5t105.5 55.5
t141.5 28t188 8h563q234 0 332 -43.5t98 -163.5q0 -45 -12 -103l-82 -387q-17 -79 -45.5 -132.5t-69.5 -88.5t-105.5 -54t-140.5 -26.5t-188 -7.5zM1264 1167q-58 0 -104.5 23t-77.5 55.5t-59.5 65t-66 55.5t-82.5 23q-52 0 -83.5 -35t-51.5 -123l-12 -57h-109l15 61
q35 151 98 219t166 68q59 0 106 -23t77.5 -55.5t58.5 -65t65 -55.5t82 -23q52 0 82.5 35t50.5 125l13 58h108l-14 -66q-32 -148 -96.5 -216.5t-165.5 -68.5z" />
    <glyph glyph-name="odieresis" unicode="&#xf6;" horiz-adv-x="1751" 
d="M586 193h493q138 0 195 30.5t78 128.5l63 299q6 27 6 51q0 61 -49.5 86t-159.5 25h-493q-131 0 -192 -35t-81 -127l-63 -299q-8 -46 -8 -59q0 -60 46.5 -80t164.5 -20zM1075 0h-563q-236 0 -333 41t-97 162q0 45 12 106l82 387q16 77 44.5 130t69.5 88.5t105.5 55.5
t141.5 28t188 8h563q234 0 332 -43.5t98 -163.5q0 -45 -12 -103l-82 -387q-17 -79 -45.5 -132.5t-69.5 -88.5t-105.5 -54t-140.5 -26.5t-188 -7.5zM1485 1147h-273l52 250h272zM862 1147h-272l51 250h272z" />
    <glyph glyph-name="divide" unicode="&#xf7;" horiz-adv-x="1171" 
d="M1128 608h-991l29 140h991zM846 963h-281l58 268h280zM668 125h-281l57 268h281z" />
    <glyph glyph-name="oslash" unicode="&#xf8;" horiz-adv-x="1751" 
d="M1075 0h-563q-104 0 -147 4l-152 -119h-207l189 148q-59 22 -87 62.5t-28 105.5q0 36 14 108l82 387q16 77 44.5 130t69.5 88.5t105.5 55.5t141.5 28t188 8h563q73 0 148 -7l155 121h205l-194 -151q60 -22 88 -63.5t28 -108.5q0 -45 -12 -101l-82 -387
q-17 -79 -45.5 -132.5t-69.5 -88.5t-105.5 -54t-140.5 -26.5t-188 -7.5zM360 342q-8 -31 -8 -59q0 -63 56 -84l800 624h-508q-131 0 -191.5 -34.5t-80.5 -126.5zM1438 662q6 27 6 49q0 68 -55 92l-797 -621h506q137 0 194 31t78 129z" />
    <glyph glyph-name="ugrave" unicode="&#xf9;" horiz-adv-x="1714" 
d="M578 193h503q104 0 155.5 36.5t74.5 116.5l141 660h279l-213 -1006h-279l23 115q-100 -115 -332 -115h-426q-227 0 -327.5 46t-100.5 167q0 43 12 96l148 697h278l-139 -652q-6 -27 -6 -51q0 -62 48.5 -86t160.5 -24zM1241 1106h-201l-290 473h247z" />
    <glyph glyph-name="uacute" unicode="&#xfa;" horiz-adv-x="1714" 
d="M578 193h503q104 0 155.5 36.5t74.5 116.5l141 660h279l-213 -1006h-279l23 115q-100 -115 -332 -115h-426q-227 0 -327.5 46t-100.5 167q0 43 12 96l148 697h278l-139 -652q-6 -27 -6 -51q0 -62 48.5 -86t160.5 -24zM1464 1579l-489 -473h-203l445 473h247z" />
    <glyph glyph-name="ucircumflex" unicode="&#xfb;" horiz-adv-x="1714" 
d="M578 193h503q104 0 155.5 36.5t74.5 116.5l141 660h279l-213 -1006h-279l23 115q-100 -115 -332 -115h-426q-227 0 -327.5 46t-100.5 167q0 43 12 96l148 697h278l-139 -652q-6 -27 -6 -51q0 -62 48.5 -86t160.5 -24zM1454 1106h-178l-193 367l-344 -367h-180l426 473
h246z" />
    <glyph glyph-name="udieresis" unicode="&#xfc;" horiz-adv-x="1714" 
d="M578 193h503q104 0 155.5 36.5t74.5 116.5l141 660h279l-213 -1006h-279l23 115q-100 -115 -332 -115h-426q-227 0 -327.5 46t-100.5 167q0 43 12 96l148 697h278l-139 -652q-6 -27 -6 -51q0 -62 48.5 -86t160.5 -24zM1464 1147h-272l51 250h273zM842 1147h-273l52 250
h272z" />
    <glyph glyph-name="udieresis" unicode="&#x3cb;" horiz-adv-x="1714" 
d="M578 193h503q104 0 155.5 36.5t74.5 116.5l141 660h279l-213 -1006h-279l23 115q-100 -115 -332 -115h-426q-227 0 -327.5 46t-100.5 167q0 43 12 96l148 697h278l-139 -652q-6 -27 -6 -51q0 -62 48.5 -86t160.5 -24zM1464 1147h-272l51 250h273zM842 1147h-273l52 250
h272z" />
    <glyph glyph-name="yacute" unicode="&#xfd;" horiz-adv-x="1667" 
d="M1016 -420h-422l41 193h328q98 0 147.5 34.5t69.5 129.5l18 90h-698q-235 0 -329.5 40.5t-94.5 157.5q0 53 14 113l141 668h279l-135 -633q-6 -30 -6 -56q0 -61 45.5 -83.5t156.5 -22.5h666l170 795h281l-238 -1112q-21 -98 -55 -160t-90 -96t-122 -46t-167 -12z
M1452 1579l-489 -473h-203l444 473h248z" />
    <glyph glyph-name="thorn" unicode="&#xfe;" horiz-adv-x="1689" 
d="M1028 0h-719l-90 -420h-280l376 1774h281l-74 -348h719q233 0 329.5 -42t96.5 -163q0 -47 -12 -105l-82 -385q-17 -77 -45 -130.5t-69 -89.5t-104.5 -55.5t-140 -27.5t-186.5 -8zM1300 354l64 297q6 30 6 56q0 61 -47.5 83.5t-157.5 22.5h-684l-133 -620h684
q133 0 190 32.5t78 128.5z" />
    <glyph glyph-name="ydieresis" unicode="&#xff;" horiz-adv-x="1667" 
d="M1016 -420h-422l41 193h328q98 0 147.5 34.5t69.5 129.5l18 90h-698q-235 0 -329.5 40.5t-94.5 157.5q0 53 14 113l141 668h279l-135 -633q-6 -30 -6 -56q0 -61 45.5 -83.5t156.5 -22.5h666l170 795h281l-238 -1112q-21 -98 -55 -160t-90 -96t-122 -46t-167 -12z
M1452 1147h-272l51 250h272zM829 1147h-272l51 250h273z" />
    <glyph glyph-name="Amacron" unicode="&#x100;" horiz-adv-x="1695" 
d="M1282 0l-61 270h-787l-174 -270h-307l924 1354h352l350 -1354h-297zM1016 1167l-461 -710h623zM1485 1556h-778l28 130h778z" />
    <glyph glyph-name="amacron" unicode="&#x101;" horiz-adv-x="1679" 
d="M1485 0h-1010q-233 0 -327.5 40t-94.5 153q0 38 13 98l8 43q22 114 75 171.5t157 80t302 22.5h727l11 54q6 35 6 57q0 65 -52.5 88.5t-181.5 23.5h-878l36 175h943q234 0 330 -43t96 -162q0 -42 -13 -105zM551 174h692l66 313h-693q-134 0 -192.5 -29t-75.5 -112l-6 -31
q-4 -16 -4 -43q0 -57 47.5 -77.5t165.5 -20.5zM1436 1251h-779l29 129h778z" />
    <glyph glyph-name="Abreve" unicode="&#x102;" horiz-adv-x="1695" 
d="M1282 0l-61 270h-787l-174 -270h-307l924 1354h352l350 -1354h-297zM1016 1167l-461 -710h623zM1128 1440h-114q-150 0 -214.5 32.5t-64.5 131.5q0 38 17 118l24 123h142l-27 -127q-8 -39 -8 -71q0 -55 34 -73t121 -18h115q103 0 148.5 32t66.5 130l27 127h141l-25 -123
q-18 -88 -46 -143.5t-76.5 -86t-108 -41.5t-152.5 -11z" />
    <glyph glyph-name="abreve" unicode="&#x103;" horiz-adv-x="1679" 
d="M1485 0h-1010q-233 0 -327.5 40t-94.5 153q0 38 13 98l8 43q22 114 75 171.5t157 80t302 22.5h727l11 54q6 35 6 57q0 65 -52.5 88.5t-181.5 23.5h-878l36 175h943q234 0 330 -43t96 -162q0 -42 -13 -105zM551 174h692l66 313h-693q-134 0 -192.5 -29t-75.5 -112l-6 -31
q-4 -16 -4 -43q0 -57 47.5 -77.5t165.5 -20.5zM1079 1133h-114q-151 0 -215 32.5t-64 132.5q0 54 14 117l35 162h142l-35 -166q-11 -53 -11 -72q0 -54 35.5 -72t122.5 -18h115q103 0 148.5 31t66.5 131l35 166h141l-35 -162q-19 -90 -47 -144.5t-75 -85.5t-106 -41.5
t-153 -10.5z" />
    <glyph glyph-name="Aogonek" unicode="&#x104;" horiz-adv-x="1695" 
d="M1282 0l-61 270h-787l-174 -270h-307l924 1354h352l350 -1354l-283 -147q-68 -36 -95.5 -66t-35.5 -68l-6 -28q-4 -20 -4 -31q0 -43 35 -61.5t108 -18.5h191l-41 -192h-250q-153 0 -228 36t-75 123q0 14 8 60l8 43q13 73 63 121t163 102l276 127h-131zM1016 1167
l-461 -710h623z" />
    <glyph glyph-name="aogonek" unicode="&#x105;" horiz-adv-x="1679" 
d="M1356 -612h-250q-153 0 -228 36t-75 123q0 14 8 60l8 43q13 73 62 120t163 103l271 127h-840q-233 0 -327.5 40t-94.5 153q0 38 13 98l8 43q22 114 75 171.5t157 80t302 22.5h727l11 54q6 35 6 57q0 65 -52.5 88.5t-181.5 23.5h-878l36 175h943q234 0 330 -43t96 -162
q0 -42 -13 -105l-147 -696l-281 -147q-68 -36 -95.5 -66t-35.5 -68l-6 -28q-4 -20 -4 -31q0 -43 35 -61.5t108 -18.5h191zM551 174h692l66 313h-693q-134 0 -192.5 -29t-75.5 -112l-6 -31q-4 -16 -4 -43q0 -57 47.5 -77.5t165.5 -20.5z" />
    <glyph glyph-name="Cacute" unicode="&#x106;" horiz-adv-x="1634" 
d="M1462 0h-962q-234 0 -330 43t-96 166q0 55 14 115l150 706q17 80 44.5 135t68.5 92.5t104 58.5t141 29.5t190 8.5h963l-41 -193h-889q-153 0 -221.5 -39.5t-91.5 -148.5l-125 -594q-8 -46 -8 -62q0 -71 54.5 -97.5t184.5 -26.5h889zM1518 1845l-443 -391h-203l400 391
h246z" />
    <glyph glyph-name="cacute" unicode="&#x107;" horiz-adv-x="1488" 
d="M1313 0h-815q-234 0 -330 42t-96 159q0 36 14 108l82 387q19 93 55.5 152t102.5 95t156.5 49.5t228.5 13.5h815l-41 -193h-783q-130 0 -188.5 -35.5t-77.5 -126.5l-63 -299q-6 -30 -6 -55q0 -59 46 -81.5t158 -22.5h781zM1413 1579l-489 -473h-203l444 473h248z" />
    <glyph glyph-name="Cdotaccent" unicode="&#x10a;" horiz-adv-x="1634" 
d="M1462 0h-962q-234 0 -330 43t-96 166q0 55 14 115l150 706q17 80 44.5 135t68.5 92.5t104 58.5t141 29.5t190 8.5h963l-41 -193h-889q-153 0 -221.5 -39.5t-91.5 -148.5l-125 -594q-8 -46 -8 -62q0 -71 54.5 -97.5t184.5 -26.5h889zM1243 1475h-270l53 249h270z" />
    <glyph glyph-name="cdotaccent" unicode="&#x10b;" horiz-adv-x="1488" 
d="M1313 0h-815q-234 0 -330 42t-96 159q0 36 14 108l82 387q19 93 55.5 152t102.5 95t156.5 49.5t228.5 13.5h815l-41 -193h-783q-130 0 -188.5 -35.5t-77.5 -126.5l-63 -299q-6 -30 -6 -55q0 -59 46 -81.5t158 -22.5h781zM1102 1147h-273l52 250h272z" />
    <glyph glyph-name="Ccaron" unicode="&#x10c;" horiz-adv-x="1634" 
d="M1462 0h-962q-234 0 -330 43t-96 166q0 55 14 115l150 706q17 80 44.5 135t68.5 92.5t104 58.5t141 29.5t190 8.5h963l-41 -193h-889q-153 0 -221.5 -39.5t-91.5 -148.5l-125 -594q-8 -46 -8 -62q0 -71 54.5 -97.5t184.5 -26.5h889zM745 1845h179l209 -289l327 289h180
l-407 -391h-246z" />
    <glyph glyph-name="ccaron" unicode="&#x10d;" horiz-adv-x="1488" 
d="M1313 0h-815q-234 0 -330 42t-96 159q0 36 14 108l82 387q19 93 55.5 152t102.5 95t156.5 49.5t228.5 13.5h815l-41 -193h-783q-130 0 -188.5 -35.5t-77.5 -126.5l-63 -299q-6 -30 -6 -55q0 -59 46 -81.5t158 -22.5h781zM608 1579h178l195 -365l342 365h180l-426 -473
h-246z" />
    <glyph glyph-name="Dcaron" unicode="&#x10e;" horiz-adv-x="1712" 
d="M1047 0h-1018l286 1354h1018q233 0 329.5 -43t96.5 -166q0 -40 -14 -115l-150 -706q-17 -81 -45 -136t-68 -92.5t-103.5 -58t-141 -29t-190.5 -8.5zM1329 379l125 594q8 50 8 65q0 70 -54.5 96.5t-186.5 26.5h-666l-207 -968h666q154 0 223 39t92 147zM715 1845h178
l209 -289l328 289h180l-408 -391h-246z" />
    <glyph glyph-name="dcaron" unicode="&#x10f;" horiz-adv-x="1957" 
d="M1497 0h-997q-237 0 -332.5 40.5t-95.5 160.5q0 36 14 108l82 387q16 77 44.5 130t70.5 88.5t105.5 55.5t140 28t184.5 8h719l73 348h279zM1257 193l134 620h-674q-135 0 -199 -36t-84 -132l-61 -293q-6 -30 -6 -55q0 -61 48 -82.5t169 -21.5h673zM1905 881h-84l18 82h37
q33 0 48.5 14t23.5 49l16 70h-154l54 258h286l-69 -330q-15 -69 -62 -106t-114 -37z" />
    <glyph glyph-name="dmacron" unicode="&#x111;" horiz-adv-x="1689" 
d="M1497 0h-997q-237 0 -332.5 40.5t-95.5 160.5q0 36 14 108l82 387q16 77 44.5 130t70.5 88.5t105.5 55.5t140 28t184.5 8h719l57 274h-500l29 129h778zM1257 193l134 620h-674q-135 0 -199 -36t-84 -132l-61 -293q-6 -30 -6 -55q0 -61 48 -82.5t169 -21.5h673z" />
    <glyph glyph-name="dmacron" unicode="&#x20ab;" horiz-adv-x="1689" 
d="M1497 0h-997q-237 0 -332.5 40.5t-95.5 160.5q0 36 14 108l82 387q16 77 44.5 130t70.5 88.5t105.5 55.5t140 28t184.5 8h719l57 274h-500l29 129h778zM1257 193l134 620h-674q-135 0 -199 -36t-84 -132l-61 -293q-6 -30 -6 -55q0 -61 48 -82.5t169 -21.5h673z" />
    <glyph glyph-name="Emacron" unicode="&#x112;" horiz-adv-x="1638" 
d="M1477 0h-1448l286 1354h1448l-41 -193h-1167l-84 -391h711l-37 -182h-711l-86 -395h1168zM1481 1556h-779l29 130h778z" />
    <glyph glyph-name="emacron" unicode="&#x113;" horiz-adv-x="1667" 
d="M1442 0h-944q-219 0 -317.5 55.5t-98.5 188.5q0 50 12 112l74 342q35 160 160 234t350 74h694q155 0 225 -45t70 -140q0 -30 -10 -82l-21 -94q-21 -97 -58 -147t-104.5 -71t-189.5 -21h-903l-8 -35q-8 -33 -8 -66q0 -72 55 -99.5t186 -27.5h873zM406 528h776
q90 0 127.5 23.5t54.5 91.5l12 51q4 24 4 37q0 48 -36 71t-117 23h-547q-106 0 -166.5 -36.5t-77.5 -114.5zM1425 1251h-778l29 129h778z" />
    <glyph glyph-name="Ebreve" unicode="&#x114;" horiz-adv-x="1638" 
d="M1477 0h-1448l286 1354h1448l-41 -193h-1167l-84 -391h711l-37 -182h-711l-86 -395h1168zM1124 1440h-114q-150 0 -214.5 32.5t-64.5 131.5q0 38 17 118l24 123h141l-26 -127q-8 -39 -8 -71q0 -55 34 -73t121 -18h115q103 0 148.5 32t66.5 130l27 127h141l-25 -123
q-18 -88 -46 -143.5t-76.5 -86t-108 -41.5t-152.5 -11z" />
    <glyph glyph-name="ebreve" unicode="&#x115;" horiz-adv-x="1667" 
d="M1442 0h-944q-219 0 -317.5 55.5t-98.5 188.5q0 50 12 112l74 342q35 160 160 234t350 74h694q155 0 225 -45t70 -140q0 -30 -10 -82l-21 -94q-21 -97 -58 -147t-104.5 -71t-189.5 -21h-903l-8 -35q-8 -33 -8 -66q0 -72 55 -99.5t186 -27.5h873zM406 528h776
q90 0 127.5 23.5t54.5 91.5l12 51q4 24 4 37q0 48 -36 71t-117 23h-547q-106 0 -166.5 -36.5t-77.5 -114.5zM1071 1133h-115q-151 0 -214.5 32.5t-63.5 132.5q0 54 14 117l35 162h141l-34 -166q-11 -53 -11 -72q0 -54 35.5 -72t122.5 -18h115q103 0 148.5 31t66.5 131
l35 166h141l-35 -162q-19 -90 -47 -144.5t-75 -85.5t-106 -41.5t-153 -10.5z" />
    <glyph glyph-name="Edotaccent" unicode="&#x116;" horiz-adv-x="1638" 
d="M1477 0h-1448l286 1354h1448l-41 -193h-1167l-84 -391h711l-37 -182h-711l-86 -395h1168zM1210 1475h-270l53 249h271z" />
    <glyph glyph-name="edotaccent" unicode="&#x117;" horiz-adv-x="1667" 
d="M1442 0h-944q-219 0 -317.5 55.5t-98.5 188.5q0 50 12 112l74 342q35 160 160 234t350 74h694q155 0 225 -45t70 -140q0 -30 -10 -82l-21 -94q-21 -97 -58 -147t-104.5 -71t-189.5 -21h-903l-8 -35q-8 -33 -8 -66q0 -72 55 -99.5t186 -27.5h873zM406 528h776
q90 0 127.5 23.5t54.5 91.5l12 51q4 24 4 37q0 48 -36 71t-117 23h-547q-106 0 -166.5 -36.5t-77.5 -114.5zM1153 1147h-272l51 250h272z" />
    <glyph glyph-name="Eogonek" unicode="&#x118;" horiz-adv-x="1638" 
d="M1346 -612h-248q-155 0 -229 36t-74 123q0 14 8 60l8 43q13 73 62 121t161 102l273 127h-1278l286 1354h1448l-41 -193h-1167l-84 -391h711l-37 -182h-711l-86 -395h1168l-39 -193l-283 -147q-68 -36 -94.5 -65.5t-34.5 -68.5l-6 -28q-4 -20 -4 -31q0 -43 35 -61.5
t106 -18.5h190z" />
    <glyph glyph-name="eogonek" unicode="&#x119;" horiz-adv-x="1667" 
d="M1313 -612h-250q-153 0 -228 36t-75 123q0 14 8 60l8 43q13 73 62 120t163 103l271 127h-774q-219 0 -317.5 55.5t-98.5 188.5q0 50 12 112l74 342q35 160 160 234t350 74h694q155 0 225 -45t70 -140q0 -30 -10 -82l-21 -94q-21 -97 -58 -147t-104.5 -71t-189.5 -21h-903
l-8 -35q-8 -33 -8 -66q0 -72 55 -99.5t186 -27.5h873l-37 -178l-281 -147q-68 -36 -95.5 -66t-35.5 -68l-6 -28q-4 -20 -4 -31q0 -43 35 -61.5t108 -18.5h191zM406 528h776q90 0 127.5 23.5t54.5 91.5l12 51q4 24 4 37q0 48 -36 71t-117 23h-547q-106 0 -166.5 -36.5
t-77.5 -114.5z" />
    <glyph glyph-name="Ecaron" unicode="&#x11a;" horiz-adv-x="1638" 
d="M1477 0h-1448l286 1354h1448l-41 -193h-1167l-84 -391h711l-37 -182h-711l-86 -395h1168zM705 1845h178l209 -289l327 289h180l-407 -391h-246z" />
    <glyph glyph-name="ecaron" unicode="&#x11b;" horiz-adv-x="1667" 
d="M1442 0h-944q-219 0 -317.5 55.5t-98.5 188.5q0 50 12 112l74 342q35 160 160 234t350 74h694q155 0 225 -45t70 -140q0 -30 -10 -82l-21 -94q-21 -97 -58 -147t-104.5 -71t-189.5 -21h-903l-8 -35q-8 -33 -8 -66q0 -72 55 -99.5t186 -27.5h873zM406 528h776
q90 0 127.5 23.5t54.5 91.5l12 51q4 24 4 37q0 48 -36 71t-117 23h-547q-106 0 -166.5 -36.5t-77.5 -114.5zM659 1579h179l194 -365l342 365h180l-426 -473h-245z" />
    <glyph glyph-name="Gbreve" unicode="&#x11e;" horiz-adv-x="1710" 
d="M1520 0h-1020q-236 0 -331 44t-95 165q0 55 14 115l150 706q17 79 43.5 133t67 92t102.5 59.5t141.5 30.5t193.5 9h1020l-41 -193h-946q-162 0 -228 -39t-89 -149l-125 -594q-8 -33 -8 -66q0 -69 54 -94.5t189 -25.5h678l84 393h-610l41 190h878zM1174 1440h-115
q-150 0 -214.5 32.5t-64.5 131.5q0 38 17 118l24 123h142l-27 -127q-8 -39 -8 -71q0 -55 34 -73t121 -18h115q103 0 148.5 32t66.5 130l27 127h141l-25 -123q-18 -88 -46 -143.5t-76 -86t-107.5 -41.5t-152.5 -11z" />
    <glyph glyph-name="gbreve" unicode="&#x11f;" horiz-adv-x="1687" 
d="M1036 -420h-442l41 193h348q97 0 147.5 35t69.5 129l19 90h-719q-235 0 -329.5 40.5t-94.5 157.5q0 53 14 113l76 358q16 77 43.5 130t67.5 89t103 55.5t140 27.5t189 8h997l-238 -1112q-21 -98 -55 -160t-89.5 -96t-121.5 -46t-166 -12zM1257 211l129 602h-686
q-137 0 -191 -31.5t-75 -130.5l-59 -278q-6 -30 -6 -56q0 -61 45.5 -83.5t156.5 -22.5h686zM1090 1133h-115q-151 0 -215 32.5t-64 132.5q0 50 15 117l34 162h142l-35 -166q-10 -48 -10 -72q0 -54 35 -72t122 -18h115q103 0 148.5 31t66.5 131l35 166h141l-35 -162
q-19 -90 -46.5 -144.5t-75 -85.5t-106 -41.5t-152.5 -10.5z" />
    <glyph glyph-name="Gdotaccent" unicode="&#x120;" horiz-adv-x="1710" 
d="M1520 0h-1020q-236 0 -331 44t-95 165q0 55 14 115l150 706q17 79 43.5 133t67 92t102.5 59.5t141.5 30.5t193.5 9h1020l-41 -193h-946q-162 0 -228 -39t-89 -149l-125 -594q-8 -33 -8 -66q0 -69 54 -94.5t189 -25.5h678l84 393h-610l41 190h878zM1260 1475h-271l53 249
h271z" />
    <glyph glyph-name="gdotaccent" unicode="&#x121;" horiz-adv-x="1687" 
d="M1036 -420h-442l41 193h348q97 0 147.5 35t69.5 129l19 90h-719q-235 0 -329.5 40.5t-94.5 157.5q0 53 14 113l76 358q16 77 43.5 130t67.5 89t103 55.5t140 27.5t189 8h997l-238 -1112q-21 -98 -55 -160t-89.5 -96t-121.5 -46t-166 -12zM1257 211l129 602h-686
q-137 0 -191 -31.5t-75 -130.5l-59 -278q-6 -30 -6 -56q0 -61 45.5 -83.5t156.5 -22.5h686zM1171 1147h-272l51 250h273z" />
    <glyph glyph-name="Gcommaaccent" unicode="&#x122;" horiz-adv-x="1710" 
d="M1520 0h-1020q-236 0 -331 44t-95 165q0 55 14 115l150 706q17 79 43.5 133t67 92t102.5 59.5t141.5 30.5t193.5 9h1020l-41 -193h-946q-162 0 -228 -39t-89 -149l-125 -594q-8 -33 -8 -66q0 -69 54 -94.5t189 -25.5h678l84 393h-610l41 190h878zM686 -612h-86l16 77h37
q57 0 68 58l18 86h-153l55 268h287l-78 -362q-13 -61 -57.5 -94t-106.5 -33z" />
    <glyph glyph-name="gcommaaccent" unicode="&#x123;" horiz-adv-x="1687" 
d="M1036 -420h-442l41 193h348q97 0 147.5 35t69.5 129l19 90h-719q-235 0 -329.5 40.5t-94.5 157.5q0 53 14 113l76 358q16 77 43.5 130t67.5 89t103 55.5t140 27.5t189 8h997l-238 -1112q-21 -98 -55 -160t-89.5 -96t-121.5 -46t-166 -12zM1257 211l129 602h-686
q-137 0 -191 -31.5t-75 -130.5l-59 -278q-6 -30 -6 -56q0 -61 45.5 -83.5t156.5 -22.5h686zM1178 1147h-285l70 328q15 72 61 108.5t115 36.5h82l-17 -82h-35q-34 0 -51.5 -14.5t-23.5 -48.5l-15 -70h154z" />
    <glyph glyph-name="Hbar" unicode="&#x126;" horiz-adv-x="1726" 
d="M1534 0h-281l123 584h-944l-123 -584h-280l209 983h-78l26 129h78l51 242h281l-51 -242h944l51 242h281l-52 -242h80l-26 -129h-80zM473 776h944l45 207h-944z" />
    <glyph glyph-name="hbar" unicode="&#x127;" horiz-adv-x="1740" 
d="M1077 1280h-497l-82 -389q100 115 331 115h457q227 0 326.5 -45t99.5 -168q0 -53 -10 -97l-148 -696h-278l137 651q6 27 6 51q0 61 -49.5 86t-159.5 25h-534q-102 0 -153 -37.5t-74 -116.5l-140 -659h-280l299 1409h778z" />
    <glyph glyph-name="hbar" unicode="&#x45b;" horiz-adv-x="1740" 
d="M1077 1280h-497l-82 -389q100 115 331 115h457q227 0 326.5 -45t99.5 -168q0 -53 -10 -97l-148 -696h-278l137 651q6 27 6 51q0 61 -49.5 86t-159.5 25h-534q-102 0 -153 -37.5t-74 -116.5l-140 -659h-280l299 1409h778z" />
    <glyph glyph-name="Itilde" unicode="&#x128;" horiz-adv-x="626" 
d="M369 0h-279l287 1354h278zM766 1499q-58 0 -104 21.5t-77 51.5t-60 60.5t-67 52t-83 21.5q-52 0 -80.5 -31t-48.5 -116l-13 -54h-108l12 58q58 270 258 270q60 0 108 -21.5t79.5 -52t60 -61.5t66.5 -52.5t84 -21.5q49 0 81 33.5t48 116.5l10 53h108l-12 -60
q-29 -139 -94.5 -203.5t-167.5 -64.5z" />
    <glyph glyph-name="itilde" unicode="&#x129;" horiz-adv-x="622" 
d="M371 0h-283l213 1006h283zM698 1167q-58 0 -104.5 23t-77 55.5t-59.5 65t-66 55.5t-82 23q-52 0 -83.5 -35t-51.5 -123l-12 -57h-109l15 61q35 151 98 219t166 68q59 0 106 -23t77.5 -55.5t58.5 -65t65 -55.5t82 -23q52 0 82.5 35t50.5 125l12 58h109l-14 -66
q-32 -148 -96.5 -216.5t-166.5 -68.5z" />
    <glyph glyph-name="Imacron" unicode="&#x12a;" horiz-adv-x="598" 
d="M354 0h-278l286 1354h279zM829 1556h-622l22 130h623z" />
    <glyph glyph-name="imacron" unicode="&#x12b;" horiz-adv-x="563" 
d="M340 0h-283l213 1006h283zM735 1251h-622l22 129h623z" />
    <glyph glyph-name="Ibreve" unicode="&#x12c;" horiz-adv-x="581" 
d="M346 0h-278l286 1354h279zM571 1440h-114q-150 0 -214.5 32.5t-64.5 131.5q0 38 17 118l24 123h141l-26 -127q-8 -39 -8 -71q0 -55 34 -73t121 -18h115q103 0 148.5 32t66.5 130l27 127h141l-25 -123q-18 -88 -46 -143.5t-76.5 -86t-108 -41.5t-152.5 -11z" />
    <glyph glyph-name="ibreve" unicode="&#x12d;" horiz-adv-x="583" 
d="M350 0h-282l213 1006h282zM508 1133h-115q-151 0 -214.5 32.5t-63.5 132.5q0 54 14 117l35 162h141l-35 -166q-10 -48 -10 -72q0 -54 35.5 -72t122.5 -18h114q103 0 149 31t67 131l34 166h142l-35 -162q-19 -90 -47 -144.5t-75 -85.5t-106 -41.5t-153 -10.5z" />
    <glyph glyph-name="Iogonek" unicode="&#x12e;" horiz-adv-x="526" 
d="M203 -612h-248q-153 0 -227 36t-74 123q0 14 8 60l8 43q13 73 62.5 121t161.5 102l276 127h-115l287 1354h279l-287 -1354l-283 -147q-66 -35 -94 -66t-35 -68l-4 -28q-4 -24 -4 -31q0 -43 34 -61.5t105 -18.5h191z" />
    <glyph glyph-name="iogonek" unicode="&#x12f;" horiz-adv-x="569" 
d="M246 -612h-205q-153 0 -227 36t-74 123q0 14 8 60l8 43q13 74 64 126.5t160 110.5l231 113h-117l213 1006h283l-213 -1006l-238 -131q-67 -41 -94 -73.5t-37 -76.5l-6 -28q-4 -20 -4 -31q0 -43 35 -61.5t106 -18.5h148zM618 1147h-270l51 250h271z" />
    <glyph glyph-name="Idotaccent" unicode="&#x130;" horiz-adv-x="501" 
d="M307 0h-278l286 1354h279zM616 1475h-270l53 249h271z" />
    <glyph glyph-name="dotlessi" unicode="&#x131;" horiz-adv-x="503" 
d="M311 0h-282l213 1006h282z" />
    <glyph glyph-name="IJ" unicode="&#x132;" horiz-adv-x="1128" 
d="M322 76h-279l272 1278h279zM393 -309h-432l41 192h356q158 0 225 37t91 150l272 1284h281l-285 -1340q-17 -81 -45.5 -136t-69 -92.5t-104.5 -58t-141 -28.5t-189 -8z" />
    <glyph glyph-name="ij" unicode="&#x133;" horiz-adv-x="1052" 
d="M311 0h-282l213 1006h282zM549 1147h-273l52 250h272zM319 -420h-165l41 193h88q147 0 204.5 33t79.5 131l228 1069h280l-237 -1112q-17 -77 -44 -131t-66.5 -90t-99.5 -56.5t-132.5 -28.5t-176.5 -8zM1102 1147h-273l52 250h272z" />
    <glyph glyph-name="Kcommaaccent" unicode="&#x136;" horiz-adv-x="1726" 
d="M1550 0h-278l86 406q6 30 6 55q0 63 -44.5 92t-145.5 29h-744l-123 -582h-278l286 1354h279l-139 -656l1050 656h326l-965 -592h486q162 0 234.5 -49t72.5 -152q0 -52 -10 -96zM655 -612h-86l17 77h37q56 0 67 58l19 86h-154l55 268h287l-78 -362q-13 -61 -57.5 -94
t-106.5 -33z" />
    <glyph glyph-name="kcommaaccent" unicode="&#x137;" horiz-adv-x="1701" 
d="M1550 0h-278l59 281q6 30 6 53q0 57 -36 82.5t-119 25.5h-783l-92 -442h-278l286 1354h279l-174 -817l872 469h330l-745 -390h432q317 0 317 -223q0 -32 -10 -84zM664 -612h-86l16 77h37q56 0 67 58l19 86h-154l55 268h287l-78 -362q-13 -61 -57 -94t-106 -33z" />
    <glyph glyph-name="Lacute" unicode="&#x139;" horiz-adv-x="1294" 
d="M1157 0h-1128l286 1354h281l-248 -1161h848zM1028 1845l-442 -391h-203l399 391h246z" />
    <glyph glyph-name="lacute" unicode="&#x13a;" horiz-adv-x="514" 
d="M307 0h-278l286 1354h279zM952 1845l-442 -391h-203l400 391h245z" />
    <glyph glyph-name="Lcommaaccent" unicode="&#x13b;" horiz-adv-x="1294" 
d="M1157 0h-1128l286 1354h281l-248 -1161h848zM467 -612h-86l16 77h37q57 0 68 58l18 86h-153l55 268h287l-78 -362q-13 -61 -57.5 -94t-106.5 -33z" />
    <glyph glyph-name="lcommaaccent" unicode="&#x13c;" horiz-adv-x="501" 
d="M307 0h-278l286 1354h279zM43 -612h-86l16 77h37q57 0 68 58l18 86h-153l55 268h287l-78 -362q-13 -61 -57.5 -94t-106.5 -33z" />
    <glyph glyph-name="Lcaron" unicode="&#x13d;" horiz-adv-x="1294" 
d="M1157 0h-1128l286 1354h281l-248 -1161h848zM1194 881h-84l18 82h37q33 0 48.5 14t23.5 49l16 70h-153l53 258h287l-70 -330q-15 -69 -62 -106t-114 -37z" />
    <glyph glyph-name="lcaron" unicode="&#x13e;" horiz-adv-x="741" 
d="M307 0h-278l286 1354h279zM688 881h-84l19 82h36q33 0 48.5 14t23.5 49l17 70h-154l53 258h287l-70 -330q-15 -69 -62 -106t-114 -37z" />
    <glyph glyph-name="Lslash" unicode="&#x141;" horiz-adv-x="1294" 
d="M1157 0h-1128l286 1354h281l-125 -588l700 260l-38 -186l-703 -269l-82 -378h848z" />
    <glyph glyph-name="lslash" unicode="&#x142;" horiz-adv-x="643" 
d="M377 0h-279l129 612l-182 -67l33 157l182 68l125 584h279l-101 -469l189 69l-35 -161l-187 -70z" />
    <glyph glyph-name="Nacute" unicode="&#x143;" horiz-adv-x="1703" 
d="M1509 0h-276l-729 987l-209 -987h-266l286 1354h295l703 -1010l215 1010h268zM1499 1845l-442 -391h-203l399 391h246z" />
    <glyph glyph-name="nacute" unicode="&#x144;" horiz-adv-x="1740" 
d="M1210 813h-534q-102 0 -153 -37.5t-74 -116.5l-140 -659h-280l213 1006h280l-24 -115q100 115 331 115h457q227 0 326.5 -45t99.5 -168q0 -53 -10 -97l-148 -696h-278l137 651q6 27 6 51q0 61 -49.5 86t-159.5 25zM1487 1579l-490 -473h-202l444 473h248z" />
    <glyph glyph-name="Ncommaaccent" unicode="&#x145;" horiz-adv-x="1703" 
d="M1509 0h-276l-729 987l-209 -987h-266l286 1354h295l703 -1010l215 1010h268zM641 -612h-86l16 77h37q57 0 68 58l18 86h-153l55 268h287l-78 -362q-13 -61 -57.5 -94t-106.5 -33z" />
    <glyph glyph-name="ncommaaccent" unicode="&#x146;" horiz-adv-x="1740" 
d="M1210 813h-534q-102 0 -153 -37.5t-74 -116.5l-140 -659h-280l213 1006h280l-24 -115q100 115 331 115h457q227 0 326.5 -45t99.5 -168q0 -53 -10 -97l-148 -696h-278l137 651q6 27 6 51q0 61 -49.5 86t-159.5 25zM670 -612h-86l16 77h37q57 0 68 58l18 86h-154l56 268
h286l-77 -362q-13 -61 -57.5 -94t-106.5 -33z" />
    <glyph glyph-name="Ncaron" unicode="&#x147;" horiz-adv-x="1703" 
d="M1509 0h-276l-729 987l-209 -987h-266l286 1354h295l703 -1010l215 1010h268zM709 1845h178l209 -289l327 289h181l-408 -391h-246z" />
    <glyph glyph-name="ncaron" unicode="&#x148;" horiz-adv-x="1740" 
d="M1210 813h-534q-102 0 -153 -37.5t-74 -116.5l-140 -659h-280l213 1006h280l-24 -115q100 115 331 115h457q227 0 326.5 -45t99.5 -168q0 -53 -10 -97l-148 -696h-278l137 651q6 27 6 51q0 61 -49.5 86t-159.5 25zM682 1579h178l195 -365l342 365h180l-426 -473h-246z
" />
    <glyph glyph-name="Eng" unicode="&#x14a;" horiz-adv-x="1726" 
d="M1751 1030l-238 -1124q-17 -81 -45.5 -136.5t-69.5 -93t-104.5 -58.5t-140.5 -29.5t-188 -8.5h-271l41 193h193q167 0 229.5 35t85.5 141l221 1036q6 30 6 57q0 65 -48 91t-158 26h-512q-102 0 -153.5 -36.5t-74.5 -116.5l-213 -1006h-280l286 1354h281l-25 -115
q100 115 332 115h434q225 0 324.5 -47.5t99.5 -173.5q0 -45 -12 -103z" />
    <glyph glyph-name="eng" unicode="&#x14b;" horiz-adv-x="1740" 
d="M1702 696l-172 -802q-17 -77 -44 -131t-66.5 -90t-99.5 -56.5t-132 -28.5t-176 -8h-166l41 193h88q148 0 206.5 33t80.5 131l151 714q6 27 6 51q0 61 -49.5 86t-159.5 25h-534q-102 0 -153 -37.5t-74 -116.5l-140 -659h-280l213 1006h280l-24 -115q100 115 331 115h457
q227 0 326.5 -45t99.5 -168q0 -53 -10 -97z" />
    <glyph glyph-name="Omacron" unicode="&#x14c;" horiz-adv-x="1794" 
d="M1130 0h-632q-234 0 -329 42.5t-95 164.5q0 54 14 117l150 706q17 82 45.5 137.5t68.5 93t104 57.5t140 28t188 8h633q235 0 330.5 -42t95.5 -165q0 -38 -14 -117l-150 -706q-17 -82 -45.5 -137.5t-68.5 -93t-104 -57.5t-141 -28t-190 -8zM1415 379l125 594q8 36 8 67
q0 70 -54.5 95.5t-188.5 25.5h-486q-158 0 -224.5 -37t-90.5 -151l-125 -594q-8 -36 -8 -70q0 -68 53 -92t188 -24h486q160 0 226.5 37t90.5 149zM1534 1556h-778l28 130h779z" />
    <glyph glyph-name="omacron" unicode="&#x14d;" horiz-adv-x="1751" 
d="M586 193h493q138 0 195 30.5t78 128.5l63 299q6 27 6 51q0 61 -49.5 86t-159.5 25h-493q-131 0 -192 -35t-81 -127l-63 -299q-8 -46 -8 -59q0 -60 46.5 -80t164.5 -20zM1075 0h-563q-236 0 -333 41t-97 162q0 45 12 106l82 387q16 77 44.5 130t69.5 88.5t105.5 55.5
t141.5 28t188 8h563q234 0 332 -43.5t98 -163.5q0 -45 -12 -103l-82 -387q-17 -79 -45.5 -132.5t-69.5 -88.5t-105.5 -54t-140.5 -26.5t-188 -7.5zM1448 1251h-778l28 129h779z" />
    <glyph glyph-name="Obreve" unicode="&#x14e;" horiz-adv-x="1794" 
d="M1130 0h-632q-234 0 -329 42.5t-95 164.5q0 54 14 117l150 706q17 82 45.5 137.5t68.5 93t104 57.5t140 28t188 8h633q235 0 330.5 -42t95.5 -165q0 -38 -14 -117l-150 -706q-17 -82 -45.5 -137.5t-68.5 -93t-104 -57.5t-141 -28t-190 -8zM1415 379l125 594q8 36 8 67
q0 70 -54.5 95.5t-188.5 25.5h-486q-158 0 -224.5 -37t-90.5 -151l-125 -594q-8 -36 -8 -70q0 -68 53 -92t188 -24h486q160 0 226.5 37t90.5 149zM1178 1440h-115q-150 0 -214.5 32.5t-64.5 131.5q0 38 17 118l24 123h142l-27 -127q-8 -39 -8 -71q0 -55 34 -73t121 -18h115
q103 0 148.5 32t66.5 130l27 127h141l-24 -123q-18 -88 -46 -143.5t-76.5 -86t-108 -41.5t-152.5 -11z" />
    <glyph glyph-name="obreve" unicode="&#x14f;" horiz-adv-x="1751" 
d="M586 193h493q138 0 195 30.5t78 128.5l63 299q6 27 6 51q0 61 -49.5 86t-159.5 25h-493q-131 0 -192 -35t-81 -127l-63 -299q-8 -46 -8 -59q0 -60 46.5 -80t164.5 -20zM1075 0h-563q-236 0 -333 41t-97 162q0 45 12 106l82 387q16 77 44.5 130t69.5 88.5t105.5 55.5
t141.5 28t188 8h563q234 0 332 -43.5t98 -163.5q0 -45 -12 -103l-82 -387q-17 -79 -45.5 -132.5t-69.5 -88.5t-105.5 -54t-140.5 -26.5t-188 -7.5zM1092 1133h-115q-151 0 -215 32.5t-64 132.5q0 50 15 117l35 162h141l-35 -166q-10 -48 -10 -72q0 -54 35 -72t122 -18h115
q103 0 148.5 31t66.5 131l35 166h141l-34 -162q-19 -90 -47 -144.5t-75 -85.5t-106 -41.5t-153 -10.5z" />
    <glyph glyph-name="Ohungarumlaut" unicode="&#x150;" horiz-adv-x="1794" 
d="M1130 0h-632q-234 0 -329 42.5t-95 164.5q0 54 14 117l150 706q17 82 45.5 137.5t68.5 93t104 57.5t140 28t188 8h633q235 0 330.5 -42t95.5 -165q0 -38 -14 -117l-150 -706q-17 -82 -45.5 -137.5t-68.5 -93t-104 -57.5t-141 -28t-190 -8zM1415 379l125 594q8 36 8 67
q0 70 -54.5 95.5t-188.5 25.5h-486q-158 0 -224.5 -37t-90.5 -151l-125 -594q-8 -36 -8 -70q0 -68 53 -92t188 -24h486q160 0 226.5 37t90.5 149zM1782 1845l-436 -391h-199l405 391h230zM1280 1845l-420 -391h-188l387 391h221z" />
    <glyph glyph-name="ohungarumlaut" unicode="&#x151;" horiz-adv-x="1751" 
d="M586 193h493q138 0 195 30.5t78 128.5l63 299q6 27 6 51q0 61 -49.5 86t-159.5 25h-493q-131 0 -192 -35t-81 -127l-63 -299q-8 -46 -8 -59q0 -60 46.5 -80t164.5 -20zM1075 0h-563q-236 0 -333 41t-97 162q0 45 12 106l82 387q16 77 44.5 130t69.5 88.5t105.5 55.5
t141.5 28t188 8h563q234 0 332 -43.5t98 -163.5q0 -45 -12 -103l-82 -387q-17 -79 -45.5 -132.5t-69.5 -88.5t-105.5 -54t-140.5 -26.5t-188 -7.5zM1737 1579l-484 -473h-198l450 473h232zM1194 1579l-465 -473h-188l432 473h221z" />
    <glyph glyph-name="OE" unicode="&#x152;" horiz-adv-x="2717" 
d="M2554 0h-2056q-234 0 -329 42.5t-95 164.5q0 54 14 117l150 706q17 82 45.5 137.5t68.5 93t104 57.5t140 28t188 8h2057l-41 -193h-1092l-84 -391h635l-37 -182h-635l-86 -395h1092zM1219 193l206 968h-606q-158 0 -224.5 -37t-90.5 -151l-125 -594q-8 -36 -8 -70
q0 -68 53 -92t188 -24h607z" />
    <glyph glyph-name="oe" unicode="&#x153;" horiz-adv-x="2408" 
d="M2183 0h-1671q-236 0 -333 41t-97 162q0 45 12 106l82 387q16 77 44.5 130t69.5 88.5t105.5 55.5t141.5 28t188 8h1389q154 0 224 -45t70 -140q0 -34 -10 -82l-20 -94q-21 -97 -58.5 -147.5t-105 -71t-189.5 -20.5h-684l-49 -228h928zM383 352q-8 -46 -8 -59
q0 -60 46.5 -80t164.5 -20h444l135 632h-444q-131 0 -191.5 -34.5t-80.5 -126.5zM1968 825h-538l-64 -297h557q90 0 127.5 23.5t54.5 91.5l13 51q4 24 4 37q0 48 -36.5 71t-117.5 23z" />
    <glyph glyph-name="Racute" unicode="&#x154;" horiz-adv-x="1697" 
d="M1530 0h-279l76 365q8 50 8 63q0 54 -32.5 77t-104.5 23h-780l-111 -528h-278l286 1354h1059q213 0 297 -44t84 -153q0 -49 -16 -127l-39 -188q-38 -183 -187 -226q47 -12 77 -48.5t30 -102.5q0 -38 -8 -74zM1432 860l24 119q10 48 10 74q0 59 -44.5 83.5t-155.5 24.5
h-713l-96 -456h794q82 0 122.5 36t58.5 119zM1503 1845l-442 -391h-203l399 391h246z" />
    <glyph glyph-name="racute" unicode="&#x155;" horiz-adv-x="1269" 
d="M307 0h-278l213 1006h278l-24 -115q20 22 39.5 37t58 35.5t98.5 31.5t137 11h514l-40 -193h-639q-93 0 -144 -38.5t-74 -115.5zM1290 1579l-489 -473h-203l444 473h248z" />
    <glyph glyph-name="Rcommaaccent" unicode="&#x156;" horiz-adv-x="1697" 
d="M1530 0h-279l76 365q8 50 8 63q0 54 -32.5 77t-104.5 23h-780l-111 -528h-278l286 1354h1059q213 0 297 -44t84 -153q0 -49 -16 -127l-39 -188q-38 -183 -187 -226q47 -12 77 -48.5t30 -102.5q0 -38 -8 -74zM1432 860l24 119q10 48 10 74q0 59 -44.5 83.5t-155.5 24.5
h-713l-96 -456h794q82 0 122.5 36t58.5 119zM635 -612h-86l16 77h37q57 0 68 58l18 86h-153l55 268h287l-78 -362q-13 -61 -57.5 -94t-106.5 -33z" />
    <glyph glyph-name="rcommaaccent" unicode="&#x157;" horiz-adv-x="1269" 
d="M307 0h-278l213 1006h278l-24 -115q20 22 39.5 37t58 35.5t98.5 31.5t137 11h514l-40 -193h-639q-93 0 -144 -38.5t-74 -115.5zM43 -612h-86l16 77h37q57 0 68 58l18 86h-153l55 268h287l-78 -362q-13 -61 -57.5 -94t-106.5 -33z" />
    <glyph glyph-name="Rcaron" unicode="&#x158;" horiz-adv-x="1697" 
d="M1530 0h-279l76 365q8 50 8 63q0 54 -32.5 77t-104.5 23h-780l-111 -528h-278l286 1354h1059q213 0 297 -44t84 -153q0 -49 -16 -127l-39 -188q-38 -183 -187 -226q47 -12 77 -48.5t30 -102.5q0 -38 -8 -74zM1432 860l24 119q10 48 10 74q0 59 -44.5 83.5t-155.5 24.5
h-713l-96 -456h794q82 0 122.5 36t58.5 119zM715 1845h178l209 -289l328 289h180l-408 -391h-246z" />
    <glyph glyph-name="rcaron" unicode="&#x159;" horiz-adv-x="1269" 
d="M307 0h-278l213 1006h278l-24 -115q20 22 39.5 37t58 35.5t98.5 31.5t137 11h514l-40 -193h-639q-93 0 -144 -38.5t-74 -115.5zM487 1579h179l194 -365l342 365h180l-426 -473h-245z" />
    <glyph glyph-name="Sacute" unicode="&#x15a;" horiz-adv-x="1658" 
d="M1135 0h-1123l39 193h1061q95 0 139 33t62 114l22 113q4 28 4 36q0 95 -125 95h-759q-139 0 -212 51.5t-73 144.5q0 16 8 62l47 221q18 83 45 135.5t78 89t127 51.5t191 15h1038l-41 -193h-983q-100 0 -142.5 -33t-60.5 -114l-24 -109q-4 -24 -4 -35q0 -96 131 -96h753
q283 0 283 -203q0 -39 -8 -75l-43 -203q-34 -159 -129.5 -226t-300.5 -67zM1483 1845l-443 -391h-202l399 391h246z" />
    <glyph glyph-name="sacute" unicode="&#x15b;" horiz-adv-x="1687" 
d="M608 563h643q191 0 269.5 -39t78.5 -133q0 -28 -10 -80l-10 -49q-32 -153 -126 -207.5t-320 -54.5h-1129l37 178h1038q120 0 169.5 23.5t64.5 93.5l6 29q4 28 4 36q0 48 -42 65t-146 17h-654q-183 0 -263.5 38t-80.5 134q0 38 8 74l15 68q31 146 130.5 198t319.5 52h1030
l-38 -181h-938q-122 0 -169.5 -22.5t-64.5 -93.5l-6 -27q-4 -14 -4 -37q0 -48 41.5 -65t146.5 -17zM1458 1579l-489 -473h-203l444 473h248z" />
    <glyph glyph-name="Scedilla" unicode="&#x15e;" horiz-adv-x="1658" 
d="M1135 0h-1123l39 193h1061q95 0 139 33t62 114l22 113q4 28 4 36q0 95 -125 95h-759q-139 0 -212 51.5t-73 144.5q0 16 8 62l47 221q18 83 45 135.5t78 89t127 51.5t191 15h1038l-41 -193h-983q-100 0 -142.5 -33t-60.5 -114l-24 -109q-4 -24 -4 -35q0 -96 131 -96h753
q283 0 283 -203q0 -39 -8 -75l-43 -203q-34 -159 -129.5 -226t-300.5 -67zM625 -612h-86l16 77h37q56 0 67 58l19 86h-154l56 268h286l-78 -362q-13 -61 -57 -94t-106 -33z" />
    <glyph glyph-name="scedilla" unicode="&#x15f;" horiz-adv-x="1687" 
d="M608 563h643q191 0 269.5 -39t78.5 -133q0 -28 -10 -80l-10 -49q-32 -153 -126 -207.5t-320 -54.5h-1129l37 178h1038q120 0 169.5 23.5t64.5 93.5l6 29q4 28 4 36q0 48 -42 65t-146 17h-654q-183 0 -263.5 38t-80.5 134q0 38 8 74l15 68q31 146 130.5 198t319.5 52h1030
l-38 -181h-938q-122 0 -169.5 -22.5t-64.5 -93.5l-6 -27q-4 -14 -4 -37q0 -48 41.5 -65t146.5 -17zM643 -612h-86l16 77h37q57 0 68 58l18 86h-153l55 268h287l-78 -362q-13 -61 -57.5 -94t-106.5 -33z" />
    <glyph glyph-name="Scaron" unicode="&#x160;" horiz-adv-x="1658" 
d="M1135 0h-1123l39 193h1061q95 0 139 33t62 114l22 113q4 28 4 36q0 95 -125 95h-759q-139 0 -212 51.5t-73 144.5q0 16 8 62l47 221q18 83 45 135.5t78 89t127 51.5t191 15h1038l-41 -193h-983q-100 0 -142.5 -33t-60.5 -114l-24 -109q-4 -24 -4 -35q0 -96 131 -96h753
q283 0 283 -203q0 -39 -8 -75l-43 -203q-34 -159 -129.5 -226t-300.5 -67zM692 1845h178l209 -289l328 289h180l-407 -391h-246z" />
    <glyph glyph-name="scaron" unicode="&#x161;" horiz-adv-x="1687" 
d="M608 563h643q191 0 269.5 -39t78.5 -133q0 -28 -10 -80l-10 -49q-32 -153 -126 -207.5t-320 -54.5h-1129l37 178h1038q120 0 169.5 23.5t64.5 93.5l6 29q4 28 4 36q0 48 -42 65t-146 17h-654q-183 0 -263.5 38t-80.5 134q0 38 8 74l15 68q31 146 130.5 198t319.5 52h1030
l-38 -181h-938q-122 0 -169.5 -22.5t-64.5 -93.5l-6 -27q-4 -14 -4 -37q0 -48 41.5 -65t146.5 -17zM655 1579h179l194 -365l342 365h180l-426 -473h-245z" />
    <glyph glyph-name="Tcedilla" unicode="&#x162;" horiz-adv-x="1495" 
d="M807 0h-279l246 1161h-557l41 193h1387l-41 -193h-551zM541 -612h-86l16 77h37q56 0 67 58l19 86h-154l56 268h286l-77 -362q-13 -61 -57.5 -94t-106.5 -33z" />
    <glyph glyph-name="Tcedilla" unicode="&#x21a;" horiz-adv-x="1495" 
d="M807 0h-279l246 1161h-557l41 193h1387l-41 -193h-551zM541 -612h-86l16 77h37q56 0 67 58l19 86h-154l56 268h286l-77 -362q-13 -61 -57.5 -94t-106.5 -33z" />
    <glyph glyph-name="tcedilla" unicode="&#x163;" horiz-adv-x="989" 
d="M856 0h-348q-234 0 -330 43t-96 162q0 45 12 104l209 989h281l-62 -292h436l-38 -183h-437l-100 -471q-8 -31 -8 -59q0 -58 47.5 -79t163.5 -21h309zM301 -612h-86l16 77h37q57 0 68 58l18 86h-153l55 268h287l-78 -362q-13 -61 -57.5 -94t-106.5 -33z" />
    <glyph glyph-name="tcedilla" unicode="&#x21b;" horiz-adv-x="989" 
d="M856 0h-348q-234 0 -330 43t-96 162q0 45 12 104l209 989h281l-62 -292h436l-38 -183h-437l-100 -471q-8 -31 -8 -59q0 -58 47.5 -79t163.5 -21h309zM301 -612h-86l16 77h37q57 0 68 58l18 86h-153l55 268h287l-78 -362q-13 -61 -57.5 -94t-106.5 -33z" />
    <glyph glyph-name="Tcaron" unicode="&#x164;" horiz-adv-x="1495" 
d="M807 0h-279l246 1161h-557l41 193h1387l-41 -193h-551zM610 1845h178l209 -289l328 289h180l-407 -391h-246z" />
    <glyph glyph-name="tcaron" unicode="&#x165;" horiz-adv-x="1142" 
d="M856 0h-348q-234 0 -330 43t-96 162q0 45 12 104l209 989h281l-62 -292h436l-38 -183h-437l-100 -471q-8 -31 -8 -59q0 -58 47.5 -79t163.5 -21h309zM1090 881h-84l18 82h37q33 0 48.5 14t23.5 49l16 70h-154l54 258h286l-69 -330q-15 -69 -62 -106t-114 -37z" />
    <glyph glyph-name="Tbar" unicode="&#x166;" horiz-adv-x="1495" 
d="M807 0h-279l129 614h-325l28 129h326l88 418h-557l41 193h1387l-41 -193h-551l-88 -418h317l-29 -129h-317z" />
    <glyph glyph-name="tbar" unicode="&#x167;" horiz-adv-x="989" 
d="M950 453h-547l-20 -101q-8 -31 -8 -59q0 -58 47.5 -79t163.5 -21h309l-39 -193h-348q-234 0 -330 43t-96 162q0 45 12 104l209 989h281l-62 -292h436l-38 -183h-437l-51 -241h547z" />
    <glyph glyph-name="Utilde" unicode="&#x168;" horiz-adv-x="1789" 
d="M1124 0h-620q-236 0 -332 43t-96 166q0 55 14 115l219 1030h281l-207 -975q-8 -36 -8 -68q0 -69 54 -93.5t189 -24.5h472q161 0 225 37t88 149l207 975h278l-219 -1030q-17 -81 -44.5 -135.5t-67.5 -92.5t-102.5 -58.5t-140 -29t-190.5 -8.5zM1350 1499q-58 0 -104 21.5
t-77 51.5t-60.5 60.5t-67.5 52t-83 21.5q-52 0 -80.5 -31t-48.5 -116l-12 -54h-108l12 58q58 270 258 270q60 0 108 -21.5t79 -52t59.5 -61.5t66.5 -52.5t84 -21.5q49 0 81 33.5t48 116.5l11 53h108l-12 -60q-29 -139 -94.5 -203.5t-167.5 -64.5z" />
    <glyph glyph-name="utilde" unicode="&#x169;" horiz-adv-x="1714" 
d="M578 193h503q104 0 155.5 36.5t74.5 116.5l141 660h279l-213 -1006h-279l23 115q-100 -115 -332 -115h-426q-227 0 -327.5 46t-100.5 167q0 43 12 96l148 697h278l-139 -652q-6 -27 -6 -51q0 -62 48.5 -86t160.5 -24zM1243 1167q-58 0 -104.5 23t-77 55.5t-59.5 65
t-66 55.5t-82 23q-52 0 -83.5 -35t-51.5 -123l-12 -57h-109l14 61q35 150 98.5 218.5t166.5 68.5q59 0 106 -23t77.5 -55.5t58.5 -65t65 -55.5t82 -23q52 0 82.5 35t50.5 125l12 58h109l-15 -66q-32 -148 -96.5 -216.5t-165.5 -68.5z" />
    <glyph glyph-name="Umacron" unicode="&#x16a;" horiz-adv-x="1789" 
d="M1124 0h-620q-236 0 -332 43t-96 166q0 55 14 115l219 1030h281l-207 -975q-8 -36 -8 -68q0 -69 54 -93.5t189 -24.5h472q161 0 225 37t88 149l207 975h278l-219 -1030q-17 -81 -44.5 -135.5t-67.5 -92.5t-102.5 -58.5t-140 -29t-190.5 -8.5zM1532 1556h-778l28 130h779z
" />
    <glyph glyph-name="umacron" unicode="&#x16b;" horiz-adv-x="1714" 
d="M578 193h503q104 0 155.5 36.5t74.5 116.5l141 660h279l-213 -1006h-279l23 115q-100 -115 -332 -115h-426q-227 0 -327.5 46t-100.5 167q0 43 12 96l148 697h278l-139 -652q-6 -27 -6 -51q0 -62 48.5 -86t160.5 -24zM1427 1251h-778l29 129h778z" />
    <glyph glyph-name="Uring" unicode="&#x16e;" horiz-adv-x="1789" 
d="M1124 0h-620q-236 0 -332 43t-96 166q0 55 14 115l219 1030h281l-207 -975q-8 -36 -8 -68q0 -69 54 -93.5t189 -24.5h472q161 0 225 37t88 149l207 975h278l-219 -1030q-17 -81 -44.5 -135.5t-67.5 -92.5t-102.5 -58.5t-140 -29t-190.5 -8.5zM1149 1382h-88
q-124 0 -174.5 22.5t-50.5 90.5q0 15 8 61l26 121q23 103 81.5 135.5t207.5 32.5h88q126 0 176 -22t50 -86q0 -20 -7 -60l-26 -121q-24 -105 -84.5 -139.5t-206.5 -34.5zM1325 1571l18 90q5 30 5 33q0 31 -26.5 42t-94.5 11h-88q-82 0 -114 -16.5t-42 -69.5l-18 -90
q-4 -24 -4 -33q0 -35 26.5 -46t95.5 -11h88q79 0 110.5 17.5t43.5 72.5z" />
    <glyph glyph-name="uring" unicode="&#x16f;" horiz-adv-x="1714" 
d="M578 193h503q104 0 155.5 36.5t74.5 116.5l141 660h279l-213 -1006h-279l23 115q-100 -115 -332 -115h-426q-227 0 -327.5 46t-100.5 167q0 43 12 96l148 697h278l-139 -652q-6 -27 -6 -51q0 -62 48.5 -86t160.5 -24zM1044 1063h-90q-122 0 -173.5 22t-51.5 89q0 30 8 63
l37 174q23 103 82.5 135.5t206.5 32.5h90q125 0 175 -23t50 -88q0 -22 -6 -57l-37 -174q-23 -104 -84.5 -139t-206.5 -35zM1221 1253l28 142q4 24 4 32q0 33 -27 43.5t-96 10.5h-86q-83 0 -114 -16.5t-41 -69.5l-29 -142q-4 -28 -4 -34q0 -34 27 -46t94 -12h86q80 0 113 18
t45 74z" />
    <glyph glyph-name="Uhungarumlaut" unicode="&#x170;" horiz-adv-x="1789" 
d="M1124 0h-620q-236 0 -332 43t-96 166q0 55 14 115l219 1030h281l-207 -975q-8 -36 -8 -68q0 -69 54 -93.5t189 -24.5h472q161 0 225 37t88 149l207 975h278l-219 -1030q-17 -81 -44.5 -135.5t-67.5 -92.5t-102.5 -58.5t-140 -29t-190.5 -8.5zM1778 1845l-437 -391h-198
l405 391h230zM1276 1845l-420 -391h-188l387 391h221z" />
    <glyph glyph-name="uhungarumlaut" unicode="&#x171;" horiz-adv-x="1714" 
d="M578 193h503q104 0 155.5 36.5t74.5 116.5l141 660h279l-213 -1006h-279l23 115q-100 -115 -332 -115h-426q-227 0 -327.5 46t-100.5 167q0 43 12 96l148 697h278l-139 -652q-6 -27 -6 -51q0 -62 48.5 -86t160.5 -24zM1716 1579l-483 -473h-199l451 473h231zM1174 1579
l-465 -473h-189l432 473h222z" />
    <glyph glyph-name="Uogonek" unicode="&#x172;" horiz-adv-x="1789" 
d="M1012 -612h-250q-153 0 -228 36t-75 123q0 14 8 60l8 43q13 73 62 120t163 103l271 127h-467q-236 0 -332 43t-96 166q0 55 14 115l219 1030h281l-207 -975q-8 -36 -8 -68q0 -69 54 -93.5t189 -24.5h472q161 0 225 37t88 149l207 975h278l-219 -1030
q-17 -79 -43.5 -133.5t-66 -92t-100 -58.5t-135.5 -30t-183 -10l-281 -147q-68 -36 -95.5 -66t-35.5 -68l-6 -28q-4 -20 -4 -31q0 -43 35 -61.5t108 -18.5h191z" />
    <glyph glyph-name="uogonek" unicode="&#x173;" horiz-adv-x="1714" 
d="M1389 -612h-250q-153 0 -228 36t-75 123q0 14 8 60l8 43q13 73 62.5 121t162.5 102l275 127h-113l23 115q-100 -115 -332 -115h-426q-227 0 -327.5 46t-100.5 167q0 43 12 96l148 697h278l-139 -652q-6 -27 -6 -51q0 -62 48.5 -86t160.5 -24h503q104 0 155.5 36.5
t74.5 116.5l141 660h279l-213 -1006l-281 -147q-68 -36 -95.5 -66t-35.5 -68l-6 -28q-4 -20 -4 -31q0 -43 35 -61.5t108 -18.5h191z" />
    <glyph glyph-name="Wcircumflex" unicode="&#x174;" horiz-adv-x="2535" 
d="M1907 0h-336l-172 1026l-600 -1026h-336l-221 1354h299l155 -1106l645 1106h285l170 -1106l629 1106h278zM1939 1454h-178l-209 287l-327 -287h-181l408 391h246z" />
    <glyph glyph-name="wcircumflex" unicode="&#x175;" horiz-adv-x="2471" 
d="M1882 0h-354l-215 762l-533 -762h-354l-258 1006h301l190 -820l570 820h297l217 -820l543 820h280zM1833 1106h-178l-193 367l-344 -367h-180l426 473h246z" />
    <glyph glyph-name="Ycircumflex" unicode="&#x176;" horiz-adv-x="1601" 
d="M858 0h-278l116 553l-465 801h326l322 -604l581 604h318l-803 -801zM1475 1454h-179l-209 287l-327 -287h-180l407 391h246z" />
    <glyph glyph-name="ycircumflex" unicode="&#x177;" horiz-adv-x="1667" 
d="M1016 -420h-422l41 193h328q98 0 147.5 34.5t69.5 129.5l18 90h-698q-235 0 -329.5 40.5t-94.5 157.5q0 53 14 113l141 668h279l-135 -633q-6 -30 -6 -56q0 -61 45.5 -83.5t156.5 -22.5h666l170 795h281l-238 -1112q-21 -98 -55 -160t-90 -96t-122 -46t-167 -12z
M1442 1106h-178l-193 367l-344 -367h-180l426 473h246z" />
    <glyph glyph-name="Ydieresis" unicode="&#x178;" horiz-adv-x="1601" 
d="M858 0h-278l116 553l-465 801h326l322 -604l581 604h318l-803 -801zM1479 1475h-271l54 249h270zM856 1475h-270l53 249h270z" />
    <glyph glyph-name="Ydieresis" unicode="&#x3ab;" horiz-adv-x="1601" 
d="M858 0h-278l116 553l-465 801h326l322 -604l581 604h318l-803 -801zM1479 1475h-271l54 249h270zM856 1475h-270l53 249h270z" />
    <glyph glyph-name="Zacute" unicode="&#x179;" horiz-adv-x="1492" 
d="M1335 0h-1341l29 137l1173 1024h-956l41 193h1341l-33 -152l-1143 -1009h928zM1407 1845l-442 -391h-203l399 391h246z" />
    <glyph glyph-name="zacute" unicode="&#x17a;" horiz-adv-x="1523" 
d="M1346 0h-1332l41 197l1061 612h-930l43 197h1315l-39 -181l-1030 -628h911zM1378 1579l-489 -473h-203l444 473h248z" />
    <glyph glyph-name="Zdotaccent" unicode="&#x17b;" horiz-adv-x="1492" 
d="M1335 0h-1341l29 137l1173 1024h-956l41 193h1341l-33 -152l-1143 -1009h928zM1122 1475h-270l53 249h271z" />
    <glyph glyph-name="zdotaccent" unicode="&#x17c;" horiz-adv-x="1523" 
d="M1346 0h-1332l41 197l1061 612h-930l43 197h1315l-39 -181l-1030 -628h911zM1067 1147h-272l51 250h272z" />
    <glyph glyph-name="Zcaron" unicode="&#x17d;" horiz-adv-x="1492" 
d="M1335 0h-1341l29 137l1173 1024h-956l41 193h1341l-33 -152l-1143 -1009h928zM618 1845h179l209 -289l327 289h180l-407 -391h-246z" />
    <glyph glyph-name="zcaron" unicode="&#x17e;" horiz-adv-x="1523" 
d="M1346 0h-1332l41 197l1061 612h-930l43 197h1315l-39 -181l-1030 -628h911zM573 1579h179l194 -365l342 365h180l-426 -473h-245z" />
    <glyph glyph-name="uni0180" unicode="&#x180;" horiz-adv-x="1689" 
d="M1077 1280h-497l-58 -274h719q229 0 327.5 -44t98.5 -165q0 -45 -12 -101l-82 -387q-14 -65 -34.5 -112.5t-52.5 -82.5t-72 -56.5t-99 -34.5t-126 -18t-161 -5h-999l299 1409h778zM1300 352l62 293q6 30 6 55q0 63 -50.5 88t-164.5 25h-672l-133 -620h672q141 0 200.5 32
t79.5 127z" />
    <glyph glyph-name="uni018E" unicode="&#x18e;" horiz-adv-x="1638" 
d="M285 1354h1448l-287 -1354h-1448l39 193h1167l84 389h-710l38 182h711l84 397h-1167z" />
    <glyph glyph-name="uni018F" unicode="&#x18f;" horiz-adv-x="1794" 
d="M672 846h839l27 127q8 50 8 63q0 70 -56 97.5t-185 27.5h-963l41 193h1036q234 0 330 -43.5t96 -165.5q0 -40 -14 -115l-150 -706q-21 -100 -57.5 -162t-103.5 -98.5t-156.5 -50t-230.5 -13.5h-639q-236 0 -332 43.5t-96 167.5q0 53 14 113l43 198q17 81 45 136t68 92.5
t103.5 58t141 29t191.5 8.5zM1098 193q156 0 224 39.5t91 146.5l60 276h-799q-140 0 -202 -35.5t-85 -136.5l-27 -118q-6 -34 -6 -60q0 -65 49.5 -88.5t169.5 -23.5h525z" />
    <glyph glyph-name="florin" unicode="&#x192;" horiz-adv-x="978" 
d="M481 817l-196 -923q-17 -77 -44 -131t-66.5 -90t-99.5 -56.5t-132 -28.5t-176 -8h-166l41 193h88q147 0 204.5 33t79.5 131l234 1103q17 79 45.5 133.5t69.5 90t105.5 55.5t141 27.5t187.5 7.5h348l-33 -158h-293q-154 0 -211 -30.5t-80 -131.5l-14 -61h549l-33 -156
h-549z" />
    <glyph glyph-name="uni0194" unicode="&#x194;" horiz-adv-x="1695" 
d="M795 -612h-283q-113 0 -167 31.5t-54 115.5q0 29 10 84l12 62q24 117 77.5 214t154.5 220l151 180l-456 1059h319l338 -819l684 819h317l-905 -1057l76 -182q61 -152 61 -281q0 -65 -16 -153l-12 -62q-14 -70 -40.5 -116t-67.5 -71t-87.5 -34.5t-111.5 -9.5zM850 -57
l-55 123l-103 -123q-68 -80 -102 -137.5t-45 -118.5l-8 -41q-7 -31 -7 -47q0 -36 21.5 -50t66.5 -14h130q56 0 87 23.5t44 87.5l8 41q8 50 8 73q-3 89 -45 183z" />
    <glyph glyph-name="uni019D" unicode="&#x19d;" horiz-adv-x="1703" 
d="M14 -63l301 1417h295l703 -1010l215 1010h268l-287 -1354h-276l-729 987l-234 -1093q-21 -97 -56 -157.5t-97.5 -95.5t-143.5 -48t-206 -13h-158l41 193h84q143 0 200.5 33t79.5 131z" />
    <glyph glyph-name="uni01A0" unicode="&#x1a0;" horiz-adv-x="1806" 
d="M1130 0h-632q-234 0 -329 42.5t-95 164.5q0 54 14 117l150 706q17 82 45.5 137.5t68.5 93t104 57.5t140 28t188 8h906q100 0 137.5 25.5t54.5 105.5l29 137h182l-37 -172q-26 -120 -75 -173.5t-144 -68.5q6 -27 6 -61q0 -42 -14 -117l-150 -706q-17 -82 -45.5 -137.5
t-68.5 -93t-104 -57.5t-141 -28t-190 -8zM1415 379l125 594q8 36 8 67q0 70 -54.5 95.5t-188.5 25.5h-486q-158 0 -224.5 -37t-90.5 -151l-125 -594q-8 -36 -8 -70q0 -68 53 -92t188 -24h486q160 0 226.5 37t90.5 149z" />
    <glyph glyph-name="uni01A1" unicode="&#x1a1;" horiz-adv-x="1775" 
d="M1075 0h-563q-236 0 -333 41t-97 162q0 45 12 106l82 387q16 77 44.5 130t69.5 88.5t105.5 55.5t141.5 28t188 8h860q99 0 138.5 24.5t54.5 97.5l47 226h180l-55 -260q-26 -120 -79.5 -172t-160.5 -64q6 -27 6 -63q0 -53 -10 -99l-82 -387q-17 -79 -45.5 -132.5
t-69.5 -88.5t-105.5 -54t-140.5 -26.5t-188 -7.5zM586 193h493q138 0 195 30.5t78 128.5l63 299q6 27 6 51q0 61 -49.5 86t-159.5 25h-493q-131 0 -192 -35t-81 -127l-63 -299q-8 -46 -8 -59q0 -60 46.5 -80t164.5 -20z" />
    <glyph glyph-name="uni01AF" unicode="&#x1af;" horiz-adv-x="1822" 
d="M1124 0h-620q-236 0 -332 43t-96 166q0 55 14 115l219 1030h281l-207 -975q-8 -36 -8 -68q0 -69 54 -93.5t189 -24.5h472q161 0 225 37t88 149l207 975h133q74 0 107.5 26.5t50.5 104.5l28 137h180l-36 -172q-26 -122 -75.5 -177t-139.5 -67l-189 -882
q-17 -81 -44.5 -135.5t-67.5 -92.5t-102.5 -58.5t-140 -29t-190.5 -8.5z" />
    <glyph glyph-name="uni01B0" unicode="&#x1b0;" horiz-adv-x="1816" 
d="M578 193h503q104 0 155.5 36.5t74.5 116.5l141 660h211q75 3 108 28.5t48 93.5l47 226h180l-55 -260q-29 -134 -93 -184.5t-200 -55.5l-180 -854h-279l23 115q-100 -115 -332 -115h-426q-227 0 -327.5 46t-100.5 167q0 43 12 96l148 697h278l-139 -652q-6 -27 -6 -51
q0 -62 48.5 -86t160.5 -24z" />
    <glyph glyph-name="uni01DD" unicode="&#x1dd;" horiz-adv-x="1667" 
d="M291 1006h946q218 0 317 -55.5t99 -186.5q0 -34 -15 -115l-73 -342q-35 -161 -158.5 -234t-349.5 -73h-697q-154 0 -224 44.5t-70 139.5q0 30 10 82l20 94q21 97 59 147.5t106 71.5t190 21h901l6 35q8 33 8 65q0 71 -56 99t-186 28h-872zM1325 477h-774q-91 0 -130 -24
t-52 -91l-11 -51q-6 -21 -6 -41q0 -46 36.5 -68t115.5 -22h549q105 0 164.5 36.5t76.5 115.5z" />
    <glyph glyph-name="uni01E6" unicode="&#x1e6;" horiz-adv-x="1710" 
d="M1520 0h-1020q-236 0 -331 44t-95 165q0 55 14 115l150 706q17 79 43.5 133t67 92t102.5 59.5t141.5 30.5t193.5 9h1020l-41 -193h-946q-162 0 -228 -39t-89 -149l-125 -594q-8 -33 -8 -66q0 -69 54 -94.5t189 -25.5h678l84 393h-610l41 190h878zM733 1845h178l209 -289
l328 289h180l-407 -391h-246z" />
    <glyph glyph-name="uni01E7" unicode="&#x1e7;" horiz-adv-x="1687" 
d="M1036 -420h-442l41 193h348q97 0 147.5 35t69.5 129l19 90h-719q-235 0 -329.5 40.5t-94.5 157.5q0 53 14 113l76 358q16 77 43.5 130t67.5 89t103 55.5t140 27.5t189 8h997l-238 -1112q-21 -98 -55 -160t-89.5 -96t-121.5 -46t-166 -12zM1257 211l129 602h-686
q-137 0 -191 -31.5t-75 -130.5l-59 -278q-6 -30 -6 -56q0 -61 45.5 -83.5t156.5 -22.5h686zM678 1579h178l195 -365l342 365h180l-426 -473h-246z" />
    <glyph glyph-name="uni01F4" unicode="&#x1f4;" horiz-adv-x="1710" 
d="M1520 0h-1020q-236 0 -331 44t-95 165q0 55 14 115l150 706q17 79 43.5 133t67 92t102.5 59.5t141.5 30.5t193.5 9h1020l-41 -193h-946q-162 0 -228 -39t-89 -149l-125 -594q-8 -33 -8 -66q0 -69 54 -94.5t189 -25.5h678l84 393h-610l41 190h878zM1544 1845l-442 -391
h-203l399 391h246z" />
    <glyph glyph-name="uni01F5" unicode="&#x1f5;" horiz-adv-x="1687" 
d="M1036 -420h-442l41 193h348q97 0 147.5 35t69.5 129l19 90h-719q-235 0 -329.5 40.5t-94.5 157.5q0 53 14 113l76 358q16 77 43.5 130t67.5 89t103 55.5t140 27.5t189 8h997l-238 -1112q-21 -98 -55 -160t-89.5 -96t-121.5 -46t-166 -12zM1257 211l129 602h-686
q-137 0 -191 -31.5t-75 -130.5l-59 -278q-6 -30 -6 -56q0 -61 45.5 -83.5t156.5 -22.5h686zM1481 1579l-490 -473h-203l445 473h248z" />
    <glyph glyph-name="uni01F8" unicode="&#x1f8;" horiz-adv-x="1703" 
d="M1509 0h-276l-729 987l-209 -987h-266l286 1354h295l703 -1010l215 1010h268zM1296 1454h-202l-279 391h246z" />
    <glyph glyph-name="uni01F9" unicode="&#x1f9;" horiz-adv-x="1740" 
d="M1210 813h-534q-102 0 -153 -37.5t-74 -116.5l-140 -659h-280l213 1006h280l-24 -115q100 115 331 115h457q227 0 326.5 -45t99.5 -168q0 -53 -10 -97l-148 -696h-278l137 651q6 27 6 51q0 61 -49.5 86t-159.5 25zM1264 1106h-201l-291 473h248z" />
    <glyph glyph-name="dotlessj" unicode="&#x237;" horiz-adv-x="526" 
d="M-209 -420h-166l41 193h88q147 0 205 33t80 131l227 1069h281l-238 -1112q-17 -77 -44 -131t-66.5 -90t-99.5 -56.5t-132 -28.5t-176 -8z" />
    <glyph glyph-name="uni0241" unicode="&#x241;" horiz-adv-x="1284" 
d="M305 1354h637q236 0 330 -42t94 -161q0 -54 -14 -117l-49 -225q-34 -152 -151 -221.5t-339 -69.5h-205q-65 0 -109 -41t-59 -117l-75 -360h-279l82 391q32 155 120 232t247 77h247q114 0 174.5 38t79.5 122l27 123q8 50 8 64q0 66 -48 90t-167 24h-592z" />
    <glyph glyph-name="uni0242" unicode="&#x242;" horiz-adv-x="1284" 
d="M229 1006h637q240 0 335 -38t95 -147q0 -39 -12 -92l-33 -158q-28 -132 -143.5 -192t-337.5 -60h-235q-71 0 -108.5 -32t-49.5 -97l-39 -190h-279l45 219q18 91 55 147t110.5 87.5t187.5 31.5h278q114 0 172.5 31t73.5 100l14 68q6 27 6 49q0 56 -48.5 76t-168.5 20h-591
z" />
    <glyph glyph-name="uni024C" unicode="&#x24c;" horiz-adv-x="1775" 
d="M53 528l39 177h164l137 649h1059q213 0 297 -44t84 -153q0 -49 -16 -127l-39 -188q-38 -183 -187 -226q47 -12 77 -48.5t30 -102.5q0 -38 -8 -74l-82 -391h-279l76 365q8 50 8 63q0 54 -32.5 77t-104.5 23h-780l-111 -528h-279l111 528h-164zM1509 860l25 119
q10 48 10 74q0 59 -44.5 83.5t-156.5 24.5h-712l-96 -456h794q82 0 122 36t58 119z" />
    <glyph glyph-name="uni024D" unicode="&#x24d;" horiz-adv-x="1269" 
d="M307 0h-278l82 393h-78l28 129h78l103 484h278l-24 -115q20 22 39.5 37t58 35.5t98.5 31.5t137 11h514l-40 -193h-639q-93 0 -144 -38.5t-74 -115.5l-28 -137h422l-29 -129h-422z" />
    <glyph glyph-name="uni0263" unicode="&#x263;" horiz-adv-x="1716" 
d="M791 -612h-281q-114 0 -168.5 28t-54.5 103q0 25 6 59l10 51q20 99 69 180t144 181l143 147l-493 869h317l367 -672l653 672h318l-863 -869l80 -147q74 -136 74 -250q0 -29 -12 -107l-10 -55q-11 -57 -36 -95t-65.5 -58.5t-87 -28.5t-110.5 -8zM827 -154l-59 101
l-98 -101q-65 -67 -95.5 -113t-42.5 -98l-8 -32q-4 -24 -4 -31q0 -34 21.5 -45.5t70.5 -11.5h129q58 0 85 17.5t40 70.5l8 32q5 20 5 50q-3 78 -52 161z" />
    <glyph glyph-name="uni0272" unicode="&#x272;" horiz-adv-x="1740" 
d="M14 -63l228 1069h280l-24 -115q100 115 331 115h457q227 0 326.5 -45t99.5 -168q0 -53 -10 -97l-148 -696h-278l137 651q6 27 6 51q0 61 -49.5 86t-159.5 25h-534q-102 0 -153 -37.5t-74 -116.5l-164 -765q-17 -77 -44 -131t-66.5 -90t-99.5 -56.5t-132 -28.5t-176 -8
h-166l41 193h88q147 0 204.5 33t79.5 131z" />
    <glyph glyph-name="circumflex" unicode="&#x2c6;" horiz-adv-x="935" 
d="M1067 1106h-178l-193 367l-344 -367h-180l426 473h246z" />
    <glyph glyph-name="caron" unicode="&#x2c7;" horiz-adv-x="905" 
d="M272 1579h179l194 -365l342 365h180l-426 -473h-245z" />
    <glyph glyph-name="breve" unicode="&#x2d8;" horiz-adv-x="829" 
d="M631 1133h-115q-151 0 -214.5 32.5t-63.5 132.5q0 54 14 117l35 162h141l-35 -166q-10 -48 -10 -72q0 -54 35.5 -72t122.5 -18h114q103 0 148.5 31t66.5 131l35 166h142l-35 -162q-19 -90 -47 -144.5t-75 -85.5t-106 -41.5t-153 -10.5z" />
    <glyph glyph-name="dotaccent" unicode="&#x2d9;" horiz-adv-x="342" 
d="M469 1147h-272l51 250h272z" />
    <glyph glyph-name="ring" unicode="&#x2da;" horiz-adv-x="667" 
d="M522 1063h-90q-122 0 -173.5 22t-51.5 89q0 30 8 63l37 174q23 103 82.5 135.5t206.5 32.5h90q125 0 175 -23t50 -88q0 -22 -6 -57l-37 -174q-23 -104 -84.5 -139t-206.5 -35zM698 1253l29 142q4 24 4 32q0 33 -27 43.5t-96 10.5h-86q-83 0 -114 -16.5t-41 -69.5
l-29 -142q-4 -28 -4 -34q0 -34 27 -46t94 -12h86q80 0 112.5 17.5t44.5 74.5z" />
    <glyph glyph-name="ogonek" unicode="&#x2db;" horiz-adv-x="733" 
d="M485 -612h-249q-155 0 -228.5 36t-73.5 125q0 23 7 58l8 43q13 73 62 120t163 103l270 127h170l-280 -147q-68 -36 -95.5 -66t-35.5 -68l-6 -28q-4 -20 -4 -31q0 -43 35 -61.5t108 -18.5h190z" />
    <glyph glyph-name="tilde" unicode="&#x2dc;" horiz-adv-x="917" 
d="M846 1167q-58 0 -104.5 23t-77 55.5t-59.5 65t-66 55.5t-82 23q-52 0 -83.5 -35t-51.5 -123l-13 -57h-108l14 61q35 151 98 219t166 68q59 0 106 -23t77.5 -55.5t58.5 -65t65 -55.5t82 -23q52 0 82.5 35t50.5 125l13 58h108l-14 -66q-32 -148 -96.5 -216.5t-165.5 -68.5z
" />
    <glyph glyph-name="hungarumlaut" unicode="&#x2dd;" horiz-adv-x="1169" 
d="M1382 1579l-483 -473h-199l451 473h231zM840 1579l-465 -473h-189l432 473h222z" />
    <glyph glyph-name="gravecomb" unicode="&#x300;" 
d="M-483 1106h-201l-291 473h248z" />
    <glyph glyph-name="acutecomb" unicode="&#x301;" 
d="M-258 1579l-490 -473h-202l444 473h248z" />
    <glyph glyph-name="uni0302" unicode="&#x302;" 
d="M-270 1106h-179l-192 367l-344 -367h-180l426 473h245z" />
    <glyph glyph-name="tildecomb" unicode="&#x303;" 
d="M-481 1167q-58 0 -104.5 23t-77 55.5t-59.5 65t-66 55.5t-82 23q-52 0 -84 -35.5t-52 -122.5l-12 -57h-108l14 61q35 151 98 219t166 68q59 0 106 -23t77.5 -55.5t58.5 -65t65 -55.5t82 -23q52 0 82.5 35t50.5 125l13 58h108l-14 -66q-32 -148 -96.5 -216.5t-165.5 -68.5
z" />
    <glyph glyph-name="uni0304" unicode="&#x304;" 
d="M-297 1251h-778l28 129h779z" />
    <glyph glyph-name="uni0306" unicode="&#x306;" 
d="M-653 1133h-115q-151 0 -215 32.5t-64 132.5q0 50 15 117l35 162h141l-35 -166q-10 -48 -10 -72q0 -54 35.5 -72t122.5 -18h114q103 0 148.5 31t66.5 131l35 166h141l-34 -162q-19 -90 -47 -144.5t-75 -85.5t-106 -41.5t-153 -10.5z" />
    <glyph glyph-name="uni0307" unicode="&#x307;" 
d="M-571 1147h-273l51 250h273z" />
    <glyph glyph-name="uni0308" unicode="&#x308;" 
d="M-260 1147h-272l51 250h272zM-883 1147h-272l51 250h273z" />
    <glyph glyph-name="hookabovecomb" unicode="&#x309;" 
d="M-842 1579h289q127 0 178 -21t51 -81q0 -25 -6 -52l-18 -90q-30 -145 -238 -145h-57q-38 0 -55 -13.5t-23 -41.5l-4 -19h-131l8 35q19 77 59 111t134 34h53q100 0 113 66l4 24q2 8 2 21q0 27 -24.5 38t-82.5 11h-276z" />
    <glyph glyph-name="uni030A" unicode="&#x30a;" 
d="M-680 1063h-90q-122 0 -173.5 22t-51.5 89q0 30 8 63l37 174q23 103 82 135.5t206 32.5h91q125 0 175 -23t50 -88q0 -22 -6 -57l-37 -174q-23 -104 -84.5 -139t-206.5 -35zM-504 1253l29 142q4 24 4 32q0 33 -27 43.5t-96 10.5h-86q-83 0 -114.5 -16.5t-41.5 -69.5
l-28 -142q-4 -28 -4 -34q0 -34 26.5 -46t93.5 -12h86q80 0 113 18t45 74z" />
    <glyph glyph-name="uni030B" unicode="&#x30b;" 
d="M-8 1579l-484 -473h-198l450 473h232zM-551 1579l-465 -473h-188l432 473h221z" />
    <glyph glyph-name="uni030C" unicode="&#x30c;" 
d="M-1065 1579h178l195 -365l342 365h180l-426 -473h-246z" />
    <glyph glyph-name="uni0313" unicode="&#x313;" 
d="M-555 1178h-285l70 327q15 72 61 109t115 37h82l-16 -82h-35q-65 0 -76 -64l-14 -69h153z" />
    <glyph glyph-name="uni031B" unicode="&#x31b;" horiz-adv-x="88" 
d="M-106 854h-373l33 152h325q97 0 135.5 24.5t53.5 97.5l47 226h182l-55 -260q-31 -144 -104.5 -192t-243.5 -48z" />
    <glyph glyph-name="dotbelowcomb" unicode="&#x323;" 
d="M-899 -393h-272l53 250h272z" />
    <glyph glyph-name="uni0326" unicode="&#x326;" 
d="M-1075 -612h-86l16 77h37q57 0 68 58l18 86h-154l56 268h286l-77 -362q-13 -61 -57.5 -94t-106.5 -33z" />
    <glyph glyph-name="uni0328" unicode="&#x328;" 
d="M-784 -612h-250q-154 0 -227.5 36t-73.5 125q0 28 6 58l8 43q13 73 62 120t163 103l271 127h170l-281 -147q-68 -36 -95.5 -66t-35.5 -68l-6 -28q-4 -20 -4 -31q0 -43 35 -61.5t108 -18.5h191z" />
    <glyph glyph-name="uni032D" unicode="&#x32d;" 
d="M-606 -492h-180l-207 287l-330 -287h-180l411 392h244z" />
    <glyph glyph-name="tonos" unicode="&#x384;" horiz-adv-x="329" 
d="M561 1622l-158 -473h-188l100 473h246z" />
    <glyph glyph-name="dieresistonos" unicode="&#x385;" horiz-adv-x="993" 
d="M1141 1190h-221l53 250h221zM887 1622l-158 -473h-174l100 473h232zM410 1190h-220l54 250h219z" />
    <glyph glyph-name="Alphatonos" unicode="&#x386;" horiz-adv-x="1761" 
d="M571 1622l-157 -473h-189l101 473h245zM1348 0l-62 270h-786l-174 -270h-308l924 1354h352l351 -1354h-297zM1081 1167l-460 -710h622z" />
    <glyph glyph-name="anoteleia" unicode="&#x387;" horiz-adv-x="473" 
d="M451 737h-281l55 269h281z" />
    <glyph glyph-name="Epsilontonos" unicode="&#x388;" horiz-adv-x="1884" 
d="M561 1622l-158 -473h-188l100 473h246zM1720 0h-1448l287 1354h1448l-41 -193h-1167l-84 -391h710l-36 -182h-711l-86 -395h1167z" />
    <glyph glyph-name="Etatonos" unicode="&#x389;" horiz-adv-x="1970" 
d="M561 1622l-158 -473h-188l100 473h246zM1778 0h-281l123 584h-944l-123 -584h-281l287 1354h281l-123 -578h944l123 578h280z" />
    <glyph glyph-name="Iotatonos" unicode="&#x38a;" horiz-adv-x="745" 
d="M561 1622l-158 -473h-188l100 473h246zM551 0h-279l287 1354h279z" />
    <glyph glyph-name="Omicrontonos" unicode="&#x38c;" horiz-adv-x="2015" 
d="M561 1622l-158 -473h-188l100 473h246zM1352 0h-633q-234 0 -329 42.5t-95 164.5q0 54 14 117l150 706q17 82 45.5 137.5t69 93t104.5 57.5t140 28t188 8h632q235 0 330.5 -42t95.5 -165q0 -38 -14 -117l-149 -706q-17 -82 -45.5 -137.5t-68.5 -93t-104 -57.5t-141 -28
t-190 -8zM1636 379l125 594q8 36 8 67q0 70 -54.5 95.5t-188.5 25.5h-486q-158 0 -224.5 -37t-90.5 -151l-125 -594q-8 -36 -8 -70q0 -68 53.5 -92t188.5 -24h485q160 0 226.5 37t90.5 149z" />
    <glyph glyph-name="Upsilontonos" unicode="&#x38e;" horiz-adv-x="1912" 
d="M561 1622l-158 -473h-188l100 473h246zM1167 0h-278l117 553l-465 801h325l322 -604l581 604h318l-803 -801z" />
    <glyph glyph-name="Omegatonos" unicode="&#x38f;" horiz-adv-x="2015" 
d="M561 1622l-158 -473h-188l100 473h246zM993 1354h647q232 0 327 -42t95 -165q0 -38 -14 -117l-88 -420q-37 -180 -158 -251.5t-364 -71.5h-13l-20 -94h465l-39 -193h-631l84 399h102q129 0 199 45t90 142l82 387q10 46 8 69q0 70 -54 94.5t-187 24.5h-496
q-158 0 -224.5 -37t-90.5 -151l-82 -387q-6 -27 -6 -51q0 -70 53 -103t164 -33h102l-84 -399h-631l39 193h465l21 94h-13q-207 0 -301 50t-94 171q0 46 12 102l88 420q17 82 45.5 137.5t69 93t104.5 57.5t140 28t188 8z" />
    <glyph glyph-name="iotadieresistonos" unicode="&#x390;" horiz-adv-x="950" 
d="M686 0h-68q-196 0 -276 36t-80 136q0 29 10 84l160 750h281l-150 -707q-6 -24 -6 -41q0 -38 31 -51.5t108 -13.5h29zM1120 1190h-221l53 250h222zM866 1622l-157 -473h-174l100 473h231zM389 1190h-219l53 250h219z" />
    <glyph glyph-name="uni0413" unicode="&#x393;" horiz-adv-x="1294" 
d="M315 1354h1129l-41 -193h-848l-246 -1161h-280z" />
    <glyph glyph-name="uni0413" unicode="&#x413;" horiz-adv-x="1294" 
d="M315 1354h1129l-41 -193h-848l-246 -1161h-280z" />
    <glyph glyph-name="Delta" unicode="&#x394;" horiz-adv-x="1695" 
d="M1579 0h-1626l924 1354h352zM1016 1171l-637 -978h860z" />
    <glyph glyph-name="Theta" unicode="&#x398;" horiz-adv-x="1794" 
d="M1130 0h-632q-234 0 -329 42.5t-95 164.5q0 54 14 117l150 706q17 82 45.5 137.5t68.5 93t104 57.5t140 28t188 8h633q235 0 330.5 -42t95.5 -165q0 -38 -14 -117l-150 -706q-17 -82 -45.5 -137.5t-68.5 -93t-104 -57.5t-141 -28t-190 -8zM1415 379l125 594q8 36 8 67
q0 70 -54.5 95.5t-188.5 25.5h-486q-158 0 -224.5 -37t-90.5 -151l-125 -594q-8 -36 -8 -70q0 -68 53 -92t188 -24h486q160 0 226.5 37t90.5 149zM530 588l37 182h801l-37 -182h-801z" />
    <glyph glyph-name="Lambda" unicode="&#x39b;" horiz-adv-x="1695" 
d="M881 1354h348l350 -1354h-315l-271 1116l-747 -1116h-293z" />
    <glyph glyph-name="Xi" unicode="&#x39e;" horiz-adv-x="1642" 
d="M1481 0h-1483l39 193h1483zM1726 1161h-1482l41 193h1482zM1225 588h-721l37 182h721z" />
    <glyph glyph-name="uni041F" unicode="&#x3a0;" horiz-adv-x="1726" 
d="M1534 0h-279l246 1161h-946l-246 -1161h-280l286 1354h1506z" />
    <glyph glyph-name="uni041F" unicode="&#x41f;" horiz-adv-x="1726" 
d="M1534 0h-279l246 1161h-946l-246 -1161h-280l286 1354h1506z" />
    <glyph glyph-name="Sigma" unicode="&#x3a3;" horiz-adv-x="1638" 
d="M983 725l-20 -94l-525 -441h1075l-38 -190h-1455l31 150l619 528l-396 524l33 152h1454l-41 -193h-1075z" />
    <glyph glyph-name="uni0424" unicode="&#x3a6;" horiz-adv-x="2013" 
d="M1075 1354h273l-39 -185h327q93 0 157.5 -5t117.5 -18.5t84 -36.5t47 -59t16 -87q0 -38 -14 -117l-72 -338q-17 -82 -45 -137t-68 -92.5t-103 -58t-139.5 -28.5t-189.5 -8h-327l-39 -184h-273l39 184h-329q-234 0 -329 42.5t-95 164.5q0 54 14 117l72 338
q17 82 45.5 137.5t69 92.5t104.5 57t140 28t188 8h329zM604 377h264l127 600h-264q-157 0 -224 -37.5t-91 -151.5l-47 -225q-9 -41 -9 -67q0 -69 55 -94t189 -25zM1530 977h-262l-127 -600h262q156 0 223 38t90 148l47 225q9 40 9 68q0 71 -54.5 96t-187.5 25z" />
    <glyph glyph-name="uni0424" unicode="&#x424;" horiz-adv-x="2013" 
d="M1075 1354h273l-39 -185h327q93 0 157.5 -5t117.5 -18.5t84 -36.5t47 -59t16 -87q0 -38 -14 -117l-72 -338q-17 -82 -45 -137t-68 -92.5t-103 -58t-139.5 -28.5t-189.5 -8h-327l-39 -184h-273l39 184h-329q-234 0 -329 42.5t-95 164.5q0 54 14 117l72 338
q17 82 45.5 137.5t69 92.5t104.5 57t140 28t188 8h329zM604 377h264l127 600h-264q-157 0 -224 -37.5t-91 -151.5l-47 -225q-9 -41 -9 -67q0 -69 55 -94t189 -25zM1530 977h-262l-127 -600h262q156 0 223 38t90 148l47 225q9 40 9 68q0 71 -54.5 96t-187.5 25z" />
    <glyph glyph-name="Psi" unicode="&#x3a8;" horiz-adv-x="2013" 
d="M604 377h262l207 977h275l-207 -977h262q160 0 224.5 37.5t88.5 148.5l168 791h268l-180 -846q-17 -82 -45 -137t-68 -92.5t-103 -58t-139.5 -28.5t-189.5 -8h-327l-39 -184h-275l39 184h-327q-234 0 -329 42.5t-95 164.5q0 54 14 117l180 846h269l-168 -791
q-9 -41 -9 -67q0 -69 55 -94t189 -25z" />
    <glyph glyph-name="Omega" unicode="&#x3a9;" horiz-adv-x="1806" 
d="M784 1354h648q232 0 326.5 -42t94.5 -165q0 -38 -14 -117l-88 -420q-37 -180 -158 -251.5t-364 -71.5h-12l-21 -94h465l-39 -193h-631l84 399h103q129 0 198.5 45t89.5 142l82 387q10 46 8 69q0 70 -54 94.5t-187 24.5h-496q-158 0 -224.5 -37t-90.5 -151l-82 -387
q-6 -27 -6 -51q0 -70 53 -103t164 -33h102l-84 -399h-631l39 193h465l21 94h-13q-207 0 -301 50t-94 171q0 42 13 102l88 420q17 82 45.5 137.5t68.5 93t104 57.5t140 28t188 8z" />
    <glyph glyph-name="alphatonos" unicode="&#x3ac;" horiz-adv-x="1689" 
d="M1710 1006l-213 -1006h-278l22 115q-100 -115 -332 -115h-409q-234 0 -331 42t-97 161q0 36 14 108l82 385q16 77 43 129.5t67 88.5t103 55.5t141 28t191 8.5h997zM1061 193q104 0 155 36.5t74 116.5l101 467h-686q-133 0 -191 -34t-78 -128l-63 -297q-6 -30 -6 -57
q0 -60 44.5 -82t153.5 -22h496zM1249 1622l-157 -473h-189l101 473h245z" />
    <glyph glyph-name="epsilontonos" unicode="&#x3ad;" horiz-adv-x="1472" 
d="M1163 1622l-157 -473h-189l101 473h245zM1014 434h-535q-54 0 -83 -25.5t-44 -89.5l-10 -43q-4 -24 -4 -32q0 -54 49.5 -72t173.5 -18h766l-31 -154h-807q-241 0 -338.5 35t-97.5 137q0 35 8 68l21 96q30 144 156 172q-39 12 -60.5 36.5t-21.5 71.5q0 24 6 54l20 96
q12 60 36.5 101t62 68.5t98.5 43t136.5 21.5t186.5 6h807l-32 -154h-766q-139 0 -195.5 -25.5t-73.5 -99.5l-10 -45q-6 -24 -6 -43q0 -34 20 -49t62 -15h534z" />
    <glyph glyph-name="etatonos" unicode="&#x3ae;" horiz-adv-x="1740" 
d="M1464 -420h-278l227 1071q6 27 6 51q0 61 -49.5 86t-159.5 25h-534q-102 0 -153 -37.5t-74 -116.5l-140 -659h-280l213 1006h280l-24 -115q100 115 331 115h457q227 0 326.5 -45t99.5 -168q0 -53 -10 -97zM1272 1622l-158 -473h-188l100 473h246z" />
    <glyph glyph-name="iotatonos" unicode="&#x3af;" horiz-adv-x="628" 
d="M496 0h-68q-196 0 -276 36t-80 136q0 29 10 84l160 750h280l-149 -707q-6 -24 -6 -41q0 -38 31 -51.5t108 -13.5h29zM653 1622l-157 -473h-189l101 473h245z" />
    <glyph glyph-name="upsilondieresistonos" unicode="&#x3b0;" horiz-adv-x="1714" 
d="M578 193h503q104 0 155.5 36.5t74.5 116.5l141 660h279l-213 -1006h-279l23 115q-100 -115 -332 -115h-426q-227 0 -327.5 46t-100.5 167q0 43 12 96l148 697h278l-139 -652q-6 -27 -6 -51q0 -62 48.5 -86t160.5 -24zM1495 1190h-221l53 250h221zM1241 1622l-158 -473
h-174l101 473h231zM764 1190h-219l53 250h219z" />
    <glyph glyph-name="alpha" unicode="&#x3b1;" horiz-adv-x="1689" 
d="M1710 1006l-213 -1006h-278l22 115q-100 -115 -332 -115h-409q-234 0 -331 42t-97 161q0 36 14 108l82 385q16 77 43 129.5t67 88.5t103 55.5t141 28t191 8.5h997zM1061 193q104 0 155 36.5t74 116.5l101 467h-686q-133 0 -191 -34t-78 -128l-63 -297q-6 -30 -6 -57
q0 -60 44.5 -82t153.5 -22h496z" />
    <glyph glyph-name="beta" unicode="&#x3b2;" horiz-adv-x="1742" 
d="M1069 0h-766l-90 -420h-281l312 1467q17 78 44.5 131t67.5 88.5t104 54t140.5 26t190.5 7.5h565q235 0 325.5 -37.5t90.5 -153.5q0 -49 -15 -116l-35 -162q-36 -156 -153 -195q96 -33 96 -139q0 -29 -6 -66l-37 -176q-17 -78 -46 -132t-70.5 -89t-106.5 -54t-141.5 -26.5
t-188.5 -7.5zM512 987l-170 -794h737q135 0 196 34t83 135l18 87q6 34 6 57q0 54 -28 76t-86 22h-590l35 166h587q71 0 111 34t55 109l19 88q8 46 8 60q0 60 -48 80t-171 20h-449q-157 0 -224 -37t-89 -137z" />
    <glyph glyph-name="uni04AF" unicode="&#x3b3;" horiz-adv-x="1716" 
d="M827 -420h-278l90 420l-473 1006h332l338 -766l673 766h306l-897 -1006z" />
    <glyph glyph-name="uni04AF" unicode="&#x4af;" horiz-adv-x="1716" 
d="M827 -420h-278l90 420l-473 1006h332l338 -766l673 766h306l-897 -1006z" />
    <glyph glyph-name="delta" unicode="&#x3b4;" horiz-adv-x="1687" 
d="M1022 0h-666q-270 0 -270 248q0 55 16 133l140 659q16 78 43.5 131.5t68.5 89.5t104 56t140.5 28.5t189.5 8.5h883l-41 -193h-817q-165 0 -228 -33.5t-83 -130.5l-23 -110h731q235 0 330.5 -42t95.5 -159q0 -36 -14 -108l-55 -269q-16 -77 -44 -130.5t-68.5 -89
t-104.5 -55t-140.5 -27t-187.5 -7.5zM444 723l-71 -332q-8 -39 -8 -74q0 -124 139 -124h522q133 0 191 33.5t79 129.5l45 207q7 35 7 55q0 59 -47.5 82t-159.5 23h-697z" />
    <glyph glyph-name="epsilon" unicode="&#x3b5;" horiz-adv-x="1472" 
d="M1014 434h-535q-54 0 -83 -25.5t-44 -89.5l-10 -43q-4 -24 -4 -32q0 -54 49.5 -72t173.5 -18h766l-31 -154h-807q-241 0 -338.5 35t-97.5 137q0 35 8 68l21 96q30 144 156 172q-39 12 -60.5 36.5t-21.5 71.5q0 24 6 54l20 96q12 60 36.5 101t62 68.5t98.5 43t136.5 21.5
t186.5 6h807l-32 -154h-766q-139 0 -195.5 -25.5t-73.5 -99.5l-10 -45q-6 -24 -6 -43q0 -34 20 -49t62 -15h534z" />
    <glyph glyph-name="zeta" unicode="&#x3b6;" horiz-adv-x="1488" 
d="M1561 1171l-943 -526q-129 -74 -171.5 -114.5t-59.5 -112.5l-14 -66q-6 -30 -6 -55q0 -59 46 -81.5t158 -22.5h396q184 0 261 -39t77 -142q0 -37 -13 -100l-69 -332h-279l62 287q6 30 6 51q0 44 -27.5 63t-89.5 19h-397q-234 0 -330 42t-96 159q0 36 14 108l20 101
q10 50 23 87t38.5 73t55 63.5t83.5 63.5t112.5 68.5t152.5 82.5l586 309h-913l41 197h1314z" />
    <glyph glyph-name="eta" unicode="&#x3b7;" horiz-adv-x="1740" 
d="M1464 -420h-278l227 1071q6 27 6 51q0 61 -49.5 86t-159.5 25h-534q-102 0 -153 -37.5t-74 -116.5l-140 -659h-280l213 1006h280l-24 -115q100 115 331 115h457q227 0 326.5 -45t99.5 -168q0 -53 -10 -97z" />
    <glyph glyph-name="theta" unicode="&#x3b8;" horiz-adv-x="1751" 
d="M1075 0h-563q-235 0 -332.5 43t-97.5 168q0 53 14 113l150 706q17 80 46 136t70.5 93t106.5 57.5t142 29t188 8.5h563q233 0 330.5 -44.5t97.5 -168.5q0 -36 -14 -111l-150 -706q-17 -82 -46 -138t-70 -93t-106 -57.5t-141 -28t-188 -7.5zM586 193h493q137 0 196 34
t81 140l47 223h-969l-47 -223q-10 -45 -10 -70q0 -62 47 -83t162 -21zM518 985l-45 -211h969l45 211q6 35 6 57q0 66 -48 91.5t-159 25.5h-493q-132 0 -193 -36.5t-82 -137.5z" />
    <glyph glyph-name="iota" unicode="&#x3b9;" horiz-adv-x="628" 
d="M496 0h-68q-196 0 -276 36t-80 136q0 29 10 84l160 750h280l-149 -707q-6 -24 -6 -41q0 -38 31 -51.5t108 -13.5h29z" />
    <glyph glyph-name="uni043A" unicode="&#x3ba;" horiz-adv-x="1701" 
d="M1550 0h-278l59 281q6 30 6 53q0 57 -36 82.5t-119 25.5h-783l-92 -442h-278l213 1006h278l-100 -469l872 469h330l-745 -390h432q317 0 317 -223q0 -32 -10 -84z" />
    <glyph glyph-name="uni043A" unicode="&#x43a;" horiz-adv-x="1701" 
d="M1550 0h-278l59 281q6 30 6 53q0 57 -36 82.5t-119 25.5h-783l-92 -442h-278l213 1006h278l-100 -469l872 469h330l-745 -390h432q317 0 317 -223q0 -32 -10 -84z" />
    <glyph glyph-name="lambda" unicode="&#x3bb;" horiz-adv-x="1667" 
d="M266 0h-313l819 965h111l-152 389h313l525 -1354h-314l-313 807z" />
    <glyph glyph-name="mu" unicode="&#x3bc;" horiz-adv-x="1837" 
d="M1704 0h-66q-178 0 -257.5 29t-88.5 108q-44 -44 -80.5 -69.5t-110.5 -46.5t-173 -21h-375q-106 0 -163.5 14.5t-74.5 48.5l-102 -483h-281l304 1426h278l-139 -652q-6 -27 -6 -51q0 -62 48.5 -86t160.5 -24h503q88 0 150 36t80 117l141 660h279l-150 -707q-6 -24 -6 -41
q0 -38 31 -51.5t108 -13.5h29z" />
    <glyph glyph-name="xi" unicode="&#x3be;" horiz-adv-x="1488" 
d="M1593 1354l-41 -197h-770q-140 0 -197 -31.5t-77 -126.5l-23 -106q-6 -24 -6 -43q0 -96 125 -96h486l-31 -142h-479q-78 0 -121.5 -32.5t-61.5 -114.5l-24 -113q-6 -30 -6 -51q0 -61 48.5 -84.5t162.5 -23.5h389q184 0 261 -39t77 -142q0 -37 -13 -100l-69 -332h-279
l62 287q6 30 6 51q0 44 -27.5 63t-89.5 19h-391q-238 0 -335 41.5t-97 161.5q0 34 14 106l35 172q20 96 74 144t122 61q-47 12 -77.5 46t-30.5 93q0 26 6 56l43 200q15 69 40 115.5t62.5 78.5t99 48.5t137.5 23.5t189 7h807z" />
    <glyph glyph-name="pi" unicode="&#x3c0;" horiz-adv-x="1736" 
d="M1573 0h-66q-196 0 -276 36t-80 136q0 29 10 84l119 557h-649l-172 -813h-281l172 813h-215l41 193h1634l-41 -193h-210l-109 -514q-6 -24 -6 -41q0 -38 31 -51.5t108 -13.5h29z" />
    <glyph glyph-name="rho" unicode="&#x3c1;" horiz-adv-x="1689" 
d="M725 1006h516q233 0 329.5 -42.5t96.5 -162.5q0 -47 -12 -105l-82 -385q-17 -77 -45 -130t-68.5 -89t-104 -56t-140.5 -28t-187 -8h-719l-90 -420h-280l237 1116q16 77 44.5 130t69.5 88.5t105.5 55.5t141.5 28t188 8zM1300 354l64 297q6 27 6 54q0 61 -47.5 84.5
t-157.5 23.5h-446q-131 0 -192 -35t-81 -127l-98 -458h676q138 0 197 33.5t79 127.5z" />
    <glyph glyph-name="sigma1" unicode="&#x3c2;" horiz-adv-x="1488" 
d="M1526 1006l-41 -193h-783q-130 0 -188.5 -35.5t-77.5 -126.5l-63 -299q-6 -30 -6 -55q0 -59 46 -81.5t158 -22.5h396q184 0 261 -39t77 -142q0 -37 -13 -100l-69 -332h-279l62 287q6 30 6 51q0 44 -27.5 63t-89.5 19h-397q-234 0 -330 42t-96 159q0 36 14 108l82 387
q19 93 55.5 152t102.5 95t156.5 49.5t228.5 13.5h815z" />
    <glyph glyph-name="sigma" unicode="&#x3c3;" horiz-adv-x="1835" 
d="M1075 0h-563q-236 0 -333 41t-97 162q0 45 12 106l82 387q16 77 44.5 130t69.5 88.5t105.5 55.5t141.5 28t188 8h1198l-41 -193h-164q-5 -87 -12 -117l-82 -387q-17 -79 -45.5 -132.5t-69.5 -88.5t-105.5 -54t-140.5 -26.5t-188 -7.5zM586 193h493q138 0 195 30.5
t78 128.5l63 299q6 27 6 51q0 61 -49.5 86t-159.5 25h-493q-131 0 -192 -35t-81 -127l-63 -299q-8 -46 -8 -59q0 -60 46.5 -80t164.5 -20z" />
    <glyph glyph-name="tau" unicode="&#x3c4;" horiz-adv-x="1607" 
d="M1640 813h-618l-109 -514q-6 -24 -6 -41q0 -38 31.5 -51.5t108.5 -13.5h28l-39 -193h-67q-196 0 -276.5 36t-80.5 136q0 24 11 84l118 557h-596l41 193h1495z" />
    <glyph glyph-name="uni0444" unicode="&#x3c6;" horiz-adv-x="2074" 
d="M1004 -420h-279l90 420h-303q-236 0 -333 41t-97 162q0 45 12 106l82 387q16 77 44.5 130t69.5 88.5t105.5 55.5t141.5 28t188 8h303l74 348h278l-73 -348h305q234 0 332 -43.5t98 -163.5q0 -45 -12 -103l-82 -387q-17 -79 -45.5 -132.5t-69.5 -88.5t-105.5 -54
t-140.5 -26.5t-188 -7.5h-305zM1133 193h270q138 0 194.5 30.5t77.5 128.5l64 299q6 27 6 51q0 61 -49.5 86t-159.5 25h-270zM586 193h268l133 620h-268q-131 0 -192 -35t-81 -127l-63 -299q-8 -46 -8 -59q0 -60 46.5 -80t164.5 -20z" />
    <glyph glyph-name="uni0444" unicode="&#x444;" horiz-adv-x="2074" 
d="M1004 -420h-279l90 420h-303q-236 0 -333 41t-97 162q0 45 12 106l82 387q16 77 44.5 130t69.5 88.5t105.5 55.5t141.5 28t188 8h303l74 348h278l-73 -348h305q234 0 332 -43.5t98 -163.5q0 -45 -12 -103l-82 -387q-17 -79 -45.5 -132.5t-69.5 -88.5t-105.5 -54
t-140.5 -26.5t-188 -7.5h-305zM1133 193h270q138 0 194.5 30.5t77.5 128.5l64 299q6 27 6 51q0 61 -49.5 86t-159.5 25h-270zM586 193h268l133 620h-268q-131 0 -192 -35t-81 -127l-63 -299q-8 -46 -8 -59q0 -60 46.5 -80t164.5 -20z" />
    <glyph glyph-name="psi" unicode="&#x3c8;" horiz-adv-x="2074" 
d="M1133 193h270q138 0 194.5 30.5t77.5 128.5l140 654h280l-147 -697q-17 -79 -45.5 -132.5t-69.5 -88.5t-105.5 -54t-140.5 -26.5t-188 -7.5h-305l-90 -420h-279l90 420h-303q-236 0 -333 41t-97 162q0 45 12 106l148 697h280l-139 -654q-8 -46 -8 -59q0 -60 46.5 -80
t164.5 -20h268l248 1161h278z" />
    <glyph glyph-name="omega" unicode="&#x3c9;" horiz-adv-x="2074" 
d="M1135 193h268q138 0 194.5 30.5t77.5 128.5l140 654h280l-147 -697q-17 -79 -45.5 -132.5t-69.5 -88.5t-105.5 -54t-140.5 -26.5t-188 -7.5h-887q-236 0 -333 41t-97 162q0 45 12 106l148 697h280l-139 -654q-8 -46 -8 -59q0 -60 46.5 -80t164.5 -20h270l119 557h278z
" />
    <glyph glyph-name="iotadieresis" unicode="&#x3ca;" horiz-adv-x="628" 
d="M496 0h-68q-196 0 -276 36t-80 136q0 29 10 84l160 750h280l-149 -707q-6 -24 -6 -41q0 -38 31 -51.5t108 -13.5h29zM334 1147h-273l52 250h272zM793 1147h-273l51 250h273z" />
    <glyph glyph-name="omicrontonos" unicode="&#x3cc;" horiz-adv-x="1751" 
d="M586 193h493q138 0 195 30.5t78 128.5l63 299q6 27 6 51q0 61 -49.5 86t-159.5 25h-493q-131 0 -192 -35t-81 -127l-63 -299q-8 -46 -8 -59q0 -60 46.5 -80t164.5 -20zM1075 0h-563q-236 0 -333 41t-97 162q0 45 12 106l82 387q16 77 44.5 130t69.5 88.5t105.5 55.5
t141.5 28t188 8h563q234 0 332 -43.5t98 -163.5q0 -45 -12 -103l-82 -387q-17 -79 -45.5 -132.5t-69.5 -88.5t-105.5 -54t-140.5 -26.5t-188 -7.5zM1260 1622l-158 -473h-189l101 473h246z" />
    <glyph glyph-name="upsilontonos" unicode="&#x3cd;" horiz-adv-x="1714" 
d="M578 193h503q104 0 155.5 36.5t74.5 116.5l141 660h279l-213 -1006h-279l23 115q-100 -115 -332 -115h-426q-227 0 -327.5 46t-100.5 167q0 43 12 96l148 697h278l-139 -652q-6 -27 -6 -51q0 -62 48.5 -86t160.5 -24zM1257 1622l-157 -473h-189l101 473h245z" />
    <glyph glyph-name="omegatonos" unicode="&#x3ce;" horiz-adv-x="2074" 
d="M1135 193h268q138 0 194.5 30.5t77.5 128.5l140 654h280l-147 -697q-17 -79 -45.5 -132.5t-69.5 -88.5t-105.5 -54t-140.5 -26.5t-188 -7.5h-887q-236 0 -333 41t-97 162q0 45 12 106l148 697h280l-139 -654q-8 -46 -8 -59q0 -60 46.5 -80t164.5 -20h270l119 557h278z
M1438 1622l-158 -473h-188l100 473h246z" />
    <glyph glyph-name="uni0402" unicode="&#x402;" horiz-adv-x="2058" 
d="M1300 -420h-305l41 193h232q156 0 222.5 36.5t90.5 145.5l115 539q8 36 8 67q0 70 -55 95.5t-191 25.5h-727l-143 -682h-281l246 1161h-336l41 193h1464l-41 -193h-847l-62 -287h801q235 0 331.5 -43.5t96.5 -166.5q0 -38 -14 -113l-138 -647q-17 -81 -45.5 -136
t-69 -92.5t-104.5 -58t-141 -29t-189 -8.5z" />
    <glyph glyph-name="uni0403" unicode="&#x403;" horiz-adv-x="1294" 
d="M315 1354h1129l-41 -193h-848l-246 -1161h-280zM1339 1845l-442 -391h-203l400 391h245z" />
    <glyph glyph-name="uni0404" unicode="&#x404;" horiz-adv-x="1634" 
d="M1462 0h-962q-234 0 -330 43t-96 166q0 55 14 115l150 706q17 80 44.5 135t68.5 92.5t104 58.5t141 29.5t190 8.5h963l-41 -193h-889q-154 0 -222 -39.5t-91 -148.5l-43 -203h930l-37 -182h-930l-45 -209q-8 -46 -8 -62q0 -71 54.5 -97.5t184.5 -26.5h889z" />
    <glyph glyph-name="uni0409" unicode="&#x409;" horiz-adv-x="2678" 
d="M436 1024l70 330h1198l-100 -469h634q236 0 332 -42.5t96 -166.5q0 -40 -14 -115l-51 -237q-17 -82 -45 -137t-68 -92.5t-103.5 -58t-141 -28.5t-191.5 -8h-913l245 1161h-673l-23 -106q-50 -235 -92 -396t-89 -282.5t-92 -192t-106.5 -113.5t-126 -57t-157.5 -14h-74
l39 193h35q52 0 85.5 8t69.5 38.5t61.5 82.5t57.5 148.5t63.5 227t73.5 326.5zM2335 379l26 129q11 50 9 72q0 67 -49.5 91.5t-170.5 24.5h-585l-109 -503h586q145 0 207.5 38.5t85.5 147.5z" />
    <glyph glyph-name="uni040A" unicode="&#x40a;" horiz-adv-x="2699" 
d="M2355 379l27 129q8 36 8 72q0 67 -49 91.5t-170 24.5h-590l-108 -503h589q145 0 207.5 38.5t85.5 147.5zM1155 0l148 696h-846l-148 -696h-280l286 1354h281l-100 -469h845l101 469h278l-100 -469h637q236 0 332 -42.5t96 -166.5q0 -40 -14 -115l-52 -237
q-17 -82 -44.5 -137t-67 -92.5t-103 -58t-141 -28.5t-192.5 -8h-916z" />
    <glyph glyph-name="uni040B" unicode="&#x40b;" horiz-adv-x="2058" 
d="M258 1354h1464l-41 -193h-847l-62 -287h801q235 0 331.5 -43.5t96.5 -166.5q0 -38 -14 -113l-117 -551h-279l105 494q8 36 8 67q0 70 -55 95.5t-191 25.5h-727l-143 -682h-281l246 1161h-336z" />
    <glyph glyph-name="uni040C" unicode="&#x40c;" horiz-adv-x="1726" 
d="M1550 0h-278l86 406q6 30 6 55q0 63 -44.5 92t-145.5 29h-744l-123 -582h-278l286 1354h279l-139 -656l1050 656h326l-965 -592h486q162 0 234.5 -49t72.5 -152q0 -52 -10 -96zM1513 1845l-442 -391h-203l400 391h245z" />
    <glyph glyph-name="uni040D" unicode="&#x40d;" horiz-adv-x="1726" 
d="M1534 0h-281l224 1053l-1166 -1053h-282l286 1354h281l-223 -1055l1165 1055h283zM1311 1454h-203l-279 391h246z" />
    <glyph glyph-name="uni040E" unicode="&#x40e;" horiz-adv-x="1789" 
d="M1430 508h-820q-234 0 -330 43t-96 166q0 49 15 114l110 523h281l-98 -467q-9 -41 -9 -70q0 -70 54.5 -94.5t189.5 -24.5h743l140 656h278l-219 -1030q-17 -81 -44.5 -135.5t-67.5 -92.5t-102.5 -58.5t-140 -29t-190.5 -8.5h-1075l39 193h1002q160 0 225 37t88 149z
M1178 1440h-115q-150 0 -214.5 32.5t-64.5 131.5q0 38 17 118l24 123h142l-27 -127q-8 -39 -8 -71q0 -55 34 -73t121 -18h115q103 0 148.5 32t66.5 130l27 127h141l-24 -123q-18 -88 -46 -143.5t-76.5 -86t-108 -41.5t-152.5 -11z" />
    <glyph glyph-name="uni040F" unicode="&#x40f;" horiz-adv-x="1726" 
d="M799 -420h-226l91 420h-635l286 1354h281l-248 -1161h944l248 1161h281l-287 -1354h-645z" />
    <glyph glyph-name="uni0411" unicode="&#x411;" horiz-adv-x="1673" 
d="M315 1354h1129l-41 -193h-852zM1247 379l27 129q8 36 8 72q0 67 -49 91.5t-170 24.5h-688l-109 -503h688q145 0 207.5 38.5t85.5 147.5zM233 1354h281l-100 -469h737q236 0 332 -42.5t96 -166.5q0 -40 -14 -115l-52 -237q-17 -82 -44.5 -137t-68 -92.5t-103.5 -58
t-140.5 -28.5t-191.5 -8h-1018z" />
    <glyph glyph-name="uni0414" unicode="&#x414;" horiz-adv-x="1947" 
d="M106 -420h-223l127 613h121q40 0 67 4t56 19t49.5 39t45 68.5t44 102.5t44.5 147t50 196.5t56 254.5l69 330h1297l-248 -1161h190l-129 -613h-225l90 420h-1390zM795 1055q-73 -344 -136.5 -547.5t-134.5 -314.5h856l207 968h-770z" />
    <glyph glyph-name="uni0416" unicode="&#x416;" horiz-adv-x="2314" 
d="M1223 1354h278l-123 -578l736 578h311l-756 -592h301q149 0 216 -48t67 -149q0 -45 -12 -100l-99 -465h-276l86 406q6 30 6 57q0 62 -42 90.5t-136 28.5h-443l-123 -582h-278l123 582h-443q-116 0 -171 -41t-76 -135l-86 -406h-275l98 465q33 154 125 225.5t273 71.5h297
l-504 592h313l490 -578z" />
    <glyph glyph-name="uni0417" unicode="&#x417;" horiz-adv-x="1712" 
d="M1624 455l-29 -131q-18 -81 -46.5 -136.5t-69 -93t-104 -58t-140 -28.5t-188.5 -8h-961l39 193h926q135 0 197 37.5t83 140.5l12 61q9 56 9 64q0 53 -29 73.5t-88 20.5h-547l37 178h541q147 0 176 150l12 63q8 50 8 68q0 64 -47.5 88t-161.5 24h-921l41 193h960
q229 0 322.5 -43t93.5 -162q0 -40 -14 -119l-27 -133q-19 -93 -70 -145t-114 -70q108 -27 108 -152q0 -36 -8 -75z" />
    <glyph glyph-name="uni0418" unicode="&#x418;" horiz-adv-x="1726" 
d="M1534 0h-281l224 1053l-1166 -1053h-282l286 1354h281l-223 -1055l1165 1055h283z" />
    <glyph glyph-name="uni0419" unicode="&#x419;" horiz-adv-x="1726" 
d="M1534 0h-281l224 1053l-1166 -1053h-282l286 1354h281l-223 -1055l1165 1055h283zM1143 1440h-115q-150 0 -214 32.5t-64 131.5q0 43 16 118l25 123h141l-27 -127q-8 -39 -8 -71q0 -55 34.5 -73t121.5 -18h114q103 0 148.5 32t66.5 130l27 127h141l-24 -123
q-18 -88 -46 -143.5t-76.5 -86t-108 -41.5t-152.5 -11z" />
    <glyph glyph-name="uni041B" unicode="&#x41b;" horiz-adv-x="1708" 
d="M436 1024l70 330h1294l-287 -1354h-278l246 1161h-770l-23 -106q-50 -235 -92 -396t-89 -282.5t-92 -192t-106.5 -113.5t-126 -57t-157.5 -14h-74l39 193h35q52 0 85.5 8t69.5 38.5t61.5 82.5t57.5 148.5t63.5 227t73.5 326.5z" />
    <glyph glyph-name="uni0423" unicode="&#x423;" horiz-adv-x="1789" 
d="M1430 508h-820q-234 0 -330 43t-96 166q0 49 15 114l110 523h281l-98 -467q-9 -41 -9 -70q0 -70 54.5 -94.5t189.5 -24.5h743l140 656h278l-219 -1030q-17 -81 -44.5 -135.5t-67.5 -92.5t-102.5 -58.5t-140 -29t-190.5 -8.5h-1075l39 193h1002q160 0 225 37t88 149z" />
    <glyph glyph-name="uni0426" unicode="&#x426;" horiz-adv-x="1861" 
d="M1634 -420h-223l90 420h-1472l286 1354h281l-248 -1161h944l248 1161h281l-248 -1161h190z" />
    <glyph glyph-name="uni0427" unicode="&#x427;" horiz-adv-x="1779" 
d="M1585 0h-278l104 496h-803q-234 0 -330 43t-96 166q0 49 15 114l112 535h281l-103 -477q-8 -33 -8 -68q0 -70 55 -95.5t191 -25.5h727l141 666h279z" />
    <glyph glyph-name="uni0428" unicode="&#x428;" horiz-adv-x="2017" 
d="M1825 0h-1796l286 1354h275l-248 -1161h496l247 1161h258l-247 -1161h495l248 1161h272z" />
    <glyph glyph-name="uni0429" unicode="&#x429;" horiz-adv-x="2150" 
d="M1925 -420h-225l90 420h-1761l286 1354h275l-248 -1161h496l247 1161h258l-247 -1161h495l248 1161h272l-247 -1161h190z" />
    <glyph glyph-name="uni042A" unicode="&#x42a;" horiz-adv-x="1951" 
d="M258 1354h616l-100 -469h737q236 0 332 -42.5t96 -166.5q0 -40 -14 -115l-51 -237q-17 -82 -45 -137t-68 -92.5t-103.5 -58t-141 -28.5t-191.5 -8h-1018l246 1161h-336zM1608 379l26 129q10 47 8 72q0 67 -49 91.5t-170 24.5h-688l-108 -503h688q145 0 207.5 38.5
t85.5 147.5z" />
    <glyph glyph-name="uni042B" unicode="&#x42b;" horiz-adv-x="2174" 
d="M1329 379l27 129q8 36 8 72q0 67 -49 91.5t-170 24.5h-688l-109 -503h688q145 0 207.5 38.5t85.5 147.5zM315 1354h281l-100 -469h737q236 0 332 -42.5t96 -166.5q0 -40 -14 -115l-52 -237q-17 -82 -44.5 -137t-68 -92.5t-103.5 -58t-140.5 -28.5t-191.5 -8h-1018z
M1980 0h-278l287 1354h278z" />
    <glyph glyph-name="uni042C" unicode="&#x42c;" horiz-adv-x="1673" 
d="M1329 379l27 129q8 36 8 72q0 67 -49 91.5t-170 24.5h-688l-109 -503h688q145 0 207.5 38.5t85.5 147.5zM315 1354h281l-100 -469h737q236 0 332 -42.5t96 -166.5q0 -40 -14 -115l-52 -237q-17 -82 -44.5 -137t-68 -92.5t-103.5 -58t-140.5 -28.5t-191.5 -8h-1018z" />
    <glyph glyph-name="uni042D" unicode="&#x42d;" horiz-adv-x="1634" 
d="M969 0h-963l39 193h889q153 0 222 39t93 147l45 209h-929l36 182h930l43 203q8 33 8 65q0 69 -55.5 96t-185.5 27h-889l41 193h962q234 0 330 -43.5t96 -165.5q0 -40 -14 -115l-149 -706q-17 -81 -45 -136t-69 -92.5t-104.5 -58t-141 -29t-189.5 -8.5z" />
    <glyph glyph-name="uni042E" unicode="&#x42e;" horiz-adv-x="2453" 
d="M307 0h-278l286 1354h279l-125 -584h373l55 260q17 82 45.5 137.5t69 93t104.5 57.5t140 28t188 8h633q235 0 330.5 -42t95.5 -165q0 -33 -15 -117l-149 -706q-17 -82 -45.5 -137.5t-68.5 -93t-104 -57.5t-141 -28t-190 -8h-633q-234 0 -329 42.5t-95 164.5q0 49 15 117
l57 264h-373zM2075 379l125 594q8 36 8 67q0 70 -54.5 95.5t-189.5 25.5h-485q-158 0 -225 -37.5t-91 -150.5l-125 -594q-8 -36 -8 -70q0 -68 53.5 -92t188.5 -24h485q161 0 227.5 37t90.5 149z" />
    <glyph glyph-name="uni042F" unicode="&#x42f;" horiz-adv-x="1697" 
d="M307 0h-278l82 391q21 101 74.5 156t117.5 69q-98 32 -98 148q0 30 10 78l39 188q20 96 50.5 154.5t88 98.5t144 55.5t221.5 15.5h1059l-287 -1354h-279l111 528h-780q-89 0 -135 -36t-64 -127zM516 979l-24 -119q-9 -52 -9 -61q0 -50 28.5 -72t94.5 -22h795l96 456h-713
q-95 0 -148.5 -18.5t-79.5 -56t-40 -107.5z" />
    <glyph glyph-name="uni0431" unicode="&#x431;" horiz-adv-x="1751" 
d="M1862 1540l-21 -96q-34 -166 -123 -223.5t-291 -57.5h-630q-137 0 -196 -34t-79 -128l-12 -57h766q231 0 330.5 -43.5t99.5 -165.5q0 -43 -12 -102l-70 -324q-17 -79 -45.5 -132.5t-69 -88.5t-105 -54t-141 -26.5t-188.5 -7.5h-563q-236 0 -333 41t-97 162q0 45 12 106
l158 738q16 78 42.5 130t65.5 87.5t102 54.5t140.5 27t192.5 8h628q85 0 120.5 23t51.5 102l13 61h254zM586 193h493q138 0 194 30.5t79 128.5l53 244q6 30 6 53q0 62 -50 86.5t-159 24.5h-731l-88 -408q-8 -46 -8 -59q0 -60 46.5 -80t164.5 -20z" />
    <glyph glyph-name="uni0432" unicode="&#x432;" horiz-adv-x="1642" 
d="M1538 336l-20 -96q-30 -145 -142.5 -192.5t-386.5 -47.5h-960l213 1006h960q238 0 333 -35t95 -135q0 -34 -8 -70l-20 -96q-16 -73 -53.5 -109.5t-92.5 -52.5q88 -22 88 -113q0 -24 -6 -59zM430 575h784q53 0 80.5 23.5t40.5 83.5l11 45q4 24 4 35q0 52 -49.5 71
t-170.5 19h-641zM1186 434h-785l-61 -280h641q139 0 196.5 24.5t75.5 97.5l11 43q6 24 6 46q0 38 -21 53.5t-63 15.5z" />
    <glyph glyph-name="uni0433" unicode="&#x433;" horiz-adv-x="1363" 
d="M311 0h-282l213 1006h1198l-41 -193h-916z" />
    <glyph glyph-name="uni0434" unicode="&#x434;" horiz-adv-x="1863" 
d="M98 -326h-194l106 519h53q56 0 89.5 5.5t69 28t58 59.5t49.5 109.5t51 168t56 243.5l43 199h1297l-174 -813h163l-108 -519h-197l70 326h-1362zM674 776q-90 -424 -187 -583h834l133 620h-772z" />
    <glyph glyph-name="uni0436" unicode="&#x436;" horiz-adv-x="2291" 
d="M1198 0h-268l92 442h-469q-101 0 -149 -37.5t-66 -123.5l-59 -281h-275l66 309q65 307 434 307h164l-430 390h305l499 -469l101 469h268l-100 -469l700 469h305l-600 -390h164q318 0 318 -223q0 -27 -11 -84l-65 -309h-275l60 281q6 30 6 55q0 56 -36.5 81t-117.5 25
h-469z" />
    <glyph glyph-name="uni0437" unicode="&#x437;" horiz-adv-x="1472" 
d="M1014 434h-535l29 141h534q53 0 80.5 23.5t40.5 83.5l11 45q4 24 4 35q0 52 -49.5 71t-170.5 19h-765l32 154h807q238 0 332 -34.5t94 -133.5q0 -36 -8 -72l-20 -96q-16 -73 -53.5 -109.5t-92.5 -52.5q88 -22 88 -113q0 -24 -6 -59l-20 -96q-13 -60 -38.5 -101.5
t-63.5 -69t-100.5 -42.5t-138 -21t-186.5 -6h-807l31 154h766q139 0 196.5 24.5t75.5 97.5l11 43q6 24 6 46q0 38 -21 53.5t-63 15.5z" />
    <glyph glyph-name="uni0438" unicode="&#x438;" horiz-adv-x="1730" 
d="M1536 0h-281l162 770l-1112 -770h-276l213 1006h280l-164 -768l1108 768h283z" />
    <glyph glyph-name="uni0439" unicode="&#x439;" horiz-adv-x="1730" 
d="M1536 0h-281l162 770l-1112 -770h-276l213 1006h280l-164 -768l1108 768h283zM1077 1133h-114q-151 0 -215 32.5t-64 132.5q0 54 14 117l35 162h141l-34 -166q-11 -53 -11 -72q0 -54 35.5 -72t122.5 -18h115q103 0 148.5 31t66.5 131l35 166h141l-35 -162
q-19 -90 -47 -144.5t-75 -85.5t-106 -41.5t-153 -10.5z" />
    <glyph glyph-name="uni043B" unicode="&#x43b;" horiz-adv-x="1738" 
d="M418 807l43 199h1296l-213 -1006h-280l172 813h-772l-9 -37q-37 -175 -70 -294t-74 -209t-81.5 -140.5t-101.5 -81.5t-125 -41t-160 -10h-72l39 193h35q56 0 89.5 5.5t69 28t58 59.5t49.5 109.5t51 168t56 243.5z" />
    <glyph glyph-name="uni043C" unicode="&#x43c;" horiz-adv-x="1929" 
d="M1737 0h-244l156 737l-650 -737h-237l-336 735l-156 -735h-241l213 1006h297l395 -789l735 789h281z" />
    <glyph glyph-name="uni043D" unicode="&#x43d;" horiz-adv-x="1730" 
d="M311 0h-282l213 1006h282l-88 -410h944l88 410h281l-213 -1006h-281l84 403h-944z" />
    <glyph glyph-name="uni043F" unicode="&#x43f;" horiz-adv-x="1730" 
d="M311 0h-282l213 1006h1507l-213 -1006h-281l172 813h-944z" />
    <glyph glyph-name="uni0442" unicode="&#x442;" horiz-adv-x="1607" 
d="M862 0h-282l172 813h-607l41 193h1495l-41 -193h-606z" />
    <glyph glyph-name="uni0446" unicode="&#x446;" horiz-adv-x="1837" 
d="M1630 -326h-196l69 326h-1474l213 1006h282l-174 -813h944l174 813h281l-174 -813h164z" />
    <glyph glyph-name="uni0447" unicode="&#x447;" horiz-adv-x="1699" 
d="M1507 0h-282l78 375h-719q-247 0 -345 34.5t-98 135.5q0 29 9 69l83 392h283l-65 -308q-5 -18 -5 -36q0 -56 55.5 -75.5t198.5 -19.5h643l95 439h282z" />
    <glyph glyph-name="uni0448" unicode="&#x448;" horiz-adv-x="2263" 
d="M2068 0h-2039l213 1006h278l-174 -813h610l174 813h267l-174 -813h606l174 813h278z" />
    <glyph glyph-name="uni0449" unicode="&#x449;" horiz-adv-x="2369" 
d="M2163 -326h-197l70 326h-2007l213 1006h278l-174 -813h610l174 813h267l-174 -813h606l174 813h278l-174 -813h164z" />
    <glyph glyph-name="uni044A" unicode="&#x44a;" horiz-adv-x="1943" 
d="M1282 0h-973l172 813h-336l41 193h617l-53 -246h692q231 0 329.5 -42.5t98.5 -162.5q0 -41 -12 -96l-33 -158q-16 -76 -43.5 -128t-67 -86.5t-103.5 -53t-140 -26t-189 -7.5zM1559 348l14 70q6 27 6 51q0 63 -50.5 87t-166.5 24h-649l-84 -387h649q141 0 201 31.5
t80 123.5z" />
    <glyph glyph-name="uni044B" unicode="&#x44b;" horiz-adv-x="2168" 
d="M1001 0h-972l213 1006h280l-53 -246h692q231 0 329.5 -42.5t98.5 -162.5q0 -41 -12 -96l-33 -158q-16 -76 -43.5 -128t-67 -86.5t-103.5 -53t-140 -26t-189 -7.5zM1278 348l14 70q6 27 6 51q0 63 -50.5 87t-166.5 24h-649l-84 -387h649q141 0 201 31.5t80 123.5zM1974 0
h-282l213 1006h282z" />
    <glyph glyph-name="uni044C" unicode="&#x44c;" horiz-adv-x="1662" 
d="M1001 0h-972l213 1006h280l-53 -246h692q231 0 329.5 -42.5t98.5 -162.5q0 -41 -12 -96l-33 -158q-16 -76 -43.5 -128t-67 -86.5t-103.5 -53t-140 -26t-189 -7.5zM1278 348l14 70q6 27 6 51q0 63 -50.5 87t-166.5 24h-649l-84 -387h649q141 0 201 31.5t80 123.5z" />
    <glyph glyph-name="uni044D" unicode="&#x44d;" horiz-adv-x="1488" 
d="M1118 436h-639l27 131h639l20 90q6 27 6 52q0 61 -46 85.5t-156 24.5h-783l39 187h815q232 0 328 -44t96 -163q0 -45 -12 -103l-82 -387q-16 -77 -43.5 -129.5t-67.5 -88t-103 -55.5t-140 -28t-189 -8h-815l39 186h780q133 0 189 34t78 126z" />
    <glyph glyph-name="uni044E" unicode="&#x44e;" horiz-adv-x="2416" 
d="M311 0h-282l213 1006h282l-90 -420h383l25 110q21 96 58 155.5t105 94.5t157 47.5t229 12.5h561q234 0 332 -43.5t98 -163.5q0 -45 -12 -103l-82 -387q-17 -79 -45.5 -132.5t-69.5 -88.5t-105.5 -54t-140.5 -26.5t-188 -7.5h-561q-236 0 -333 41t-97 162q0 45 12 106
l24 123h-383zM1251 193h492q139 0 196 30.5t78 128.5l64 299q6 27 6 51q0 62 -49.5 86.5t-161.5 24.5h-492q-132 0 -193 -35t-81 -127l-63 -299q-9 -52 -9 -57q0 -62 47 -82t166 -20z" />
    <glyph glyph-name="uni044F" unicode="&#x44f;" horiz-adv-x="1642" 
d="M666 1006h997l-213 -1006l-283 -6l70 332h-760q-65 0 -97.5 -26.5t-45.5 -94.5l-43 -205h-279l49 231q31 142 154 172q-80 20 -80 109q0 24 6 59l41 195q19 94 64 143.5t143 73t277 23.5zM444 709l-24 -117q-8 -40 -8 -53q0 -33 19.5 -47.5t64.5 -14.5h774l76 357h-648
q-94 0 -146.5 -13t-75 -38.5t-32.5 -73.5z" />
    <glyph glyph-name="uni0452" unicode="&#x452;" horiz-adv-x="1740" 
d="M1077 1280h-497l-82 -389q100 115 331 115h457q227 0 326.5 -45t99.5 -168q0 -53 -10 -97l-172 -802q-17 -77 -44 -131t-66.5 -90t-99.5 -56.5t-132 -28.5t-176 -8h-166l41 193h88q149 0 207 33.5t80 134.5l151 710q6 27 6 51q0 61 -49.5 86t-159.5 25h-534
q-102 0 -153 -37.5t-74 -116.5l-140 -659h-280l299 1409h778z" />
    <glyph glyph-name="uni0453" unicode="&#x453;" horiz-adv-x="1363" 
d="M311 0h-282l213 1006h1198l-41 -193h-916zM1339 1579l-489 -473h-203l445 473h247z" />
    <glyph glyph-name="uni0454" unicode="&#x454;" horiz-adv-x="1488" 
d="M1030 436h-639l-20 -90q-6 -30 -6 -51q0 -61 46.5 -85t159.5 -24h781l-39 -186h-815q-234 0 -330 42t-96 159q0 36 14 108l82 387q19 93 55.5 152t102.5 95t156.5 49.5t228.5 13.5h815l-39 -187h-782q-131 0 -189 -35.5t-78 -126.5l-20 -90h639z" />
    <glyph glyph-name="uni0459" unicode="&#x459;" horiz-adv-x="2697" 
d="M2034 0h-879l172 813h-663l-9 -37q-37 -175 -70 -294t-74 -209t-81.5 -140.5t-101.5 -81.5t-125 -41t-160 -10h-72l39 193h35q56 0 89.5 5.5t69 28t58 59.5t49.5 109.5t51 168t56 243.5l43 199h1188l-54 -246h598q231 0 329.5 -42.5t98.5 -162.5q0 -41 -12 -96l-33 -158
q-16 -76 -43.5 -128t-67 -86.5t-103 -53t-139.5 -26t-189 -7.5zM2310 348l14 70q7 31 7 51q0 63 -50.5 87t-166.5 24h-555l-84 -387h555q141 0 200.5 31.5t79.5 123.5z" />
    <glyph glyph-name="uni045A" unicode="&#x45a;" horiz-adv-x="2689" 
d="M2298 322l10 47q4 24 4 32q0 54 -52 75.5t-171 21.5h-559l-66 -305h559q138 0 198 27.5t77 101.5zM1638 1006l-69 -328h600q232 0 331 -42t99 -157q-4 -55 -10 -84l-25 -110q-16 -72 -42.5 -120.5t-65.5 -81.5t-101.5 -51t-139.5 -25t-190 -7h-878l104 498h-835
l-105 -498h-282l213 1006h282l-69 -330h835l70 330h278z" />
    <glyph glyph-name="uni045C" unicode="&#x45c;" horiz-adv-x="1701" 
d="M1550 0h-278l59 281q6 30 6 53q0 57 -36 82.5t-119 25.5h-783l-92 -442h-278l213 1006h278l-100 -469l872 469h330l-745 -390h432q317 0 317 -223q0 -32 -10 -84zM1409 1579l-489 -473h-203l444 473h248z" />
    <glyph glyph-name="uni045D" unicode="&#x45d;" horiz-adv-x="1730" 
d="M1536 0h-281l162 770l-1112 -770h-276l213 1006h280l-164 -768l1108 768h283zM1249 1106h-200l-291 473h248z" />
    <glyph glyph-name="uni045E" unicode="&#x45e;" horiz-adv-x="1667" 
d="M1016 -420h-422l41 193h328q98 0 147.5 34.5t69.5 129.5l18 90h-698q-235 0 -329.5 40.5t-94.5 157.5q0 53 14 113l141 668h279l-135 -633q-6 -30 -6 -56q0 -61 45.5 -83.5t156.5 -22.5h666l170 795h281l-238 -1112q-21 -98 -55 -160t-90 -96t-122 -46t-167 -12z
M1049 1133h-115q-151 0 -215 32.5t-64 132.5q0 50 15 117l35 162h141l-35 -166q-10 -48 -10 -72q0 -54 35 -72t122 -18h115q103 0 148.5 31t66.5 131l35 166h141l-34 -162q-19 -90 -47 -144.5t-75 -85.5t-106 -41.5t-153 -10.5z" />
    <glyph glyph-name="uni045F" unicode="&#x45f;" horiz-adv-x="1730" 
d="M811 -326h-197l70 326h-655l213 1006h282l-174 -813h944l174 813h281l-213 -1006h-655z" />
    <glyph glyph-name="uni0490" unicode="&#x490;" horiz-adv-x="1294" 
d="M1403 1161h-848l-246 -1161h-280l286 1354h906l57 268h223z" />
    <glyph glyph-name="uni0491" unicode="&#x491;" horiz-adv-x="1363" 
d="M311 0h-282l213 1006h1001l62 292h196l-102 -485h-916z" />
    <glyph glyph-name="uni0492" unicode="&#x492;" horiz-adv-x="1294" 
d="M1040 594h-606l-125 -594h-280l125 594h-86l28 129h86l133 631h1129l-41 -193h-848l-92 -438h606z" />
    <glyph glyph-name="uni0493" unicode="&#x493;" horiz-adv-x="1363" 
d="M311 0h-282l84 401h-78l28 129h78l101 476h1198l-41 -193h-916l-59 -283h418l-29 -129h-418z" />
    <glyph glyph-name="uni0496" unicode="&#x496;" horiz-adv-x="2467" 
d="M2241 -420h-224l90 420h-241l86 406q6 30 6 57q0 62 -42 90.5t-136 28.5h-443l-123 -582h-278l123 582h-443q-116 0 -171 -41t-76 -135l-86 -406h-275l98 465q33 154 125 225.5t273 71.5h297l-504 592h313l490 -578l123 578h278l-123 -578l736 578h311l-756 -592h301
q149 0 216 -48t67 -149q0 -45 -12 -100l-60 -272h189z" />
    <glyph glyph-name="uni0497" unicode="&#x497;" horiz-adv-x="2420" 
d="M2216 -326h-197l70 326h-242l60 281q6 30 6 55q0 56 -36.5 81t-117.5 25h-469l-92 -442h-268l92 442h-469q-101 0 -149 -37.5t-66 -123.5l-59 -281h-275l66 309q65 307 434 307h164l-430 390h305l499 -469l101 469h268l-100 -469l700 469h305l-600 -390h164
q318 0 318 -223q0 -27 -11 -84l-26 -116h163z" />
    <glyph glyph-name="uni0498" unicode="&#x498;" horiz-adv-x="1712" 
d="M578 -420h-236l33 152h211q92 0 146 21.5t78 60.5t40 110l16 76h-780l39 193h926q135 0 197 37.5t83 140.5l12 61q9 56 9 64q0 53 -29 73.5t-88 20.5h-547l37 178h541q147 0 176 150l12 63q8 50 8 68q0 64 -47.5 88t-161.5 24h-921l41 193h960q229 0 322.5 -43t93.5 -162
q0 -40 -14 -119l-27 -133q-19 -93 -70 -145t-114 -70q108 -27 108 -152q0 -36 -8 -75l-29 -131q-18 -81 -46.5 -136.5t-69 -93t-104 -58t-140 -28.5t-188.5 -8h-19l-20 -94q-19 -89 -47.5 -147.5t-78 -100t-123.5 -60t-181 -18.5z" />
    <glyph glyph-name="uni0499" unicode="&#x499;" horiz-adv-x="1472" 
d="M385 -420h-235l32 152h211q92 0 146 21.5t78 60.5t40 110l17 76h-662l31 154h766q139 0 196.5 24.5t75.5 97.5l11 43q6 24 6 46q0 38 -21 53.5t-63 15.5h-535l29 141h534q53 0 80.5 23.5t40.5 83.5l11 45q4 24 4 35q0 52 -49.5 71t-170.5 19h-765l32 154h807
q238 0 332 -34.5t94 -133.5q0 -36 -8 -72l-20 -96q-16 -73 -53.5 -109.5t-92.5 -52.5q88 -22 88 -113q0 -24 -6 -59l-20 -96q-30 -144 -138.5 -192t-371.5 -48l-21 -94q-19 -89 -47.5 -147.5t-78 -100t-123.5 -60t-181 -18.5z" />
    <glyph glyph-name="uni049A" unicode="&#x49a;" horiz-adv-x="1878" 
d="M1651 -420h-224l91 420h-246l86 406q6 30 6 55q0 63 -44.5 92t-145.5 29h-744l-123 -582h-278l286 1354h279l-139 -656l1050 656h326l-965 -592h486q162 0 234.5 -49t72.5 -152q0 -52 -10 -96l-60 -272h191z" />
    <glyph glyph-name="uni049B" unicode="&#x49b;" horiz-adv-x="1849" 
d="M1645 -326h-197l70 326h-246l59 281q6 30 6 53q0 57 -36 82.5t-119 25.5h-783l-92 -442h-278l213 1006h278l-100 -469l872 469h330l-745 -390h432q317 0 317 -223q0 -32 -10 -84l-27 -116h164z" />
    <glyph glyph-name="uni04A0" unicode="&#x4a0;" horiz-adv-x="2004" 
d="M1829 0h-279l86 406q6 30 6 55q0 63 -44.5 92t-145.5 29h-743l-123 -582h-279l246 1161h-336l41 193h614l-139 -656l1051 656h325l-964 -592h485q162 0 234.5 -49t72.5 -152q0 -52 -10 -96z" />
    <glyph glyph-name="uni04A1" unicode="&#x4a1;" horiz-adv-x="1982" 
d="M1831 0h-279l60 281q6 30 6 53q0 57 -36.5 82.5t-119.5 25.5h-782l-92 -442h-279l172 813h-336l41 193h615l-101 -469l873 469h330l-746 -390h432q318 0 318 -223q0 -27 -11 -84z" />
    <glyph glyph-name="uni04A2" unicode="&#x4a2;" horiz-adv-x="1861" 
d="M1634 -420h-223l90 420h-248l123 584h-944l-123 -584h-280l286 1354h281l-123 -578h944l123 578h281l-248 -1161h190z" />
    <glyph glyph-name="uni04A3" unicode="&#x4a3;" horiz-adv-x="1837" 
d="M1630 -326h-196l69 326h-248l84 403h-944l-84 -403h-282l213 1006h282l-88 -410h944l88 410h281l-174 -813h164z" />
    <glyph glyph-name="uni04AA" unicode="&#x4aa;" horiz-adv-x="1634" 
d="M510 -420h-236l33 152h211q92 0 146 21.5t78 60.5t40 110l17 76h-299q-234 0 -330 43t-96 166q0 55 14 115l150 706q17 80 44.5 135t68.5 92.5t104 58.5t141 29.5t190 8.5h963l-41 -193h-889q-153 0 -221.5 -39.5t-91.5 -148.5l-125 -594q-8 -46 -8 -62q0 -71 54.5 -97.5
t184.5 -26.5h889l-39 -193h-501l-21 -94q-19 -89 -47.5 -147.5t-78 -100t-123.5 -60t-181 -18.5z" />
    <glyph glyph-name="uni04AB" unicode="&#x4ab;" horiz-adv-x="1488" 
d="M473 -420h-233l32 152h209q136 0 188.5 42.5t75.5 149.5l17 76h-264q-234 0 -330 42t-96 159q0 36 14 108l82 387q19 93 55.5 152t102.5 95t156.5 49.5t228.5 13.5h815l-41 -193h-783q-130 0 -188.5 -35.5t-77.5 -126.5l-63 -299q-6 -30 -6 -55q0 -59 46 -81.5t158 -22.5
h781l-39 -193h-389l-21 -94q-19 -89 -47.5 -147.5t-78 -100t-123.5 -60t-181 -18.5z" />
    <glyph glyph-name="uni04B0" unicode="&#x4b0;" horiz-adv-x="1601" 
d="M858 0h-278l79 377h-350l27 129h350l10 47l-465 801h326l322 -604l581 604h318l-803 -801l-10 -47h362l-27 -129h-362z" />
    <glyph glyph-name="uni04B1" unicode="&#x4b1;" horiz-adv-x="1716" 
d="M827 -420h-278l90 420h-446l26 129h447l-500 877h332l362 -656l649 656h306l-871 -877h455l-27 -129h-454z" />
    <glyph glyph-name="uni04B2" unicode="&#x4b2;" horiz-adv-x="1921" 
d="M1696 -420h-226l91 420h-299l-365 506l-575 -506h-353l787 674l-482 680h336l357 -500l579 500h326l-766 -666l352 -495h367z" />
    <glyph glyph-name="uni04B3" unicode="&#x4b3;" horiz-adv-x="1808" 
d="M1602 -326h-197l70 326h-312l-348 362l-500 -362h-362l709 506l-465 500h346l331 -351l490 351h336l-676 -490l303 -323h383z" />
    <glyph glyph-name="uni04B6" unicode="&#x4b6;" horiz-adv-x="1912" 
d="M1686 -420h-224l90 420h-245l104 496h-803q-234 0 -330 43t-96 166q0 49 15 114l112 535h281l-103 -477q-8 -33 -8 -68q0 -70 55 -95.5t191 -25.5h727l141 666h279l-248 -1161h191z" />
    <glyph glyph-name="uni04B7" unicode="&#x4b7;" horiz-adv-x="1806" 
d="M1599 -326h-196l70 326h-248l78 375h-719q-247 0 -345 34.5t-98 135.5q0 29 9 69l83 392h283l-65 -308q-5 -18 -5 -36q0 -56 55.5 -75.5t198.5 -19.5h643l95 439h282l-174 -813h162z" />
    <glyph glyph-name="uni04BA" unicode="&#x4ba;" horiz-adv-x="1779" 
d="M315 1354h279l-107 -498h803q235 0 331.5 -44t96.5 -167q0 -38 -14 -113l-113 -532h-278l100 477q8 50 8 66q0 70 -55 95.5t-190 25.5h-730l-139 -664h-278z" />
    <glyph glyph-name="uni04C3" unicode="&#x4c3;" horiz-adv-x="1726" 
d="M1526 -106q-16 -77 -43 -131t-66.5 -90t-100 -56.5t-133.5 -28.5t-177 -8h-166l41 193h88q148 0 207 34t81 134l101 465q6 30 6 55q0 63 -44.5 92t-145.5 29h-744l-123 -582h-278l286 1354h279l-139 -656l1050 656h326l-965 -592h486q162 0 234.5 -49t72.5 -152
q0 -52 -10 -96z" />
    <glyph glyph-name="uni04C4" unicode="&#x4c4;" horiz-adv-x="1701" 
d="M1255 -63l2 4l74 340q6 30 6 53q0 57 -36 82.5t-119 25.5h-783l-92 -442h-278l213 1006h278l-100 -469l872 469h330l-745 -390h432q317 0 317 -223q0 -32 -10 -84l-90 -415q-17 -78 -44 -131.5t-66 -89.5t-99 -56t-133 -28.5t-178 -8.5h-166l41 193h88q148 0 206 33
t80 131z" />
    <glyph glyph-name="uni04C7" unicode="&#x4c7;" horiz-adv-x="1726" 
d="M1239 -59l137 643h-944l-123 -584h-280l286 1354h281l-123 -578h944l123 578h281l-312 -1460q-17 -78 -44 -131.5t-66.5 -89.5t-99.5 -56.5t-133 -28.5t-177 -8h-166l41 193h88q149 0 207 33.5t80 134.5z" />
    <glyph glyph-name="uni04C8" unicode="&#x4c8;" horiz-adv-x="1730" 
d="M1749 1006l-238 -1112q-17 -78 -44 -131.5t-66 -89.5t-99 -56.5t-132.5 -28.5t-176.5 -8h-166l41 193h88q148 0 205.5 33.5t79.5 134.5l98 462h-944l-84 -403h-282l213 1006h282l-88 -410h944l88 410h281z" />
    <glyph glyph-name="uni04E2" unicode="&#x4e2;" horiz-adv-x="1726" 
d="M1534 0h-281l224 1053l-1166 -1053h-282l286 1354h281l-223 -1055l1165 1055h283zM1499 1556h-778l29 130h778z" />
    <glyph glyph-name="uni04E3" unicode="&#x4e3;" horiz-adv-x="1730" 
d="M1536 0h-281l162 770l-1112 -770h-276l213 1006h280l-164 -768l1108 768h283zM1432 1251h-779l29 129h778z" />
    <glyph glyph-name="uni04E8" unicode="&#x4e8;" horiz-adv-x="1794" 
d="M1130 0h-632q-234 0 -329 42.5t-95 164.5q0 54 14 117l150 706q17 82 45.5 137.5t68.5 93t104 57.5t140 28t188 8h633q235 0 330.5 -42t95.5 -165q0 -38 -14 -117l-150 -706q-17 -82 -45.5 -137.5t-68.5 -93t-104 -57.5t-141 -28t-190 -8zM1415 379l45 209h-1036
l-45 -209q-8 -36 -8 -70q0 -68 53 -92t188 -24h486q160 0 226.5 37t90.5 149zM504 973l-43 -203h1036l43 203q8 36 8 67q0 70 -54.5 95.5t-188.5 25.5h-486q-158 0 -224.5 -37t-90.5 -151z" />
    <glyph glyph-name="uni04E9" unicode="&#x4e9;" horiz-adv-x="1751" 
d="M1075 0h-563q-236 0 -333 41t-97 162q0 45 12 106l82 387q16 77 44.5 130t69.5 88.5t105.5 55.5t141.5 28t188 8h563q234 0 332 -43.5t98 -163.5q0 -45 -12 -103l-82 -387q-17 -79 -45.5 -132.5t-69.5 -88.5t-105.5 -54t-140.5 -26.5t-188 -7.5zM586 186h493
q138 0 193 30.5t78 129.5l20 90h-969l-20 -90q-8 -46 -8 -57q0 -62 47.5 -82.5t165.5 -20.5zM449 657l-21 -90h969l20 90q6 27 6 52q0 61 -49 85.5t-160 24.5h-493q-132 0 -191 -34.5t-81 -127.5z" />
    <glyph glyph-name="uni04EE" unicode="&#x4ee;" horiz-adv-x="1789" 
d="M1430 508h-820q-234 0 -330 43t-96 166q0 49 15 114l110 523h281l-98 -467q-9 -41 -9 -70q0 -70 54.5 -94.5t189.5 -24.5h743l140 656h278l-219 -1030q-17 -81 -44.5 -135.5t-67.5 -92.5t-102.5 -58.5t-140 -29t-190.5 -8.5h-1075l39 193h1002q160 0 225 37t88 149z
M1534 1556h-778l28 130h779z" />
    <glyph glyph-name="uni04EF" unicode="&#x4ef;" horiz-adv-x="1667" 
d="M1016 -420h-422l41 193h328q98 0 147.5 34.5t69.5 129.5l18 90h-698q-235 0 -329.5 40.5t-94.5 157.5q0 53 14 113l141 668h279l-135 -633q-6 -30 -6 -56q0 -61 45.5 -83.5t156.5 -22.5h666l170 795h281l-238 -1112q-21 -98 -55 -160t-90 -96t-122 -46t-167 -12z
M1405 1251h-778l28 129h779z" />
    <glyph glyph-name="uni0512" unicode="&#x512;" horiz-adv-x="1708" 
d="M1499 -59q-19 -92 -48 -154.5t-68.5 -103.5t-101 -63.5t-133.5 -31t-177 -8.5h-166l41 193h88q149 0 207 33.5t80 134.5l260 1220h-770l-23 -106q-50 -235 -92 -396t-89 -282.5t-92 -192t-106.5 -113.5t-126 -57t-157.5 -14h-74l39 193h35q52 0 85.5 8t69.5 38.5
t61.5 82.5t57.5 148.5t63.5 227t73.5 326.5l70 330h1294z" />
    <glyph glyph-name="uni0513" unicode="&#x513;" horiz-adv-x="1738" 
d="M1757 1006l-237 -1112q-17 -78 -44 -131.5t-66 -89.5t-99 -56.5t-133 -28.5t-177 -8h-165l41 193h88q148 0 205 33.5t79 134.5l187 872h-772l-9 -37q-37 -175 -70 -294t-74 -209t-81.5 -140.5t-101.5 -81.5t-125 -41t-160 -10h-72l39 193h35q56 0 89.5 5.5t69 28t58 59.5
t49.5 109.5t51 168t56 243.5l43 199h1296z" />
    <glyph glyph-name="uni058F" unicode="&#x58f;" horiz-adv-x="1617" 
d="M1520 188h-152l-39 -188h-278l39 188h-369l27 129h368l62 281h-369l27 129h368l51 246q9 40 9 69q0 69 -53.5 94t-186.5 25h-236q-162 0 -228 -37.5t-89 -150.5l-45 -217h-270l57 274q17 81 45 136t69.5 92.5t105.5 58t141.5 29t189.5 8.5h375q232 0 327 -43t95 -164
q0 -36 -15 -117l-63 -303h151l-26 -129h-152l-61 -281h151z" />
    <glyph glyph-name="uni1E0C" unicode="&#x1e0c;" horiz-adv-x="1712" 
d="M1047 0h-1018l286 1354h1018q233 0 329.5 -43t96.5 -166q0 -40 -14 -115l-150 -706q-17 -81 -45 -136t-68 -92.5t-103.5 -58t-141 -29t-190.5 -8.5zM1329 379l125 594q8 50 8 65q0 70 -54.5 96.5t-186.5 26.5h-666l-207 -968h666q154 0 223 39t92 147zM825 -393h-272
l53 250h273z" />
    <glyph glyph-name="uni1E0D" unicode="&#x1e0d;" horiz-adv-x="1689" 
d="M1497 0h-997q-237 0 -332.5 40.5t-95.5 160.5q0 36 14 108l82 387q16 77 44.5 130t70.5 88.5t105.5 55.5t140 28t184.5 8h719l73 348h279zM1257 193l134 620h-674q-135 0 -199 -36t-84 -132l-61 -293q-6 -30 -6 -55q0 -61 48 -82.5t169 -21.5h673zM836 -393h-273l53 250
h273z" />
    <glyph glyph-name="uni1E12" unicode="&#x1e12;" horiz-adv-x="1712" 
d="M1047 0h-1018l286 1354h1018q233 0 329.5 -43t96.5 -166q0 -40 -14 -115l-150 -706q-17 -81 -45 -136t-68 -92.5t-103.5 -58t-141 -29t-190.5 -8.5zM1329 379l125 594q8 50 8 65q0 70 -54.5 96.5t-186.5 26.5h-666l-207 -968h666q154 0 223 39t92 147zM1112 -492h-180
l-207 287l-330 -287h-180l412 392h243z" />
    <glyph glyph-name="uni1E13" unicode="&#x1e13;" horiz-adv-x="1689" 
d="M1497 0h-997q-237 0 -332.5 40.5t-95.5 160.5q0 36 14 108l82 387q16 77 44.5 130t70.5 88.5t105.5 55.5t140 28t184.5 8h719l73 348h279zM1257 193l134 620h-674q-135 0 -199 -36t-84 -132l-61 -293q-6 -30 -6 -55q0 -61 48 -82.5t169 -21.5h673zM1147 -492h-180
l-207 287l-330 -287h-180l412 392h243z" />
    <glyph glyph-name="uni1E24" unicode="&#x1e24;" horiz-adv-x="1726" 
d="M1534 0h-281l123 584h-944l-123 -584h-280l286 1354h281l-123 -578h944l123 578h281zM834 -393h-273l53 250h273z" />
    <glyph glyph-name="uni1E25" unicode="&#x1e25;" horiz-adv-x="1740" 
d="M1210 813h-534q-102 0 -153 -37.5t-74 -116.5l-140 -659h-280l286 1354h281l-98 -463q100 115 331 115h457q227 0 326.5 -45t99.5 -168q0 -53 -10 -97l-148 -696h-278l137 651q6 27 6 51q0 61 -49.5 86t-159.5 25zM850 -393h-272l53 250h272z" />
    <glyph glyph-name="uni1E3C" unicode="&#x1e3c;" horiz-adv-x="1294" 
d="M1157 0h-1128l286 1354h281l-248 -1161h848zM946 -492h-180l-207 287l-330 -287h-180l412 392h244z" />
    <glyph glyph-name="uni1E3D" unicode="&#x1e3d;" horiz-adv-x="595" 
d="M354 0h-278l286 1354h279zM559 -492h-180l-207 287l-330 -287h-180l412 392h243z" />
    <glyph glyph-name="uni1E44" unicode="&#x1e44;" horiz-adv-x="1703" 
d="M1509 0h-276l-729 987l-209 -987h-266l286 1354h295l703 -1010l215 1010h268zM1212 1475h-270l53 249h271z" />
    <glyph glyph-name="uni1E45" unicode="&#x1e45;" horiz-adv-x="1740" 
d="M1210 813h-534q-102 0 -153 -37.5t-74 -116.5l-140 -659h-280l213 1006h280l-24 -115q100 115 331 115h457q227 0 326.5 -45t99.5 -168q0 -53 -10 -97l-148 -696h-278l137 651q6 27 6 51q0 61 -49.5 86t-159.5 25zM1176 1147h-273l51 250h273z" />
    <glyph glyph-name="uni1E4A" unicode="&#x1e4a;" horiz-adv-x="1703" 
d="M1509 0h-276l-729 987l-209 -987h-266l286 1354h295l703 -1010l215 1010h268zM1108 -492h-180l-207 287l-330 -287h-180l412 392h243z" />
    <glyph glyph-name="uni1E4B" unicode="&#x1e4b;" horiz-adv-x="1740" 
d="M1210 813h-534q-102 0 -153 -37.5t-74 -116.5l-140 -659h-280l213 1006h280l-24 -115q100 115 331 115h457q227 0 326.5 -45t99.5 -168q0 -53 -10 -97l-148 -696h-278l137 651q6 27 6 51q0 61 -49.5 86t-159.5 25zM1139 -492h-181l-206 287l-330 -287h-180l411 392h244z
" />
    <glyph glyph-name="uni1E5A" unicode="&#x1e5a;" horiz-adv-x="1697" 
d="M1530 0h-279l76 365q8 50 8 63q0 54 -32.5 77t-104.5 23h-780l-111 -528h-278l286 1354h1059q213 0 297 -44t84 -153q0 -49 -16 -127l-39 -188q-38 -183 -187 -226q47 -12 77 -48.5t30 -102.5q0 -38 -8 -74zM1432 860l24 119q10 48 10 74q0 59 -44.5 83.5t-155.5 24.5
h-713l-96 -456h794q82 0 122.5 36t58.5 119zM815 -393h-272l53 250h272z" />
    <glyph glyph-name="uni1E5B" unicode="&#x1e5b;" horiz-adv-x="1269" 
d="M307 0h-278l213 1006h278l-24 -115q20 22 39.5 37t58 35.5t98.5 31.5t137 11h514l-40 -193h-639q-93 0 -144 -38.5t-74 -115.5zM221 -393h-272l53 250h272z" />
    <glyph glyph-name="uni1E62" unicode="&#x1e62;" horiz-adv-x="1658" 
d="M1135 0h-1123l39 193h1061q95 0 139 33t62 114l22 113q4 28 4 36q0 95 -125 95h-759q-139 0 -212 51.5t-73 144.5q0 16 8 62l47 221q18 83 45 135.5t78 89t127 51.5t191 15h1038l-41 -193h-983q-100 0 -142.5 -33t-60.5 -114l-24 -109q-4 -24 -4 -35q0 -96 131 -96h753
q283 0 283 -203q0 -39 -8 -75l-43 -203q-34 -159 -129.5 -226t-300.5 -67zM803 -393h-273l54 250h272z" />
    <glyph glyph-name="uni1E63" unicode="&#x1e63;" horiz-adv-x="1687" 
d="M608 563h643q191 0 269.5 -39t78.5 -133q0 -28 -10 -80l-10 -49q-32 -153 -126 -207.5t-320 -54.5h-1129l37 178h1038q120 0 169.5 23.5t64.5 93.5l6 29q4 28 4 36q0 48 -42 65t-146 17h-654q-183 0 -263.5 38t-80.5 134q0 38 8 74l15 68q31 146 130.5 198t319.5 52h1030
l-38 -181h-938q-122 0 -169.5 -22.5t-64.5 -93.5l-6 -27q-4 -14 -4 -37q0 -48 41.5 -65t146.5 -17zM823 -393h-272l53 250h273z" />
    <glyph glyph-name="uni1E6C" unicode="&#x1e6c;" horiz-adv-x="1495" 
d="M807 0h-279l246 1161h-557l41 193h1387l-41 -193h-551zM721 -393h-272l53 250h272z" />
    <glyph glyph-name="uni1E6D" unicode="&#x1e6d;" horiz-adv-x="989" 
d="M856 0h-348q-234 0 -330 43t-96 162q0 45 12 104l209 989h281l-62 -292h436l-38 -183h-437l-100 -471q-8 -31 -8 -59q0 -58 47.5 -79t163.5 -21h309zM479 -393h-272l53 250h272z" />
    <glyph glyph-name="Wgrave" unicode="&#x1e80;" horiz-adv-x="2535" 
d="M1907 0h-336l-172 1026l-600 -1026h-336l-221 1354h299l155 -1106l645 1106h285l170 -1106l629 1106h278zM1714 1454h-203l-278 391h246z" />
    <glyph glyph-name="wgrave" unicode="&#x1e81;" horiz-adv-x="2471" 
d="M1882 0h-354l-215 762l-533 -762h-354l-258 1006h301l190 -820l570 820h297l217 -820l543 820h280zM1620 1106h-201l-291 473h248z" />
    <glyph glyph-name="Wacute" unicode="&#x1e82;" horiz-adv-x="2535" 
d="M1907 0h-336l-172 1026l-600 -1026h-336l-221 1354h299l155 -1106l645 1106h285l170 -1106l629 1106h278zM1917 1845l-442 -391h-203l399 391h246z" />
    <glyph glyph-name="wacute" unicode="&#x1e83;" horiz-adv-x="2471" 
d="M1882 0h-354l-215 762l-533 -762h-354l-258 1006h301l190 -820l570 820h297l217 -820l543 820h280zM1843 1579l-489 -473h-203l444 473h248z" />
    <glyph glyph-name="Wdieresis" unicode="&#x1e84;" horiz-adv-x="2535" 
d="M1907 0h-336l-172 1026l-600 -1026h-336l-221 1354h299l155 -1106l645 1106h285l170 -1106l629 1106h278zM1944 1475h-271l53 249h271zM1321 1475h-270l53 249h270z" />
    <glyph glyph-name="wdieresis" unicode="&#x1e85;" horiz-adv-x="2471" 
d="M1882 0h-354l-215 762l-533 -762h-354l-258 1006h301l190 -820l570 820h297l217 -820l543 820h280zM1845 1147h-272l51 250h272zM1223 1147h-273l51 250h273z" />
    <glyph glyph-name="uni1E92" unicode="&#x1e92;" horiz-adv-x="1492" 
d="M1335 0h-1341l29 137l1173 1024h-956l41 193h1341l-33 -152l-1143 -1009h928zM727 -393h-272l53 250h272z" />
    <glyph glyph-name="uni1E93" unicode="&#x1e93;" horiz-adv-x="1523" 
d="M1346 0h-1332l41 197l1061 612h-930l43 197h1315l-39 -181l-1030 -628h911zM741 -393h-272l53 250h273z" />
    <glyph glyph-name="uni1E9E" unicode="&#x1e9e;" horiz-adv-x="1888" 
d="M1993 1354l-33 -152l-516 -381h137q111 0 186.5 -48.5t75.5 -143.5q0 -22 -6 -49l-55 -256q-17 -81 -45.5 -136.5t-69.5 -93t-105 -58t-140.5 -28.5t-188.5 -8h-705l39 193h672q134 0 196 37.5t83 140.5l28 139q4 24 4 37q0 106 -157 106h-357l39 166l490 342h-746
q-159 0 -224.5 -38t-88.5 -150l-205 -973h-278l217 1030q17 80 44.5 135t68 93t103.5 58.5t140.5 29t189.5 8.5h1207z" />
    <glyph glyph-name="uni1EA0" unicode="&#x1ea0;" horiz-adv-x="1695" 
d="M1282 0l-61 270h-787l-174 -270h-307l924 1354h352l350 -1354h-297zM1016 1167l-461 -710h623zM821 -393h-272l53 250h272z" />
    <glyph glyph-name="uni1EA1" unicode="&#x1ea1;" horiz-adv-x="1679" 
d="M1485 0h-1010q-233 0 -327.5 40t-94.5 153q0 38 13 98l8 43q22 114 75 171.5t157 80t302 22.5h727l11 54q6 35 6 57q0 65 -52.5 88.5t-181.5 23.5h-878l36 175h943q234 0 330 -43t96 -162q0 -42 -13 -105zM551 174h692l66 313h-693q-134 0 -192.5 -29t-75.5 -112l-6 -31
q-4 -16 -4 -43q0 -57 47.5 -77.5t165.5 -20.5zM836 -393h-273l53 250h273z" />
    <glyph glyph-name="uni1EA2" unicode="&#x1ea2;" horiz-adv-x="1695" 
d="M1282 0l-61 270h-787l-174 -270h-307l924 1354h352l350 -1354h-297zM1016 1167l-461 -710h623zM983 1884h289q127 0 178 -21t51 -81q0 -24 -6 -51l-18 -91q-30 -145 -238 -145h-57q-38 0 -55 -13.5t-23 -41.5l-4 -19h-131l8 35q19 77 58.5 111.5t133.5 34.5h54
q99 0 112 65l4 25q2 8 2 20q0 27 -24 38t-82 11h-277z" />
    <glyph glyph-name="uni1EA3" unicode="&#x1ea3;" horiz-adv-x="1679" 
d="M1485 0h-1010q-233 0 -327.5 40t-94.5 153q0 38 13 98l8 43q22 114 75 171.5t157 80t302 22.5h727l11 54q6 35 6 57q0 65 -52.5 88.5t-181.5 23.5h-878l36 175h943q234 0 330 -43t96 -162q0 -42 -13 -105zM551 174h692l66 313h-693q-134 0 -192.5 -29t-75.5 -112l-6 -31
q-4 -16 -4 -43q0 -57 47.5 -77.5t165.5 -20.5zM932 1579h289q127 0 178 -21t51 -81q0 -25 -6 -52l-19 -90q-30 -145 -237 -145h-58q-38 0 -54.5 -13.5t-22.5 -41.5l-4 -19h-131l8 35q19 77 58.5 111t133.5 34h53q100 0 113 66l4 24q2 8 2 21q0 27 -24 38t-82 11h-277z" />
    <glyph glyph-name="uni1EA4" unicode="&#x1ea4;" horiz-adv-x="1695" 
d="M1282 0l-61 270h-787l-174 -270h-307l924 1354h352l350 -1354h-297zM1016 1167l-461 -710h623zM1522 1454h-179l-208 287l-328 -287h-180l407 391h246zM2146 2050l-442 -391h-203l400 391h245z" />
    <glyph glyph-name="uni1EA5" unicode="&#x1ea5;" horiz-adv-x="1679" 
d="M1485 0h-1010q-233 0 -327.5 40t-94.5 153q0 38 13 98l8 43q22 114 75 171.5t157 80t302 22.5h727l11 54q6 35 6 57q0 65 -52.5 88.5t-181.5 23.5h-878l36 175h943q234 0 330 -43t96 -162q0 -42 -13 -105zM551 174h692l66 313h-693q-134 0 -192.5 -29t-75.5 -112l-6 -31
q-4 -16 -4 -43q0 -57 47.5 -77.5t165.5 -20.5zM1464 1149h-178l-209 287l-327 -287h-181l408 391h246zM2030 1845l-443 -391h-203l400 391h246z" />
    <glyph glyph-name="uni1EA6" unicode="&#x1ea6;" horiz-adv-x="1695" 
d="M1282 0l-61 270h-787l-174 -270h-307l924 1354h352l350 -1354h-297zM1016 1167l-461 -710h623zM1520 1454h-179l-208 287l-328 -287h-180l407 391h246zM1890 1659h-202l-279 391h246z" />
    <glyph glyph-name="uni1EA7" unicode="&#x1ea7;" horiz-adv-x="1679" 
d="M1485 0h-1010q-233 0 -327.5 40t-94.5 153q0 38 13 98l8 43q22 114 75 171.5t157 80t302 22.5h727l11 54q6 35 6 57q0 65 -52.5 88.5t-181.5 23.5h-878l36 175h943q234 0 330 -43t96 -162q0 -42 -13 -105zM551 174h692l66 313h-693q-134 0 -192.5 -29t-75.5 -112l-6 -31
q-4 -16 -4 -43q0 -57 47.5 -77.5t165.5 -20.5zM1475 1149h-179l-209 287l-327 -287h-180l407 391h246zM1757 1454h-203l-278 391h246z" />
    <glyph glyph-name="uni1EA8" unicode="&#x1ea8;" horiz-adv-x="1695" 
d="M1282 0l-61 270h-787l-174 -270h-307l924 1354h352l350 -1354h-297zM1016 1167l-461 -710h623zM1522 1454h-179l-208 287l-328 -287h-180l407 391h246zM1540 2028h289q127 0 178 -21.5t51 -81.5q0 -24 -6 -51l-18 -90q-30 -146 -238 -146h-57q-38 0 -55 -13.5t-23 -41.5
l-4 -18h-131l8 34q19 77 58.5 111.5t133.5 34.5h54q99 0 112 65l4 25q2 8 2 20q0 28 -24.5 39t-81.5 11h-276z" />
    <glyph glyph-name="uni1EA9" unicode="&#x1ea9;" horiz-adv-x="1679" 
d="M1485 0h-1010q-233 0 -327.5 40t-94.5 153q0 38 13 98l8 43q22 114 75 171.5t157 80t302 22.5h727l11 54q6 35 6 57q0 65 -52.5 88.5t-181.5 23.5h-878l36 175h943q234 0 330 -43t96 -162q0 -42 -13 -105zM551 174h692l66 313h-693q-134 0 -192.5 -29t-75.5 -112l-6 -31
q-4 -16 -4 -43q0 -57 47.5 -77.5t165.5 -20.5zM1475 1149h-179l-209 287l-327 -287h-180l407 391h246zM1450 1884h289q127 0 178 -21t51 -81q0 -24 -6 -51l-18 -91q-30 -145 -238 -145h-57q-38 0 -55 -13.5t-23 -41.5l-4 -19h-131l8 35q19 77 58.5 111.5t133.5 34.5h54
q99 0 112 65l4 25q2 8 2 20q0 27 -24 38t-82 11h-277z" />
    <glyph glyph-name="uni1EAA" unicode="&#x1eaa;" horiz-adv-x="1695" 
d="M1282 0l-61 270h-787l-174 -270h-307l924 1354h352l350 -1354h-297zM1016 1167l-461 -710h623zM1522 1454h-179l-208 287l-328 -287h-180l407 391h246zM1378 1868q-58 0 -104 21.5t-77 52t-60 60.5t-67 51.5t-83 21.5q-51 0 -80 -31.5t-49 -116.5l-12 -53h-109l13 57
q58 271 258 271q60 0 108 -21.5t79 -52t59.5 -61.5t66.5 -52.5t84 -21.5q49 0 81 33t48 116l10 53h109l-13 -59q-29 -139 -94.5 -203.5t-167.5 -64.5z" />
    <glyph glyph-name="uni1EAB" unicode="&#x1eab;" horiz-adv-x="1679" 
d="M1485 0h-1010q-233 0 -327.5 40t-94.5 153q0 38 13 98l8 43q22 114 75 171.5t157 80t302 22.5h727l11 54q6 35 6 57q0 65 -52.5 88.5t-181.5 23.5h-878l36 175h943q234 0 330 -43t96 -162q0 -42 -13 -105zM551 174h692l66 313h-693q-134 0 -192.5 -29t-75.5 -112l-6 -31
q-4 -16 -4 -43q0 -57 47.5 -77.5t165.5 -20.5zM1464 1149h-178l-209 287l-327 -287h-181l408 391h246zM1325 1581q-58 0 -104 21.5t-77 51.5t-60 60.5t-67 52t-83 21.5q-51 0 -80 -31.5t-49 -116.5l-12 -53h-109l12 58q58 270 258 270q60 0 108 -21.5t79.5 -52t60 -61.5
t66.5 -52.5t84 -21.5q49 0 81 33t48 116l10 54h108l-12 -60q-29 -139 -94.5 -203.5t-167.5 -64.5z" />
    <glyph glyph-name="uni1EAC" unicode="&#x1eac;" horiz-adv-x="1695" 
d="M1282 0l-61 270h-787l-174 -270h-307l924 1354h352l350 -1354h-297zM1016 1167l-461 -710h623zM1522 1454h-179l-208 287l-328 -287h-180l407 391h246zM819 -393h-272l53 250h272z" />
    <glyph glyph-name="uni1EAD" unicode="&#x1ead;" horiz-adv-x="1679" 
d="M1485 0h-1010q-233 0 -327.5 40t-94.5 153q0 38 13 98l8 43q22 114 75 171.5t157 80t302 22.5h727l11 54q6 35 6 57q0 65 -52.5 88.5t-181.5 23.5h-878l36 175h943q234 0 330 -43t96 -162q0 -42 -13 -105zM551 174h692l66 313h-693q-134 0 -192.5 -29t-75.5 -112l-6 -31
q-4 -16 -4 -43q0 -57 47.5 -77.5t165.5 -20.5zM1462 1106h-178l-192 367l-344 -367h-181l426 473h246zM836 -393h-273l53 250h273z" />
    <glyph glyph-name="uni1EAE" unicode="&#x1eae;" horiz-adv-x="1695" 
d="M1282 0l-61 270h-787l-174 -270h-307l924 1354h352l350 -1354h-297zM1016 1167l-461 -710h623zM1128 1440h-114q-150 0 -214.5 32.5t-64.5 131.5q0 38 17 118l24 123h142l-27 -127q-8 -39 -8 -71q0 -55 34 -73t121 -18h115q103 0 148.5 32t66.5 130l27 127h141l-25 -123
q-18 -88 -46 -143.5t-76.5 -86t-108 -41.5t-152.5 -11zM1579 2173l-442 -391h-203l399 391h246z" />
    <glyph glyph-name="uni1EAF" unicode="&#x1eaf;" horiz-adv-x="1679" 
d="M1485 0h-1010q-233 0 -327.5 40t-94.5 153q0 38 13 98l8 43q22 114 75 171.5t157 80t302 22.5h727l11 54q6 35 6 57q0 65 -52.5 88.5t-181.5 23.5h-878l36 175h943q234 0 330 -43t96 -162q0 -42 -13 -105zM551 174h692l66 313h-693q-134 0 -192.5 -29t-75.5 -112l-6 -31
q-4 -16 -4 -43q0 -57 47.5 -77.5t165.5 -20.5zM1081 1135h-114q-151 0 -215 32t-64 131q0 39 17 119l24 123h141l-26 -127q-8 -39 -8 -72q0 -55 33.5 -72.5t121.5 -17.5h115q103 0 148.5 32t66.5 130l27 127h141l-25 -123q-18 -88 -46 -143.5t-76.5 -86t-108 -41.5
t-152.5 -11zM1540 1968l-442 -391h-203l399 391h246z" />
    <glyph glyph-name="uni1EB0" unicode="&#x1eb0;" horiz-adv-x="1695" 
d="M1282 0l-61 270h-787l-174 -270h-307l924 1354h352l350 -1354h-297zM1016 1167l-461 -710h623zM1126 1440h-114q-150 0 -214.5 32.5t-64.5 131.5q0 38 17 118l24 123h141l-26 -127q-8 -39 -8 -71q0 -55 34 -73t121 -18h115q103 0 148.5 32t66.5 130l27 127h141l-25 -123
q-18 -88 -46 -143.5t-76.5 -86t-108 -41.5t-152.5 -11zM1356 1782h-203l-279 391h246z" />
    <glyph glyph-name="uni1EB1" unicode="&#x1eb1;" horiz-adv-x="1679" 
d="M1485 0h-1010q-233 0 -327.5 40t-94.5 153q0 38 13 98l8 43q22 114 75 171.5t157 80t302 22.5h727l11 54q6 35 6 57q0 65 -52.5 88.5t-181.5 23.5h-878l36 175h943q234 0 330 -43t96 -162q0 -42 -13 -105zM551 174h692l66 313h-693q-134 0 -192.5 -29t-75.5 -112l-6 -31
q-4 -16 -4 -43q0 -57 47.5 -77.5t165.5 -20.5zM1081 1135h-114q-151 0 -215 32t-64 131q0 39 17 119l24 123h141l-26 -127q-8 -39 -8 -72q0 -55 33.5 -72.5t121.5 -17.5h115q103 0 148.5 32t66.5 130l27 127h141l-25 -123q-18 -88 -46 -143.5t-76.5 -86t-108 -41.5
t-152.5 -11zM1337 1577h-202l-279 391h246z" />
    <glyph glyph-name="uni1EB2" unicode="&#x1eb2;" horiz-adv-x="1695" 
d="M1282 0l-61 270h-787l-174 -270h-307l924 1354h352l350 -1354h-297zM1016 1167l-461 -710h623zM1128 1440h-114q-150 0 -214.5 32.5t-64.5 131.5q0 38 17 118l24 123h142l-27 -127q-8 -39 -8 -71q0 -55 34 -73t121 -18h115q103 0 148.5 32t66.5 130l27 127h141l-25 -123
q-18 -88 -46 -143.5t-76.5 -86t-108 -41.5t-152.5 -11zM1024 2253h289q127 0 178 -21.5t51 -81.5q0 -24 -6 -51l-18 -90q-30 -145 -238 -145h-57q-38 0 -54.5 -14t-23.5 -42l-4 -18h-131l8 35q19 77 58.5 111t133.5 34h54q99 0 112 66l4 24q2 8 2 21q0 27 -24 38t-82 11
h-277z" />
    <glyph glyph-name="uni1EB3" unicode="&#x1eb3;" horiz-adv-x="1679" 
d="M1485 0h-1010q-233 0 -327.5 40t-94.5 153q0 38 13 98l8 43q22 114 75 171.5t157 80t302 22.5h727l11 54q6 35 6 57q0 65 -52.5 88.5t-181.5 23.5h-878l36 175h943q234 0 330 -43t96 -162q0 -42 -13 -105zM551 174h692l66 313h-693q-134 0 -192.5 -29t-75.5 -112l-6 -31
q-4 -16 -4 -43q0 -57 47.5 -77.5t165.5 -20.5zM1071 1094h-115q-151 0 -214.5 32t-63.5 131q0 44 16 119l25 123h141l-26 -127q-9 -44 -9 -72q0 -55 34 -72.5t122 -17.5h115q103 0 148.5 32t66.5 130l26 127h142l-25 -123q-18 -88 -46 -143.5t-76.5 -86t-108 -41.5
t-152.5 -11zM1004 1980h288q127 0 178.5 -21t51.5 -81q0 -24 -6 -51l-19 -90q-30 -146 -237 -146h-58q-38 0 -55 -13.5t-23 -41.5l-4 -18h-131l8 34q19 77 59 111.5t134 34.5h53q100 0 113 65l4 25q2 8 2 20q0 27 -24.5 38.5t-82.5 11.5h-276z" />
    <glyph glyph-name="uni1EB4" unicode="&#x1eb4;" horiz-adv-x="1695" 
d="M1282 0l-61 270h-787l-174 -270h-307l924 1354h352l350 -1354h-297zM1016 1167l-461 -710h623zM1128 1440h-114q-150 0 -214.5 32.5t-64.5 131.5q0 38 17 118l24 123h142l-27 -127q-8 -39 -8 -71q0 -55 34 -73t121 -18h115q103 0 148.5 32t66.5 130l27 127h141l-25 -123
q-18 -88 -46 -143.5t-76.5 -86t-108 -41.5t-152.5 -11zM1389 1909q-58 0 -104 21.5t-77 52t-60.5 60.5t-67.5 51.5t-83 21.5q-51 0 -80 -31.5t-49 -116.5l-12 -53h-108l12 57q58 271 258 271q51 0 93.5 -15.5t69.5 -38.5t54.5 -50.5l50.5 -50.5t56.5 -38.5t72.5 -15.5
q49 0 81 33t48 116l10 53h109l-12 -59q-29 -139 -94.5 -203.5t-167.5 -64.5z" />
    <glyph glyph-name="uni1EB5" unicode="&#x1eb5;" horiz-adv-x="1679" 
d="M1485 0h-1010q-233 0 -327.5 40t-94.5 153q0 38 13 98l8 43q22 114 75 171.5t157 80t302 22.5h727l11 54q6 35 6 57q0 65 -52.5 88.5t-181.5 23.5h-878l36 175h943q234 0 330 -43t96 -162q0 -42 -13 -105zM551 174h692l66 313h-693q-134 0 -192.5 -29t-75.5 -112l-6 -31
q-4 -16 -4 -43q0 -57 47.5 -77.5t165.5 -20.5zM1081 1135h-114q-151 0 -215 32t-64 131q0 39 17 119l24 123h141l-26 -127q-8 -39 -8 -72q0 -55 33.5 -72.5t121.5 -17.5h115q103 0 148.5 32t66.5 130l27 127h141l-25 -123q-18 -88 -46 -143.5t-76.5 -86t-108 -41.5
t-152.5 -11zM1335 1581q-58 0 -104 21.5t-77 51.5t-60 60.5t-67 52t-83 21.5q-51 0 -80 -31.5t-49 -116.5l-12 -53h-109l13 58q58 270 258 270q60 0 108 -21.5t79 -52t59.5 -61.5t66.5 -52.5t84 -21.5q49 0 81 33t48 116l10 54h109l-13 -60q-29 -139 -94.5 -203.5
t-167.5 -64.5z" />
    <glyph glyph-name="uni1EB6" unicode="&#x1eb6;" horiz-adv-x="1695" 
d="M1282 0l-61 270h-787l-174 -270h-307l924 1354h352l350 -1354h-297zM1016 1167l-461 -710h623zM1128 1440h-114q-150 0 -214.5 32.5t-64.5 131.5q0 38 17 118l24 123h142l-27 -127q-8 -39 -8 -71q0 -55 34 -73t121 -18h115q103 0 148.5 32t66.5 130l27 127h141l-25 -123
q-18 -88 -46 -143.5t-76.5 -86t-108 -41.5t-152.5 -11zM819 -393h-272l53 250h272z" />
    <glyph glyph-name="uni1EB7" unicode="&#x1eb7;" horiz-adv-x="1679" 
d="M1485 0h-1010q-233 0 -327.5 40t-94.5 153q0 38 13 98l8 43q22 114 75 171.5t157 80t302 22.5h727l11 54q6 35 6 57q0 65 -52.5 88.5t-181.5 23.5h-878l36 175h943q234 0 330 -43t96 -162q0 -42 -13 -105zM551 174h692l66 313h-693q-134 0 -192.5 -29t-75.5 -112l-6 -31
q-4 -16 -4 -43q0 -57 47.5 -77.5t165.5 -20.5zM1079 1133h-114q-151 0 -215 32.5t-64 132.5q0 54 14 117l35 162h142l-35 -166q-11 -53 -11 -72q0 -54 35.5 -72t122.5 -18h115q103 0 148.5 31t66.5 131l35 166h141l-35 -162q-19 -90 -47 -144.5t-75 -85.5t-106 -41.5
t-153 -10.5zM836 -393h-273l53 250h273z" />
    <glyph glyph-name="uni1EB8" unicode="&#x1eb8;" horiz-adv-x="1638" 
d="M1477 0h-1448l286 1354h1448l-41 -193h-1167l-84 -391h711l-37 -182h-711l-86 -395h1168zM815 -393h-272l53 250h272z" />
    <glyph glyph-name="uni1EB9" unicode="&#x1eb9;" horiz-adv-x="1667" 
d="M1442 0h-944q-219 0 -317.5 55.5t-98.5 188.5q0 50 12 112l74 342q35 160 160 234t350 74h694q155 0 225 -45t70 -140q0 -30 -10 -82l-21 -94q-21 -97 -58 -147t-104.5 -71t-189.5 -21h-903l-8 -35q-8 -33 -8 -66q0 -72 55 -99.5t186 -27.5h873zM406 528h776
q90 0 127.5 23.5t54.5 91.5l12 51q4 24 4 37q0 48 -36 71t-117 23h-547q-106 0 -166.5 -36.5t-77.5 -114.5zM827 -393h-272l53 250h273z" />
    <glyph glyph-name="uni1EBA" unicode="&#x1eba;" horiz-adv-x="1638" 
d="M1477 0h-1448l286 1354h1448l-41 -193h-1167l-84 -391h711l-37 -182h-711l-86 -395h1168zM948 1884h289q127 0 178 -21t51 -81q0 -24 -6 -51l-18 -91q-30 -145 -238 -145h-57q-38 0 -55 -13.5t-23 -41.5l-4 -19h-131l8 35q19 77 59 111.5t134 34.5h53q99 0 112 65l5 25
q2 8 2 20q0 27 -24.5 38t-82.5 11h-276z" />
    <glyph glyph-name="uni1EBB" unicode="&#x1ebb;" horiz-adv-x="1667" 
d="M1442 0h-944q-219 0 -317.5 55.5t-98.5 188.5q0 50 12 112l74 342q35 160 160 234t350 74h694q155 0 225 -45t70 -140q0 -30 -10 -82l-21 -94q-21 -97 -58 -147t-104.5 -71t-189.5 -21h-903l-8 -35q-8 -33 -8 -66q0 -72 55 -99.5t186 -27.5h873zM406 528h776
q90 0 127.5 23.5t54.5 91.5l12 51q4 24 4 37q0 48 -36 71t-117 23h-547q-106 0 -166.5 -36.5t-77.5 -114.5zM920 1579h288q127 0 178.5 -21t51.5 -81q0 -25 -6 -52l-19 -90q-30 -145 -237 -145h-58q-38 0 -55 -13.5t-23 -41.5l-4 -19h-131l8 35q19 77 59 111t134 34h53
q100 0 113 66l4 24q2 8 2 21q0 27 -24.5 38t-82.5 11h-276z" />
    <glyph glyph-name="uni1EBC" unicode="&#x1ebc;" horiz-adv-x="1638" 
d="M1477 0h-1448l286 1354h1448l-41 -193h-1167l-84 -391h711l-37 -182h-711l-86 -395h1168zM1298 1499q-58 0 -104 21.5t-77 51.5t-60 60.5t-67 52t-83 21.5q-52 0 -80.5 -31t-48.5 -116l-12 -54h-109l13 58q58 270 258 270q60 0 108 -21.5t79 -52t59.5 -61.5t66.5 -52.5
t84 -21.5q49 0 81 33.5t48 116.5l10 53h109l-12 -60q-29 -139 -94.5 -203.5t-168.5 -64.5z" />
    <glyph glyph-name="uni1EBD" unicode="&#x1ebd;" horiz-adv-x="1667" 
d="M1442 0h-944q-219 0 -317.5 55.5t-98.5 188.5q0 50 12 112l74 342q35 160 160 234t350 74h694q155 0 225 -45t70 -140q0 -30 -10 -82l-21 -94q-21 -97 -58 -147t-104.5 -71t-189.5 -21h-903l-8 -35q-8 -33 -8 -66q0 -72 55 -99.5t186 -27.5h873zM406 528h776
q90 0 127.5 23.5t54.5 91.5l12 51q4 24 4 37q0 48 -36 71t-117 23h-547q-106 0 -166.5 -36.5t-77.5 -114.5zM1243 1167q-58 0 -104.5 23t-77 55.5t-59.5 65t-66 55.5t-82 23q-52 0 -83.5 -35t-51.5 -123l-12 -57h-109l14 61q35 150 98.5 218.5t166.5 68.5q59 0 106 -23
t77.5 -55.5t58.5 -65t65 -55.5t82 -23q52 0 82.5 35t50.5 125l12 58h109l-15 -66q-32 -148 -96.5 -216.5t-165.5 -68.5z" />
    <glyph glyph-name="uni1EBE" unicode="&#x1ebe;" horiz-adv-x="1638" 
d="M1477 0h-1448l286 1354h1448l-41 -193h-1167l-84 -391h711l-37 -182h-711l-86 -395h1168zM1520 1454h-179l-208 287l-328 -287h-180l407 391h246zM2148 2050l-442 -391h-203l400 391h245z" />
    <glyph glyph-name="uni1EBF" unicode="&#x1ebf;" horiz-adv-x="1667" 
d="M1442 0h-944q-219 0 -317.5 55.5t-98.5 188.5q0 50 12 112l74 342q35 160 160 234t350 74h694q155 0 225 -45t70 -140q0 -30 -10 -82l-21 -94q-21 -97 -58 -147t-104.5 -71t-189.5 -21h-903l-8 -35q-8 -33 -8 -66q0 -72 55 -99.5t186 -27.5h873zM406 528h776
q90 0 127.5 23.5t54.5 91.5l12 51q4 24 4 37q0 48 -36 71t-117 23h-547q-106 0 -166.5 -36.5t-77.5 -114.5zM1454 1149h-178l-209 287l-328 -287h-180l408 391h245zM2015 1845l-442 -391h-203l399 391h246z" />
    <glyph glyph-name="uni1EC0" unicode="&#x1ec0;" horiz-adv-x="1638" 
d="M1477 0h-1448l286 1354h1448l-41 -193h-1167l-84 -391h711l-37 -182h-711l-86 -395h1168zM1520 1454h-179l-208 287l-328 -287h-180l407 391h246zM1911 1659h-203l-278 391h245z" />
    <glyph glyph-name="uni1EC1" unicode="&#x1ec1;" horiz-adv-x="1667" 
d="M1442 0h-944q-219 0 -317.5 55.5t-98.5 188.5q0 50 12 112l74 342q35 160 160 234t350 74h694q155 0 225 -45t70 -140q0 -30 -10 -82l-21 -94q-21 -97 -58 -147t-104.5 -71t-189.5 -21h-903l-8 -35q-8 -33 -8 -66q0 -72 55 -99.5t186 -27.5h873zM406 528h776
q90 0 127.5 23.5t54.5 91.5l12 51q4 24 4 37q0 48 -36 71t-117 23h-547q-106 0 -166.5 -36.5t-77.5 -114.5zM1468 1149h-178l-209 287l-327 -287h-181l408 391h246zM1772 1454h-203l-279 391h246z" />
    <glyph glyph-name="uni1EC2" unicode="&#x1ec2;" horiz-adv-x="1638" 
d="M1477 0h-1448l286 1354h1448l-41 -193h-1167l-84 -391h711l-37 -182h-711l-86 -395h1168zM1518 1454h-179l-209 287l-327 -287h-180l407 391h246zM1540 2028h289q127 0 178 -21.5t51 -81.5q0 -24 -6 -51l-18 -90q-30 -146 -238 -146h-57q-38 0 -55 -13.5t-23 -41.5
l-4 -18h-131l8 34q19 77 58.5 111.5t133.5 34.5h54q99 0 112 65l4 25q2 8 2 20q0 28 -24.5 39t-81.5 11h-276z" />
    <glyph glyph-name="uni1EC3" unicode="&#x1ec3;" horiz-adv-x="1667" 
d="M1442 0h-944q-219 0 -317.5 55.5t-98.5 188.5q0 50 12 112l74 342q35 160 160 234t350 74h694q155 0 225 -45t70 -140q0 -30 -10 -82l-21 -94q-21 -97 -58 -147t-104.5 -71t-189.5 -21h-903l-8 -35q-8 -33 -8 -66q0 -72 55 -99.5t186 -27.5h873zM406 528h776
q90 0 127.5 23.5t54.5 91.5l12 51q4 24 4 37q0 48 -36 71t-117 23h-547q-106 0 -166.5 -36.5t-77.5 -114.5zM1468 1149h-178l-209 287l-327 -287h-181l408 391h246zM1434 1884h288q127 0 178.5 -21t51.5 -81q0 -24 -6 -51l-19 -91q-30 -145 -237 -145h-58q-38 0 -55 -13.5
t-23 -41.5l-4 -19h-131l8 35q19 77 59 111.5t134 34.5h53q100 0 113 65l4 25q2 8 2 20q0 27 -24 38t-82 11h-277z" />
    <glyph glyph-name="uni1EC4" unicode="&#x1ec4;" horiz-adv-x="1638" 
d="M1477 0h-1448l286 1354h1448l-41 -193h-1167l-84 -391h711l-37 -182h-711l-86 -395h1168zM1518 1454h-179l-209 287l-327 -287h-180l407 391h246zM1384 1909q-58 0 -104 21.5t-77 52t-60 60.5t-67 51.5t-83 21.5q-51 0 -80 -31.5t-49 -116.5l-12 -53h-109l13 57
q58 271 258 271q51 0 93.5 -15.5t69.5 -38.5t54.5 -50.5l50.5 -50.5t56.5 -38.5t72.5 -15.5q49 0 81 33t48 116l10 53h109l-12 -59q-29 -139 -94.5 -203.5t-168.5 -64.5z" />
    <glyph glyph-name="uni1EC5" unicode="&#x1ec5;" horiz-adv-x="1667" 
d="M1442 0h-944q-219 0 -317.5 55.5t-98.5 188.5q0 50 12 112l74 342q35 160 160 234t350 74h694q155 0 225 -45t70 -140q0 -30 -10 -82l-21 -94q-21 -97 -58 -147t-104.5 -71t-189.5 -21h-903l-8 -35q-8 -33 -8 -66q0 -72 55 -99.5t186 -27.5h873zM406 528h776
q90 0 127.5 23.5t54.5 91.5l12 51q4 24 4 37q0 48 -36 71t-117 23h-547q-106 0 -166.5 -36.5t-77.5 -114.5zM1466 1149h-178l-209 287l-327 -287h-181l408 391h246zM1329 1581q-58 0 -104 21.5t-77 51.5t-60 60.5t-67 52t-83 21.5q-51 0 -80 -31.5t-49 -116.5l-12 -53h-109
l12 58q58 270 258 270q60 0 108 -21.5t79.5 -52t60 -61.5t66.5 -52.5t84 -21.5q49 0 81 33t48 116l10 54h109l-13 -60q-29 -139 -94.5 -203.5t-167.5 -64.5z" />
    <glyph glyph-name="uni1EC6" unicode="&#x1ec6;" horiz-adv-x="1638" 
d="M1477 0h-1448l286 1354h1448l-41 -193h-1167l-84 -391h711l-37 -182h-711l-86 -395h1168zM1518 1454h-179l-209 287l-327 -287h-180l407 391h246zM815 -393h-272l53 250h272z" />
    <glyph glyph-name="uni1EC7" unicode="&#x1ec7;" horiz-adv-x="1667" 
d="M1442 0h-944q-219 0 -317.5 55.5t-98.5 188.5q0 50 12 112l74 342q35 160 160 234t350 74h694q155 0 225 -45t70 -140q0 -30 -10 -82l-21 -94q-21 -97 -58 -147t-104.5 -71t-189.5 -21h-903l-8 -35q-8 -33 -8 -66q0 -72 55 -99.5t186 -27.5h873zM406 528h776
q90 0 127.5 23.5t54.5 91.5l12 51q4 24 4 37q0 48 -36 71t-117 23h-547q-106 0 -166.5 -36.5t-77.5 -114.5zM1454 1106h-178l-193 367l-344 -367h-180l426 473h246zM827 -393h-272l53 250h273z" />
    <glyph glyph-name="uni1EC8" unicode="&#x1ec8;" horiz-adv-x="530" 
d="M307 0h-278l286 1354h279zM385 1884h289q127 0 178 -21t51 -81q0 -24 -6 -51l-18 -91q-30 -145 -238 -145h-57q-38 0 -55 -13.5t-23 -41.5l-4 -19h-131l8 35q19 77 58.5 111.5t133.5 34.5h54q99 0 112 65l4 25q2 8 2 20q0 27 -24 38t-82 11h-277z" />
    <glyph glyph-name="uni1EC9" unicode="&#x1ec9;" horiz-adv-x="552" 
d="M311 0h-282l213 1006h282zM319 1579h289q127 0 178.5 -21t51.5 -81q0 -21 -7 -52l-18 -90q-30 -145 -238 -145h-57q-38 0 -55 -13.5t-23 -41.5l-4 -19h-131l8 35q19 77 59 111t134 34h53q100 0 113 66l4 24q2 8 2 21q0 27 -24.5 38t-82.5 11h-276z" />
    <glyph glyph-name="uni1ECA" unicode="&#x1eca;" horiz-adv-x="501" 
d="M307 0h-278l286 1354h279zM221 -393h-272l53 250h272z" />
    <glyph glyph-name="uni1ECB" unicode="&#x1ecb;" horiz-adv-x="503" 
d="M311 0h-282l213 1006h282zM549 1147h-273l52 250h272zM223 -393h-272l53 250h272z" />
    <glyph glyph-name="uni1ECC" unicode="&#x1ecc;" horiz-adv-x="1794" 
d="M1130 0h-632q-234 0 -329 42.5t-95 164.5q0 54 14 117l150 706q17 82 45.5 137.5t68.5 93t104 57.5t140 28t188 8h633q235 0 330.5 -42t95.5 -165q0 -38 -14 -117l-150 -706q-17 -82 -45.5 -137.5t-68.5 -93t-104 -57.5t-141 -28t-190 -8zM1415 379l125 594q8 36 8 67
q0 70 -54.5 95.5t-188.5 25.5h-486q-158 0 -224.5 -37t-90.5 -151l-125 -594q-8 -36 -8 -70q0 -68 53 -92t188 -24h486q160 0 226.5 37t90.5 149zM870 -393h-272l53 250h273z" />
    <glyph glyph-name="uni1ECD" unicode="&#x1ecd;" horiz-adv-x="1751" 
d="M586 193h493q138 0 195 30.5t78 128.5l63 299q6 27 6 51q0 61 -49.5 86t-159.5 25h-493q-131 0 -192 -35t-81 -127l-63 -299q-8 -46 -8 -59q0 -60 46.5 -80t164.5 -20zM1075 0h-563q-236 0 -333 41t-97 162q0 45 12 106l82 387q16 77 44.5 130t69.5 88.5t105.5 55.5
t141.5 28t188 8h563q234 0 332 -43.5t98 -163.5q0 -45 -12 -103l-82 -387q-17 -79 -45.5 -132.5t-69.5 -88.5t-105.5 -54t-140.5 -26.5t-188 -7.5zM850 -393h-272l53 250h272z" />
    <glyph glyph-name="uni1ECE" unicode="&#x1ece;" horiz-adv-x="1794" 
d="M1130 0h-632q-234 0 -329 42.5t-95 164.5q0 54 14 117l150 706q17 82 45.5 137.5t68.5 93t104 57.5t140 28t188 8h633q235 0 330.5 -42t95.5 -165q0 -38 -14 -117l-150 -706q-17 -82 -45.5 -137.5t-68.5 -93t-104 -57.5t-141 -28t-190 -8zM1415 379l125 594q8 36 8 67
q0 70 -54.5 95.5t-188.5 25.5h-486q-158 0 -224.5 -37t-90.5 -151l-125 -594q-8 -36 -8 -70q0 -68 53 -92t188 -24h486q160 0 226.5 37t90.5 149zM1028 1884h289q127 0 178 -21t51 -81q0 -24 -6 -51l-18 -91q-30 -145 -238 -145h-57q-38 0 -55 -13.5t-23 -41.5l-4 -19h-131
l8 35q19 77 58.5 111.5t133.5 34.5h54q99 0 112 65l4 25q2 8 2 20q0 27 -24 38t-82 11h-276z" />
    <glyph glyph-name="uni1ECF" unicode="&#x1ecf;" horiz-adv-x="1751" 
d="M586 193h493q138 0 195 30.5t78 128.5l63 299q6 27 6 51q0 61 -49.5 86t-159.5 25h-493q-131 0 -192 -35t-81 -127l-63 -299q-8 -46 -8 -59q0 -60 46.5 -80t164.5 -20zM1075 0h-563q-236 0 -333 41t-97 162q0 45 12 106l82 387q16 77 44.5 130t69.5 88.5t105.5 55.5
t141.5 28t188 8h563q234 0 332 -43.5t98 -163.5q0 -45 -12 -103l-82 -387q-17 -79 -45.5 -132.5t-69.5 -88.5t-105.5 -54t-140.5 -26.5t-188 -7.5zM942 1579h289q127 0 178 -21t51 -81q0 -25 -6 -52l-18 -90q-30 -145 -238 -145h-57q-38 0 -55 -13.5t-23 -41.5l-4 -19h-131
l8 35q19 77 58.5 111t133.5 34h54q99 0 112 66l4 24q2 8 2 21q0 27 -24 38t-82 11h-276z" />
    </font>
</defs>
</svg>
